%TF.GenerationSoftware,KiCad,Pcbnew,(5.1.7)-1*%
%TF.CreationDate,2020-10-27T00:37:30-04:00*%
%TF.ProjectId,esp8285bee,65737038-3238-4356-9265-652e6b696361,rev?*%
%TF.SameCoordinates,Original*%
%TF.FileFunction,Legend,Bot*%
%TF.FilePolarity,Positive*%
%FSLAX46Y46*%
G04 Gerber Fmt 4.6, Leading zero omitted, Abs format (unit mm)*
G04 Created by KiCad (PCBNEW (5.1.7)-1) date 2020-10-27 00:37:30*
%MOMM*%
%LPD*%
G01*
G04 APERTURE LIST*
%ADD10C,0.127000*%
%ADD11C,0.120000*%
%ADD12C,0.150000*%
G04 APERTURE END LIST*
D10*
X96386952Y-86589809D02*
X96556285Y-86347904D01*
X96677238Y-86589809D02*
X96677238Y-86081809D01*
X96483714Y-86081809D01*
X96435333Y-86106000D01*
X96411142Y-86130190D01*
X96386952Y-86178571D01*
X96386952Y-86251142D01*
X96411142Y-86299523D01*
X96435333Y-86323714D01*
X96483714Y-86347904D01*
X96677238Y-86347904D01*
X96169238Y-86081809D02*
X96169238Y-86493047D01*
X96145047Y-86541428D01*
X96120857Y-86565619D01*
X96072476Y-86589809D01*
X95975714Y-86589809D01*
X95927333Y-86565619D01*
X95903142Y-86541428D01*
X95878952Y-86493047D01*
X95878952Y-86081809D01*
X95637047Y-86589809D02*
X95637047Y-86081809D01*
X95346761Y-86589809D01*
X95346761Y-86081809D01*
X107768571Y-86589809D02*
X108010476Y-86589809D01*
X108010476Y-86081809D01*
X107502476Y-86081809D02*
X107405714Y-86081809D01*
X107357333Y-86106000D01*
X107308952Y-86154380D01*
X107284761Y-86251142D01*
X107284761Y-86420476D01*
X107308952Y-86517238D01*
X107357333Y-86565619D01*
X107405714Y-86589809D01*
X107502476Y-86589809D01*
X107550857Y-86565619D01*
X107599238Y-86517238D01*
X107623428Y-86420476D01*
X107623428Y-86251142D01*
X107599238Y-86154380D01*
X107550857Y-86106000D01*
X107502476Y-86081809D01*
X107091238Y-86444666D02*
X106849333Y-86444666D01*
X107139619Y-86589809D02*
X106970285Y-86081809D01*
X106800952Y-86589809D01*
X106631619Y-86589809D02*
X106631619Y-86081809D01*
X106510666Y-86081809D01*
X106438095Y-86106000D01*
X106389714Y-86154380D01*
X106365523Y-86202761D01*
X106341333Y-86299523D01*
X106341333Y-86372095D01*
X106365523Y-86468857D01*
X106389714Y-86517238D01*
X106438095Y-86565619D01*
X106510666Y-86589809D01*
X106631619Y-86589809D01*
D11*
%TO.C,JP1*%
X94872000Y-74630000D02*
G75*
G03*
X94172000Y-73930000I-700000J0D01*
G01*
X94172000Y-75930000D02*
G75*
G03*
X94872000Y-75230000I0J700000D01*
G01*
X92072000Y-75230000D02*
G75*
G03*
X92772000Y-75930000I700000J0D01*
G01*
X92772000Y-73930000D02*
G75*
G03*
X92072000Y-74630000I0J-700000D01*
G01*
X94872000Y-75230000D02*
X94872000Y-74630000D01*
X92772000Y-75930000D02*
X94172000Y-75930000D01*
X92072000Y-74630000D02*
X92072000Y-75230000D01*
X94172000Y-73930000D02*
X92772000Y-73930000D01*
%TO.C,JP2*%
X92772000Y-78470000D02*
X94172000Y-78470000D01*
X94872000Y-77770000D02*
X94872000Y-77170000D01*
X94172000Y-76470000D02*
X92772000Y-76470000D01*
X92072000Y-77170000D02*
X92072000Y-77770000D01*
X94172000Y-78470000D02*
G75*
G03*
X94872000Y-77770000I0J700000D01*
G01*
X94872000Y-77170000D02*
G75*
G03*
X94172000Y-76470000I-700000J0D01*
G01*
X92772000Y-76470000D02*
G75*
G03*
X92072000Y-77170000I0J-700000D01*
G01*
X92072000Y-77770000D02*
G75*
G03*
X92772000Y-78470000I700000J0D01*
G01*
%TO.C,SW3*%
X98150000Y-85302000D02*
X98150000Y-84512000D01*
X105050000Y-84512000D02*
X105050000Y-85302000D01*
X103200000Y-83462000D02*
X101500000Y-83462000D01*
X104450000Y-86312000D02*
X98750000Y-86312000D01*
X101700000Y-87602000D02*
X101700000Y-86312000D01*
X102800000Y-87812000D02*
X101900000Y-87812000D01*
X103000000Y-86312000D02*
X103000000Y-87602000D01*
X101700000Y-87602000D02*
X101900000Y-87812000D01*
X103000000Y-87602000D02*
X102800000Y-87812000D01*
X100200000Y-83462000D02*
X100000000Y-83462000D01*
%TO.C,JP1*%
D12*
X94305333Y-72582380D02*
X94305333Y-73296666D01*
X94352952Y-73439523D01*
X94448190Y-73534761D01*
X94591047Y-73582380D01*
X94686285Y-73582380D01*
X93829142Y-73582380D02*
X93829142Y-72582380D01*
X93448190Y-72582380D01*
X93352952Y-72630000D01*
X93305333Y-72677619D01*
X93257714Y-72772857D01*
X93257714Y-72915714D01*
X93305333Y-73010952D01*
X93352952Y-73058571D01*
X93448190Y-73106190D01*
X93829142Y-73106190D01*
X92305333Y-73582380D02*
X92876761Y-73582380D01*
X92591047Y-73582380D02*
X92591047Y-72582380D01*
X92686285Y-72725238D01*
X92781523Y-72820476D01*
X92876761Y-72868095D01*
%TO.C,JP2*%
X94305333Y-78722380D02*
X94305333Y-79436666D01*
X94352952Y-79579523D01*
X94448190Y-79674761D01*
X94591047Y-79722380D01*
X94686285Y-79722380D01*
X93829142Y-79722380D02*
X93829142Y-78722380D01*
X93448190Y-78722380D01*
X93352952Y-78770000D01*
X93305333Y-78817619D01*
X93257714Y-78912857D01*
X93257714Y-79055714D01*
X93305333Y-79150952D01*
X93352952Y-79198571D01*
X93448190Y-79246190D01*
X93829142Y-79246190D01*
X92876761Y-78817619D02*
X92829142Y-78770000D01*
X92733904Y-78722380D01*
X92495809Y-78722380D01*
X92400571Y-78770000D01*
X92352952Y-78817619D01*
X92305333Y-78912857D01*
X92305333Y-79008095D01*
X92352952Y-79150952D01*
X92924380Y-79722380D01*
X92305333Y-79722380D01*
%TO.C,SW3*%
X102933333Y-81786761D02*
X102790476Y-81834380D01*
X102552380Y-81834380D01*
X102457142Y-81786761D01*
X102409523Y-81739142D01*
X102361904Y-81643904D01*
X102361904Y-81548666D01*
X102409523Y-81453428D01*
X102457142Y-81405809D01*
X102552380Y-81358190D01*
X102742857Y-81310571D01*
X102838095Y-81262952D01*
X102885714Y-81215333D01*
X102933333Y-81120095D01*
X102933333Y-81024857D01*
X102885714Y-80929619D01*
X102838095Y-80882000D01*
X102742857Y-80834380D01*
X102504761Y-80834380D01*
X102361904Y-80882000D01*
X102028571Y-80834380D02*
X101790476Y-81834380D01*
X101600000Y-81120095D01*
X101409523Y-81834380D01*
X101171428Y-80834380D01*
X100885714Y-80834380D02*
X100266666Y-80834380D01*
X100600000Y-81215333D01*
X100457142Y-81215333D01*
X100361904Y-81262952D01*
X100314285Y-81310571D01*
X100266666Y-81405809D01*
X100266666Y-81643904D01*
X100314285Y-81739142D01*
X100361904Y-81786761D01*
X100457142Y-81834380D01*
X100742857Y-81834380D01*
X100838095Y-81786761D01*
X100885714Y-81739142D01*
%TD*%
M02*
