%TF.GenerationSoftware,KiCad,Pcbnew,(5.1.7)-1*%
%TF.CreationDate,2020-10-27T00:37:30-04:00*%
%TF.ProjectId,esp8285bee,65737038-3238-4356-9265-652e6b696361,rev?*%
%TF.SameCoordinates,Original*%
%TF.FileFunction,Paste,Top*%
%TF.FilePolarity,Positive*%
%FSLAX46Y46*%
G04 Gerber Fmt 4.6, Leading zero omitted, Abs format (unit mm)*
G04 Created by KiCad (PCBNEW (5.1.7)-1) date 2020-10-27 00:37:30*
%MOMM*%
%LPD*%
G01*
G04 APERTURE LIST*
%ADD10R,0.800000X0.800000*%
%ADD11R,0.900000X0.500000*%
%ADD12R,0.400000X0.600000*%
%ADD13R,1.000000X1.700000*%
%ADD14R,0.250000X0.700000*%
%ADD15R,0.700000X0.250000*%
%ADD16R,1.035000X1.035000*%
%ADD17R,1.200000X1.400000*%
G04 APERTURE END LIST*
%TO.C,C1*%
G36*
G01*
X110994000Y-70821000D02*
X110494000Y-70821000D01*
G75*
G02*
X110269000Y-70596000I0J225000D01*
G01*
X110269000Y-70146000D01*
G75*
G02*
X110494000Y-69921000I225000J0D01*
G01*
X110994000Y-69921000D01*
G75*
G02*
X111219000Y-70146000I0J-225000D01*
G01*
X111219000Y-70596000D01*
G75*
G02*
X110994000Y-70821000I-225000J0D01*
G01*
G37*
G36*
G01*
X110994000Y-69271000D02*
X110494000Y-69271000D01*
G75*
G02*
X110269000Y-69046000I0J225000D01*
G01*
X110269000Y-68596000D01*
G75*
G02*
X110494000Y-68371000I225000J0D01*
G01*
X110994000Y-68371000D01*
G75*
G02*
X111219000Y-68596000I0J-225000D01*
G01*
X111219000Y-69046000D01*
G75*
G02*
X110994000Y-69271000I-225000J0D01*
G01*
G37*
%TD*%
%TO.C,C2*%
G36*
G01*
X99243000Y-72140000D02*
X99243000Y-72640000D01*
G75*
G02*
X99018000Y-72865000I-225000J0D01*
G01*
X98568000Y-72865000D01*
G75*
G02*
X98343000Y-72640000I0J225000D01*
G01*
X98343000Y-72140000D01*
G75*
G02*
X98568000Y-71915000I225000J0D01*
G01*
X99018000Y-71915000D01*
G75*
G02*
X99243000Y-72140000I0J-225000D01*
G01*
G37*
G36*
G01*
X100793000Y-72140000D02*
X100793000Y-72640000D01*
G75*
G02*
X100568000Y-72865000I-225000J0D01*
G01*
X100118000Y-72865000D01*
G75*
G02*
X99893000Y-72640000I0J225000D01*
G01*
X99893000Y-72140000D01*
G75*
G02*
X100118000Y-71915000I225000J0D01*
G01*
X100568000Y-71915000D01*
G75*
G02*
X100793000Y-72140000I0J-225000D01*
G01*
G37*
%TD*%
%TO.C,C3*%
G36*
G01*
X99243000Y-68584000D02*
X99243000Y-69084000D01*
G75*
G02*
X99018000Y-69309000I-225000J0D01*
G01*
X98568000Y-69309000D01*
G75*
G02*
X98343000Y-69084000I0J225000D01*
G01*
X98343000Y-68584000D01*
G75*
G02*
X98568000Y-68359000I225000J0D01*
G01*
X99018000Y-68359000D01*
G75*
G02*
X99243000Y-68584000I0J-225000D01*
G01*
G37*
G36*
G01*
X100793000Y-68584000D02*
X100793000Y-69084000D01*
G75*
G02*
X100568000Y-69309000I-225000J0D01*
G01*
X100118000Y-69309000D01*
G75*
G02*
X99893000Y-69084000I0J225000D01*
G01*
X99893000Y-68584000D01*
G75*
G02*
X100118000Y-68359000I225000J0D01*
G01*
X100568000Y-68359000D01*
G75*
G02*
X100793000Y-68584000I0J-225000D01*
G01*
G37*
%TD*%
%TO.C,C4*%
G36*
G01*
X100793000Y-70362000D02*
X100793000Y-70862000D01*
G75*
G02*
X100568000Y-71087000I-225000J0D01*
G01*
X100118000Y-71087000D01*
G75*
G02*
X99893000Y-70862000I0J225000D01*
G01*
X99893000Y-70362000D01*
G75*
G02*
X100118000Y-70137000I225000J0D01*
G01*
X100568000Y-70137000D01*
G75*
G02*
X100793000Y-70362000I0J-225000D01*
G01*
G37*
G36*
G01*
X99243000Y-70362000D02*
X99243000Y-70862000D01*
G75*
G02*
X99018000Y-71087000I-225000J0D01*
G01*
X98568000Y-71087000D01*
G75*
G02*
X98343000Y-70862000I0J225000D01*
G01*
X98343000Y-70362000D01*
G75*
G02*
X98568000Y-70137000I225000J0D01*
G01*
X99018000Y-70137000D01*
G75*
G02*
X99243000Y-70362000I0J-225000D01*
G01*
G37*
%TD*%
%TO.C,C5*%
G36*
G01*
X104390000Y-70821000D02*
X103890000Y-70821000D01*
G75*
G02*
X103665000Y-70596000I0J225000D01*
G01*
X103665000Y-70146000D01*
G75*
G02*
X103890000Y-69921000I225000J0D01*
G01*
X104390000Y-69921000D01*
G75*
G02*
X104615000Y-70146000I0J-225000D01*
G01*
X104615000Y-70596000D01*
G75*
G02*
X104390000Y-70821000I-225000J0D01*
G01*
G37*
G36*
G01*
X104390000Y-69271000D02*
X103890000Y-69271000D01*
G75*
G02*
X103665000Y-69046000I0J225000D01*
G01*
X103665000Y-68596000D01*
G75*
G02*
X103890000Y-68371000I225000J0D01*
G01*
X104390000Y-68371000D01*
G75*
G02*
X104615000Y-68596000I0J-225000D01*
G01*
X104615000Y-69046000D01*
G75*
G02*
X104390000Y-69271000I-225000J0D01*
G01*
G37*
%TD*%
%TO.C,C8*%
G36*
G01*
X106342000Y-70356000D02*
X106002000Y-70356000D01*
G75*
G02*
X105862000Y-70216000I0J140000D01*
G01*
X105862000Y-69936000D01*
G75*
G02*
X106002000Y-69796000I140000J0D01*
G01*
X106342000Y-69796000D01*
G75*
G02*
X106482000Y-69936000I0J-140000D01*
G01*
X106482000Y-70216000D01*
G75*
G02*
X106342000Y-70356000I-140000J0D01*
G01*
G37*
G36*
G01*
X106342000Y-69396000D02*
X106002000Y-69396000D01*
G75*
G02*
X105862000Y-69256000I0J140000D01*
G01*
X105862000Y-68976000D01*
G75*
G02*
X106002000Y-68836000I140000J0D01*
G01*
X106342000Y-68836000D01*
G75*
G02*
X106482000Y-68976000I0J-140000D01*
G01*
X106482000Y-69256000D01*
G75*
G02*
X106342000Y-69396000I-140000J0D01*
G01*
G37*
%TD*%
D10*
%TO.C,D1*%
X102400000Y-83058000D03*
X100800000Y-83058000D03*
%TD*%
D11*
%TO.C,L1*%
X102362000Y-70346000D03*
X102362000Y-68846000D03*
%TD*%
D12*
%TO.C,L2*%
X107892000Y-70358000D03*
X106992000Y-70358000D03*
%TD*%
%TO.C,L3*%
X106992000Y-68834000D03*
X107892000Y-68834000D03*
%TD*%
%TO.C,R1*%
G36*
G01*
X95841000Y-76687000D02*
X95841000Y-77237000D01*
G75*
G02*
X95641000Y-77437000I-200000J0D01*
G01*
X95241000Y-77437000D01*
G75*
G02*
X95041000Y-77237000I0J200000D01*
G01*
X95041000Y-76687000D01*
G75*
G02*
X95241000Y-76487000I200000J0D01*
G01*
X95641000Y-76487000D01*
G75*
G02*
X95841000Y-76687000I0J-200000D01*
G01*
G37*
G36*
G01*
X97491000Y-76687000D02*
X97491000Y-77237000D01*
G75*
G02*
X97291000Y-77437000I-200000J0D01*
G01*
X96891000Y-77437000D01*
G75*
G02*
X96691000Y-77237000I0J200000D01*
G01*
X96691000Y-76687000D01*
G75*
G02*
X96891000Y-76487000I200000J0D01*
G01*
X97291000Y-76487000D01*
G75*
G02*
X97491000Y-76687000I0J-200000D01*
G01*
G37*
%TD*%
%TO.C,R2*%
G36*
G01*
X109495000Y-70821000D02*
X108945000Y-70821000D01*
G75*
G02*
X108745000Y-70621000I0J200000D01*
G01*
X108745000Y-70221000D01*
G75*
G02*
X108945000Y-70021000I200000J0D01*
G01*
X109495000Y-70021000D01*
G75*
G02*
X109695000Y-70221000I0J-200000D01*
G01*
X109695000Y-70621000D01*
G75*
G02*
X109495000Y-70821000I-200000J0D01*
G01*
G37*
G36*
G01*
X109495000Y-69171000D02*
X108945000Y-69171000D01*
G75*
G02*
X108745000Y-68971000I0J200000D01*
G01*
X108745000Y-68571000D01*
G75*
G02*
X108945000Y-68371000I200000J0D01*
G01*
X109495000Y-68371000D01*
G75*
G02*
X109695000Y-68571000I0J-200000D01*
G01*
X109695000Y-68971000D01*
G75*
G02*
X109495000Y-69171000I-200000J0D01*
G01*
G37*
%TD*%
%TO.C,R3*%
G36*
G01*
X104119000Y-78277000D02*
X104669000Y-78277000D01*
G75*
G02*
X104869000Y-78477000I0J-200000D01*
G01*
X104869000Y-78877000D01*
G75*
G02*
X104669000Y-79077000I-200000J0D01*
G01*
X104119000Y-79077000D01*
G75*
G02*
X103919000Y-78877000I0J200000D01*
G01*
X103919000Y-78477000D01*
G75*
G02*
X104119000Y-78277000I200000J0D01*
G01*
G37*
G36*
G01*
X104119000Y-79927000D02*
X104669000Y-79927000D01*
G75*
G02*
X104869000Y-80127000I0J-200000D01*
G01*
X104869000Y-80527000D01*
G75*
G02*
X104669000Y-80727000I-200000J0D01*
G01*
X104119000Y-80727000D01*
G75*
G02*
X103919000Y-80527000I0J200000D01*
G01*
X103919000Y-80127000D01*
G75*
G02*
X104119000Y-79927000I200000J0D01*
G01*
G37*
%TD*%
%TO.C,R4*%
G36*
G01*
X99993000Y-74443000D02*
X99993000Y-73893000D01*
G75*
G02*
X100193000Y-73693000I200000J0D01*
G01*
X100593000Y-73693000D01*
G75*
G02*
X100793000Y-73893000I0J-200000D01*
G01*
X100793000Y-74443000D01*
G75*
G02*
X100593000Y-74643000I-200000J0D01*
G01*
X100193000Y-74643000D01*
G75*
G02*
X99993000Y-74443000I0J200000D01*
G01*
G37*
G36*
G01*
X98343000Y-74443000D02*
X98343000Y-73893000D01*
G75*
G02*
X98543000Y-73693000I200000J0D01*
G01*
X98943000Y-73693000D01*
G75*
G02*
X99143000Y-73893000I0J-200000D01*
G01*
X99143000Y-74443000D01*
G75*
G02*
X98943000Y-74643000I-200000J0D01*
G01*
X98543000Y-74643000D01*
G75*
G02*
X98343000Y-74443000I0J200000D01*
G01*
G37*
%TD*%
%TO.C,R6*%
G36*
G01*
X102025000Y-81809000D02*
X102025000Y-81259000D01*
G75*
G02*
X102225000Y-81059000I200000J0D01*
G01*
X102625000Y-81059000D01*
G75*
G02*
X102825000Y-81259000I0J-200000D01*
G01*
X102825000Y-81809000D01*
G75*
G02*
X102625000Y-82009000I-200000J0D01*
G01*
X102225000Y-82009000D01*
G75*
G02*
X102025000Y-81809000I0J200000D01*
G01*
G37*
G36*
G01*
X100375000Y-81809000D02*
X100375000Y-81259000D01*
G75*
G02*
X100575000Y-81059000I200000J0D01*
G01*
X100975000Y-81059000D01*
G75*
G02*
X101175000Y-81259000I0J-200000D01*
G01*
X101175000Y-81809000D01*
G75*
G02*
X100975000Y-82009000I-200000J0D01*
G01*
X100575000Y-82009000D01*
G75*
G02*
X100375000Y-81809000I0J200000D01*
G01*
G37*
%TD*%
%TO.C,R7*%
G36*
G01*
X100793000Y-75671000D02*
X100793000Y-76221000D01*
G75*
G02*
X100593000Y-76421000I-200000J0D01*
G01*
X100193000Y-76421000D01*
G75*
G02*
X99993000Y-76221000I0J200000D01*
G01*
X99993000Y-75671000D01*
G75*
G02*
X100193000Y-75471000I200000J0D01*
G01*
X100593000Y-75471000D01*
G75*
G02*
X100793000Y-75671000I0J-200000D01*
G01*
G37*
G36*
G01*
X99143000Y-75671000D02*
X99143000Y-76221000D01*
G75*
G02*
X98943000Y-76421000I-200000J0D01*
G01*
X98543000Y-76421000D01*
G75*
G02*
X98343000Y-76221000I0J200000D01*
G01*
X98343000Y-75671000D01*
G75*
G02*
X98543000Y-75471000I200000J0D01*
G01*
X98943000Y-75471000D01*
G75*
G02*
X99143000Y-75671000I0J-200000D01*
G01*
G37*
%TD*%
D13*
%TO.C,SW1*%
X92842000Y-85446000D03*
X92842000Y-79146000D03*
X96642000Y-85446000D03*
X96642000Y-79146000D03*
%TD*%
%TO.C,SW2*%
X110358000Y-79146000D03*
X110358000Y-85446000D03*
X106558000Y-79146000D03*
X106558000Y-85446000D03*
%TD*%
D14*
%TO.C,U1*%
X106652000Y-71768000D03*
X106152000Y-71768000D03*
X105652000Y-71768000D03*
X105152000Y-71768000D03*
X104652000Y-71768000D03*
X104152000Y-71768000D03*
X103652000Y-71768000D03*
X103152000Y-71768000D03*
D15*
X102502000Y-72418000D03*
X102502000Y-72918000D03*
X102502000Y-73418000D03*
X102502000Y-73918000D03*
X102502000Y-74418000D03*
X102502000Y-74918000D03*
X102502000Y-75418000D03*
X102502000Y-75918000D03*
D14*
X103152000Y-76568000D03*
X103652000Y-76568000D03*
X104152000Y-76568000D03*
X104652000Y-76568000D03*
X105152000Y-76568000D03*
X105652000Y-76568000D03*
X106152000Y-76568000D03*
X106652000Y-76568000D03*
D15*
X107302000Y-75918000D03*
X107302000Y-75418000D03*
X107302000Y-74918000D03*
X107302000Y-74418000D03*
X107302000Y-73918000D03*
X107302000Y-73418000D03*
X107302000Y-72918000D03*
X107302000Y-72418000D03*
D16*
X104039500Y-75030500D03*
X105764500Y-75030500D03*
X104039500Y-73305500D03*
X105764500Y-73305500D03*
%TD*%
D17*
%TO.C,Y1*%
X109132000Y-73576000D03*
X109132000Y-75776000D03*
X110832000Y-75776000D03*
X110832000Y-73576000D03*
%TD*%
%TO.C,C6*%
G36*
G01*
X109730000Y-72052000D02*
X109730000Y-71712000D01*
G75*
G02*
X109870000Y-71572000I140000J0D01*
G01*
X110150000Y-71572000D01*
G75*
G02*
X110290000Y-71712000I0J-140000D01*
G01*
X110290000Y-72052000D01*
G75*
G02*
X110150000Y-72192000I-140000J0D01*
G01*
X109870000Y-72192000D01*
G75*
G02*
X109730000Y-72052000I0J140000D01*
G01*
G37*
G36*
G01*
X110690000Y-72052000D02*
X110690000Y-71712000D01*
G75*
G02*
X110830000Y-71572000I140000J0D01*
G01*
X111110000Y-71572000D01*
G75*
G02*
X111250000Y-71712000I0J-140000D01*
G01*
X111250000Y-72052000D01*
G75*
G02*
X111110000Y-72192000I-140000J0D01*
G01*
X110830000Y-72192000D01*
G75*
G02*
X110690000Y-72052000I0J140000D01*
G01*
G37*
%TD*%
%TO.C,C7*%
G36*
G01*
X110290000Y-77300000D02*
X110290000Y-77640000D01*
G75*
G02*
X110150000Y-77780000I-140000J0D01*
G01*
X109870000Y-77780000D01*
G75*
G02*
X109730000Y-77640000I0J140000D01*
G01*
X109730000Y-77300000D01*
G75*
G02*
X109870000Y-77160000I140000J0D01*
G01*
X110150000Y-77160000D01*
G75*
G02*
X110290000Y-77300000I0J-140000D01*
G01*
G37*
G36*
G01*
X111250000Y-77300000D02*
X111250000Y-77640000D01*
G75*
G02*
X111110000Y-77780000I-140000J0D01*
G01*
X110830000Y-77780000D01*
G75*
G02*
X110690000Y-77640000I0J140000D01*
G01*
X110690000Y-77300000D01*
G75*
G02*
X110830000Y-77160000I140000J0D01*
G01*
X111110000Y-77160000D01*
G75*
G02*
X111250000Y-77300000I0J-140000D01*
G01*
G37*
%TD*%
M02*
