M48
INCH,TZ
T1C0.0118
T2C0.0276
T3C0.0354
T4C0.0454
%
G90
G05
T1
X36200Y-27600
X36500Y-27700
X37300Y-28000
X37600Y-30000
X38200Y-27800
X38200Y-28500
X38500Y-27100
X38500Y-27800
X38510Y-28556
X38900Y-31100
X39100Y-32100
X39500Y-30500
X39505Y-27495
X39859Y-28078
X40000Y-28700
X40600Y-30500
X40700Y-27400
X40960Y-28860
X40960Y-29540
X41400Y-27100
X41640Y-28860
X41640Y-29540
X41800Y-30600
X42235Y-30200
X42300Y-28337
X42486Y-27393
X42500Y-30400
X42532Y-29000
X43000Y-30400
X43200Y-26600
X43500Y-28000
X43600Y-26600
X43962Y-26861
X43974Y-28425
X42627Y-26600
T2
X35669Y-26457
X35669Y-27244
X35669Y-28031
X35669Y-28819
X35669Y-29606
X35669Y-30394
X35669Y-31181
X35669Y-31969
X35669Y-32756
X35669Y-33543
X44331Y-26457
X44331Y-27244
X44331Y-28031
X44331Y-28819
X44331Y-29606
X44331Y-30394
X44331Y-31181
X44331Y-31969
X44331Y-32756
X44331Y-33543
T3
X39409Y-33430
X40591Y-33430
T4
X36500Y-25800
X40000Y-33700
X43500Y-25800
T0
M30
