%TF.GenerationSoftware,KiCad,Pcbnew,(5.1.7)-1*%
%TF.CreationDate,2020-10-27T00:37:30-04:00*%
%TF.ProjectId,esp8285bee,65737038-3238-4356-9265-652e6b696361,rev?*%
%TF.SameCoordinates,Original*%
%TF.FileFunction,Copper,L1,Top*%
%TF.FilePolarity,Positive*%
%FSLAX46Y46*%
G04 Gerber Fmt 4.6, Leading zero omitted, Abs format (unit mm)*
G04 Created by KiCad (PCBNEW (5.1.7)-1) date 2020-10-27 00:37:30*
%MOMM*%
%LPD*%
G01*
G04 APERTURE LIST*
%TA.AperFunction,EtchedComponent*%
%ADD10C,0.100000*%
%TD*%
%TA.AperFunction,SMDPad,CuDef*%
%ADD11R,0.800000X0.800000*%
%TD*%
%TA.AperFunction,SMDPad,CuDef*%
%ADD12C,0.100000*%
%TD*%
%TA.AperFunction,SMDPad,CuDef*%
%ADD13R,0.900000X0.500000*%
%TD*%
%TA.AperFunction,SMDPad,CuDef*%
%ADD14R,0.400000X0.600000*%
%TD*%
%TA.AperFunction,ComponentPad*%
%ADD15C,1.700000*%
%TD*%
%TA.AperFunction,SMDPad,CuDef*%
%ADD16R,1.000000X1.700000*%
%TD*%
%TA.AperFunction,SMDPad,CuDef*%
%ADD17R,0.250000X0.700000*%
%TD*%
%TA.AperFunction,SMDPad,CuDef*%
%ADD18R,0.700000X0.250000*%
%TD*%
%TA.AperFunction,SMDPad,CuDef*%
%ADD19R,1.725000X1.725000*%
%TD*%
%TA.AperFunction,SMDPad,CuDef*%
%ADD20R,1.200000X1.400000*%
%TD*%
%TA.AperFunction,ComponentPad*%
%ADD21R,0.900000X0.500000*%
%TD*%
%TA.AperFunction,ConnectorPad*%
%ADD22R,0.500000X0.500000*%
%TD*%
%TA.AperFunction,ViaPad*%
%ADD23C,0.600000*%
%TD*%
%TA.AperFunction,Conductor*%
%ADD24C,0.203200*%
%TD*%
%TA.AperFunction,Conductor*%
%ADD25C,0.250000*%
%TD*%
%TA.AperFunction,Conductor*%
%ADD26C,0.152400*%
%TD*%
%TA.AperFunction,Conductor*%
%ADD27C,0.100000*%
%TD*%
G04 APERTURE END LIST*
D10*
%TO.C,JP3*%
G36*
X96516000Y-74630000D02*
G01*
X96016000Y-74630000D01*
X96016000Y-75230000D01*
X96516000Y-75230000D01*
X96516000Y-74630000D01*
G37*
%TO.C,AE1*%
G36*
X103722000Y-65054000D02*
G01*
X101722000Y-65054000D01*
X101722000Y-62414000D01*
X99022000Y-62414000D01*
X99022000Y-65054000D01*
X97022000Y-65054000D01*
X97022000Y-62414000D01*
X94322000Y-62414000D01*
X94322000Y-66854000D01*
X94822000Y-66854000D01*
X94822000Y-62914000D01*
X96522000Y-62914000D01*
X96522000Y-65554000D01*
X99522000Y-65554000D01*
X99522000Y-62914000D01*
X101222000Y-62914000D01*
X101222000Y-65554000D01*
X104222000Y-65554000D01*
X104222000Y-62914000D01*
X105922000Y-62914000D01*
X105922000Y-67814000D01*
X106422000Y-67814000D01*
X106422000Y-62914000D01*
X107822000Y-62914000D01*
X107822000Y-67814000D01*
X108722000Y-67814000D01*
X108722000Y-67570785D01*
X108419583Y-67570785D01*
X108409742Y-67618395D01*
X108385674Y-67660797D01*
X108347731Y-67693581D01*
X108339819Y-67697935D01*
X108297156Y-67710043D01*
X108248637Y-67709300D01*
X108203122Y-67696400D01*
X108184511Y-67685787D01*
X108150868Y-67650553D01*
X108130309Y-67605368D01*
X108123778Y-67555842D01*
X108132218Y-67507583D01*
X108149112Y-67475357D01*
X108184372Y-67442687D01*
X108229682Y-67422592D01*
X108279267Y-67416018D01*
X108327353Y-67423908D01*
X108360245Y-67440814D01*
X108395185Y-67477584D01*
X108414847Y-67522378D01*
X108419583Y-67570785D01*
X108722000Y-67570785D01*
X108722000Y-62414000D01*
X103722000Y-62414000D01*
X103722000Y-65054000D01*
G37*
%TD*%
%TO.P,C1,1*%
%TO.N,+3V3*%
%TA.AperFunction,SMDPad,CuDef*%
G36*
G01*
X110994000Y-70821000D02*
X110494000Y-70821000D01*
G75*
G02*
X110269000Y-70596000I0J225000D01*
G01*
X110269000Y-70146000D01*
G75*
G02*
X110494000Y-69921000I225000J0D01*
G01*
X110994000Y-69921000D01*
G75*
G02*
X111219000Y-70146000I0J-225000D01*
G01*
X111219000Y-70596000D01*
G75*
G02*
X110994000Y-70821000I-225000J0D01*
G01*
G37*
%TD.AperFunction*%
%TO.P,C1,2*%
%TO.N,GND*%
%TA.AperFunction,SMDPad,CuDef*%
G36*
G01*
X110994000Y-69271000D02*
X110494000Y-69271000D01*
G75*
G02*
X110269000Y-69046000I0J225000D01*
G01*
X110269000Y-68596000D01*
G75*
G02*
X110494000Y-68371000I225000J0D01*
G01*
X110994000Y-68371000D01*
G75*
G02*
X111219000Y-68596000I0J-225000D01*
G01*
X111219000Y-69046000D01*
G75*
G02*
X110994000Y-69271000I-225000J0D01*
G01*
G37*
%TD.AperFunction*%
%TD*%
%TO.P,C2,2*%
%TO.N,GND*%
%TA.AperFunction,SMDPad,CuDef*%
G36*
G01*
X99243000Y-72140000D02*
X99243000Y-72640000D01*
G75*
G02*
X99018000Y-72865000I-225000J0D01*
G01*
X98568000Y-72865000D01*
G75*
G02*
X98343000Y-72640000I0J225000D01*
G01*
X98343000Y-72140000D01*
G75*
G02*
X98568000Y-71915000I225000J0D01*
G01*
X99018000Y-71915000D01*
G75*
G02*
X99243000Y-72140000I0J-225000D01*
G01*
G37*
%TD.AperFunction*%
%TO.P,C2,1*%
%TO.N,+3V3*%
%TA.AperFunction,SMDPad,CuDef*%
G36*
G01*
X100793000Y-72140000D02*
X100793000Y-72640000D01*
G75*
G02*
X100568000Y-72865000I-225000J0D01*
G01*
X100118000Y-72865000D01*
G75*
G02*
X99893000Y-72640000I0J225000D01*
G01*
X99893000Y-72140000D01*
G75*
G02*
X100118000Y-71915000I225000J0D01*
G01*
X100568000Y-71915000D01*
G75*
G02*
X100793000Y-72140000I0J-225000D01*
G01*
G37*
%TD.AperFunction*%
%TD*%
%TO.P,C3,2*%
%TO.N,GND*%
%TA.AperFunction,SMDPad,CuDef*%
G36*
G01*
X99243000Y-68584000D02*
X99243000Y-69084000D01*
G75*
G02*
X99018000Y-69309000I-225000J0D01*
G01*
X98568000Y-69309000D01*
G75*
G02*
X98343000Y-69084000I0J225000D01*
G01*
X98343000Y-68584000D01*
G75*
G02*
X98568000Y-68359000I225000J0D01*
G01*
X99018000Y-68359000D01*
G75*
G02*
X99243000Y-68584000I0J-225000D01*
G01*
G37*
%TD.AperFunction*%
%TO.P,C3,1*%
%TO.N,+3V3*%
%TA.AperFunction,SMDPad,CuDef*%
G36*
G01*
X100793000Y-68584000D02*
X100793000Y-69084000D01*
G75*
G02*
X100568000Y-69309000I-225000J0D01*
G01*
X100118000Y-69309000D01*
G75*
G02*
X99893000Y-69084000I0J225000D01*
G01*
X99893000Y-68584000D01*
G75*
G02*
X100118000Y-68359000I225000J0D01*
G01*
X100568000Y-68359000D01*
G75*
G02*
X100793000Y-68584000I0J-225000D01*
G01*
G37*
%TD.AperFunction*%
%TD*%
%TO.P,C4,1*%
%TO.N,+3V3*%
%TA.AperFunction,SMDPad,CuDef*%
G36*
G01*
X100793000Y-70362000D02*
X100793000Y-70862000D01*
G75*
G02*
X100568000Y-71087000I-225000J0D01*
G01*
X100118000Y-71087000D01*
G75*
G02*
X99893000Y-70862000I0J225000D01*
G01*
X99893000Y-70362000D01*
G75*
G02*
X100118000Y-70137000I225000J0D01*
G01*
X100568000Y-70137000D01*
G75*
G02*
X100793000Y-70362000I0J-225000D01*
G01*
G37*
%TD.AperFunction*%
%TO.P,C4,2*%
%TO.N,GND*%
%TA.AperFunction,SMDPad,CuDef*%
G36*
G01*
X99243000Y-70362000D02*
X99243000Y-70862000D01*
G75*
G02*
X99018000Y-71087000I-225000J0D01*
G01*
X98568000Y-71087000D01*
G75*
G02*
X98343000Y-70862000I0J225000D01*
G01*
X98343000Y-70362000D01*
G75*
G02*
X98568000Y-70137000I225000J0D01*
G01*
X99018000Y-70137000D01*
G75*
G02*
X99243000Y-70362000I0J-225000D01*
G01*
G37*
%TD.AperFunction*%
%TD*%
%TO.P,C5,1*%
%TO.N,Net-(C5-Pad1)*%
%TA.AperFunction,SMDPad,CuDef*%
G36*
G01*
X104390000Y-70821000D02*
X103890000Y-70821000D01*
G75*
G02*
X103665000Y-70596000I0J225000D01*
G01*
X103665000Y-70146000D01*
G75*
G02*
X103890000Y-69921000I225000J0D01*
G01*
X104390000Y-69921000D01*
G75*
G02*
X104615000Y-70146000I0J-225000D01*
G01*
X104615000Y-70596000D01*
G75*
G02*
X104390000Y-70821000I-225000J0D01*
G01*
G37*
%TD.AperFunction*%
%TO.P,C5,2*%
%TO.N,GND*%
%TA.AperFunction,SMDPad,CuDef*%
G36*
G01*
X104390000Y-69271000D02*
X103890000Y-69271000D01*
G75*
G02*
X103665000Y-69046000I0J225000D01*
G01*
X103665000Y-68596000D01*
G75*
G02*
X103890000Y-68371000I225000J0D01*
G01*
X104390000Y-68371000D01*
G75*
G02*
X104615000Y-68596000I0J-225000D01*
G01*
X104615000Y-69046000D01*
G75*
G02*
X104390000Y-69271000I-225000J0D01*
G01*
G37*
%TD.AperFunction*%
%TD*%
%TO.P,C8,1*%
%TO.N,Net-(C8-Pad1)*%
%TA.AperFunction,SMDPad,CuDef*%
G36*
G01*
X106342000Y-70356000D02*
X106002000Y-70356000D01*
G75*
G02*
X105862000Y-70216000I0J140000D01*
G01*
X105862000Y-69936000D01*
G75*
G02*
X106002000Y-69796000I140000J0D01*
G01*
X106342000Y-69796000D01*
G75*
G02*
X106482000Y-69936000I0J-140000D01*
G01*
X106482000Y-70216000D01*
G75*
G02*
X106342000Y-70356000I-140000J0D01*
G01*
G37*
%TD.AperFunction*%
%TO.P,C8,2*%
%TO.N,Net-(AE1-Pad1)*%
%TA.AperFunction,SMDPad,CuDef*%
G36*
G01*
X106342000Y-69396000D02*
X106002000Y-69396000D01*
G75*
G02*
X105862000Y-69256000I0J140000D01*
G01*
X105862000Y-68976000D01*
G75*
G02*
X106002000Y-68836000I140000J0D01*
G01*
X106342000Y-68836000D01*
G75*
G02*
X106482000Y-68976000I0J-140000D01*
G01*
X106482000Y-69256000D01*
G75*
G02*
X106342000Y-69396000I-140000J0D01*
G01*
G37*
%TD.AperFunction*%
%TD*%
D11*
%TO.P,D1,2*%
%TO.N,Net-(D1-Pad2)*%
X102400000Y-83058000D03*
%TO.P,D1,1*%
%TO.N,GND*%
X100800000Y-83058000D03*
%TD*%
%TA.AperFunction,SMDPad,CuDef*%
D12*
%TO.P,JP3,2*%
%TO.N,Net-(JP3-Pad2)*%
G36*
X96916000Y-74180602D02*
G01*
X96940534Y-74180602D01*
X96989365Y-74185412D01*
X97037490Y-74194984D01*
X97084445Y-74209228D01*
X97129778Y-74228005D01*
X97173051Y-74251136D01*
X97213850Y-74278396D01*
X97251779Y-74309524D01*
X97286476Y-74344221D01*
X97317604Y-74382150D01*
X97344864Y-74422949D01*
X97367995Y-74466222D01*
X97386772Y-74511555D01*
X97401016Y-74558510D01*
X97410588Y-74606635D01*
X97415398Y-74655466D01*
X97415398Y-74680000D01*
X97416000Y-74680000D01*
X97416000Y-75180000D01*
X97415398Y-75180000D01*
X97415398Y-75204534D01*
X97410588Y-75253365D01*
X97401016Y-75301490D01*
X97386772Y-75348445D01*
X97367995Y-75393778D01*
X97344864Y-75437051D01*
X97317604Y-75477850D01*
X97286476Y-75515779D01*
X97251779Y-75550476D01*
X97213850Y-75581604D01*
X97173051Y-75608864D01*
X97129778Y-75631995D01*
X97084445Y-75650772D01*
X97037490Y-75665016D01*
X96989365Y-75674588D01*
X96940534Y-75679398D01*
X96916000Y-75679398D01*
X96916000Y-75680000D01*
X96416000Y-75680000D01*
X96416000Y-74180000D01*
X96916000Y-74180000D01*
X96916000Y-74180602D01*
G37*
%TD.AperFunction*%
%TA.AperFunction,SMDPad,CuDef*%
%TO.P,JP3,1*%
%TO.N,/RESET*%
G36*
X96116000Y-75680000D02*
G01*
X95616000Y-75680000D01*
X95616000Y-75679398D01*
X95591466Y-75679398D01*
X95542635Y-75674588D01*
X95494510Y-75665016D01*
X95447555Y-75650772D01*
X95402222Y-75631995D01*
X95358949Y-75608864D01*
X95318150Y-75581604D01*
X95280221Y-75550476D01*
X95245524Y-75515779D01*
X95214396Y-75477850D01*
X95187136Y-75437051D01*
X95164005Y-75393778D01*
X95145228Y-75348445D01*
X95130984Y-75301490D01*
X95121412Y-75253365D01*
X95116602Y-75204534D01*
X95116602Y-75180000D01*
X95116000Y-75180000D01*
X95116000Y-74680000D01*
X95116602Y-74680000D01*
X95116602Y-74655466D01*
X95121412Y-74606635D01*
X95130984Y-74558510D01*
X95145228Y-74511555D01*
X95164005Y-74466222D01*
X95187136Y-74422949D01*
X95214396Y-74382150D01*
X95245524Y-74344221D01*
X95280221Y-74309524D01*
X95318150Y-74278396D01*
X95358949Y-74251136D01*
X95402222Y-74228005D01*
X95447555Y-74209228D01*
X95494510Y-74194984D01*
X95542635Y-74185412D01*
X95591466Y-74180602D01*
X95616000Y-74180602D01*
X95616000Y-74180000D01*
X96116000Y-74180000D01*
X96116000Y-75680000D01*
G37*
%TD.AperFunction*%
%TD*%
D13*
%TO.P,L1,1*%
%TO.N,Net-(C5-Pad1)*%
X102362000Y-70346000D03*
%TO.P,L1,2*%
%TO.N,+3V3*%
X102362000Y-68846000D03*
%TD*%
D14*
%TO.P,L2,2*%
%TO.N,GND*%
X107892000Y-70358000D03*
%TO.P,L2,1*%
%TO.N,Net-(C8-Pad1)*%
X106992000Y-70358000D03*
%TD*%
%TO.P,L3,1*%
%TO.N,Net-(AE1-Pad1)*%
X106992000Y-68834000D03*
%TO.P,L3,2*%
%TO.N,GND*%
X107892000Y-68834000D03*
%TD*%
D15*
%TO.P,MOD1,1*%
%TO.N,+3V3*%
X90600000Y-67200000D03*
%TO.P,MOD1,2*%
%TO.N,/TX*%
X90600000Y-69200000D03*
%TO.P,MOD1,3*%
%TO.N,/RX*%
X90600000Y-71200000D03*
%TO.P,MOD1,4*%
%TO.N,N/C*%
X90600000Y-73200000D03*
%TO.P,MOD1,5*%
%TO.N,Net-(JP1-Pad2)*%
X90600000Y-75200000D03*
%TO.P,MOD1,6*%
%TO.N,Net-(JP2-Pad1)*%
X90600000Y-77200000D03*
%TO.P,MOD1,7*%
%TO.N,N/C*%
X90600000Y-79200000D03*
%TO.P,MOD1,8*%
X90600000Y-81200000D03*
%TO.P,MOD1,9*%
X90600000Y-83200000D03*
%TO.P,MOD1,10*%
%TO.N,GND*%
X90600000Y-85200000D03*
%TO.P,MOD1,11*%
%TO.N,N/C*%
X112600000Y-85200000D03*
%TO.P,MOD1,12*%
X112600000Y-83200000D03*
%TO.P,MOD1,13*%
X112600000Y-81200000D03*
%TO.P,MOD1,14*%
X112600000Y-79200000D03*
%TO.P,MOD1,15*%
X112600000Y-77200000D03*
%TO.P,MOD1,16*%
X112600000Y-75200000D03*
%TO.P,MOD1,17*%
X112600000Y-73200000D03*
%TO.P,MOD1,18*%
X112600000Y-71200000D03*
%TO.P,MOD1,19*%
X112600000Y-69200000D03*
%TO.P,MOD1,20*%
X112600000Y-67200000D03*
%TD*%
%TO.P,R1,2*%
%TO.N,/RESET*%
%TA.AperFunction,SMDPad,CuDef*%
G36*
G01*
X95841000Y-76687000D02*
X95841000Y-77237000D01*
G75*
G02*
X95641000Y-77437000I-200000J0D01*
G01*
X95241000Y-77437000D01*
G75*
G02*
X95041000Y-77237000I0J200000D01*
G01*
X95041000Y-76687000D01*
G75*
G02*
X95241000Y-76487000I200000J0D01*
G01*
X95641000Y-76487000D01*
G75*
G02*
X95841000Y-76687000I0J-200000D01*
G01*
G37*
%TD.AperFunction*%
%TO.P,R1,1*%
%TO.N,+3V3*%
%TA.AperFunction,SMDPad,CuDef*%
G36*
G01*
X97491000Y-76687000D02*
X97491000Y-77237000D01*
G75*
G02*
X97291000Y-77437000I-200000J0D01*
G01*
X96891000Y-77437000D01*
G75*
G02*
X96691000Y-77237000I0J200000D01*
G01*
X96691000Y-76687000D01*
G75*
G02*
X96891000Y-76487000I200000J0D01*
G01*
X97291000Y-76487000D01*
G75*
G02*
X97491000Y-76687000I0J-200000D01*
G01*
G37*
%TD.AperFunction*%
%TD*%
%TO.P,R2,1*%
%TO.N,Net-(R2-Pad1)*%
%TA.AperFunction,SMDPad,CuDef*%
G36*
G01*
X109495000Y-70821000D02*
X108945000Y-70821000D01*
G75*
G02*
X108745000Y-70621000I0J200000D01*
G01*
X108745000Y-70221000D01*
G75*
G02*
X108945000Y-70021000I200000J0D01*
G01*
X109495000Y-70021000D01*
G75*
G02*
X109695000Y-70221000I0J-200000D01*
G01*
X109695000Y-70621000D01*
G75*
G02*
X109495000Y-70821000I-200000J0D01*
G01*
G37*
%TD.AperFunction*%
%TO.P,R2,2*%
%TO.N,GND*%
%TA.AperFunction,SMDPad,CuDef*%
G36*
G01*
X109495000Y-69171000D02*
X108945000Y-69171000D01*
G75*
G02*
X108745000Y-68971000I0J200000D01*
G01*
X108745000Y-68571000D01*
G75*
G02*
X108945000Y-68371000I200000J0D01*
G01*
X109495000Y-68371000D01*
G75*
G02*
X109695000Y-68571000I0J-200000D01*
G01*
X109695000Y-68971000D01*
G75*
G02*
X109495000Y-69171000I-200000J0D01*
G01*
G37*
%TD.AperFunction*%
%TD*%
%TO.P,R3,1*%
%TO.N,+3V3*%
%TA.AperFunction,SMDPad,CuDef*%
G36*
G01*
X104119000Y-78277000D02*
X104669000Y-78277000D01*
G75*
G02*
X104869000Y-78477000I0J-200000D01*
G01*
X104869000Y-78877000D01*
G75*
G02*
X104669000Y-79077000I-200000J0D01*
G01*
X104119000Y-79077000D01*
G75*
G02*
X103919000Y-78877000I0J200000D01*
G01*
X103919000Y-78477000D01*
G75*
G02*
X104119000Y-78277000I200000J0D01*
G01*
G37*
%TD.AperFunction*%
%TO.P,R3,2*%
%TO.N,Net-(R3-Pad2)*%
%TA.AperFunction,SMDPad,CuDef*%
G36*
G01*
X104119000Y-79927000D02*
X104669000Y-79927000D01*
G75*
G02*
X104869000Y-80127000I0J-200000D01*
G01*
X104869000Y-80527000D01*
G75*
G02*
X104669000Y-80727000I-200000J0D01*
G01*
X104119000Y-80727000D01*
G75*
G02*
X103919000Y-80527000I0J200000D01*
G01*
X103919000Y-80127000D01*
G75*
G02*
X104119000Y-79927000I200000J0D01*
G01*
G37*
%TD.AperFunction*%
%TD*%
%TO.P,R4,2*%
%TO.N,Net-(R4-Pad2)*%
%TA.AperFunction,SMDPad,CuDef*%
G36*
G01*
X99993000Y-74443000D02*
X99993000Y-73893000D01*
G75*
G02*
X100193000Y-73693000I200000J0D01*
G01*
X100593000Y-73693000D01*
G75*
G02*
X100793000Y-73893000I0J-200000D01*
G01*
X100793000Y-74443000D01*
G75*
G02*
X100593000Y-74643000I-200000J0D01*
G01*
X100193000Y-74643000D01*
G75*
G02*
X99993000Y-74443000I0J200000D01*
G01*
G37*
%TD.AperFunction*%
%TO.P,R4,1*%
%TO.N,+3V3*%
%TA.AperFunction,SMDPad,CuDef*%
G36*
G01*
X98343000Y-74443000D02*
X98343000Y-73893000D01*
G75*
G02*
X98543000Y-73693000I200000J0D01*
G01*
X98943000Y-73693000D01*
G75*
G02*
X99143000Y-73893000I0J-200000D01*
G01*
X99143000Y-74443000D01*
G75*
G02*
X98943000Y-74643000I-200000J0D01*
G01*
X98543000Y-74643000D01*
G75*
G02*
X98343000Y-74443000I0J200000D01*
G01*
G37*
%TD.AperFunction*%
%TD*%
%TO.P,R6,2*%
%TO.N,Net-(D1-Pad2)*%
%TA.AperFunction,SMDPad,CuDef*%
G36*
G01*
X102025000Y-81809000D02*
X102025000Y-81259000D01*
G75*
G02*
X102225000Y-81059000I200000J0D01*
G01*
X102625000Y-81059000D01*
G75*
G02*
X102825000Y-81259000I0J-200000D01*
G01*
X102825000Y-81809000D01*
G75*
G02*
X102625000Y-82009000I-200000J0D01*
G01*
X102225000Y-82009000D01*
G75*
G02*
X102025000Y-81809000I0J200000D01*
G01*
G37*
%TD.AperFunction*%
%TO.P,R6,1*%
%TO.N,Net-(R6-Pad1)*%
%TA.AperFunction,SMDPad,CuDef*%
G36*
G01*
X100375000Y-81809000D02*
X100375000Y-81259000D01*
G75*
G02*
X100575000Y-81059000I200000J0D01*
G01*
X100975000Y-81059000D01*
G75*
G02*
X101175000Y-81259000I0J-200000D01*
G01*
X101175000Y-81809000D01*
G75*
G02*
X100975000Y-82009000I-200000J0D01*
G01*
X100575000Y-82009000D01*
G75*
G02*
X100375000Y-81809000I0J200000D01*
G01*
G37*
%TD.AperFunction*%
%TD*%
%TO.P,R7,1*%
%TO.N,/BOOT*%
%TA.AperFunction,SMDPad,CuDef*%
G36*
G01*
X100793000Y-75671000D02*
X100793000Y-76221000D01*
G75*
G02*
X100593000Y-76421000I-200000J0D01*
G01*
X100193000Y-76421000D01*
G75*
G02*
X99993000Y-76221000I0J200000D01*
G01*
X99993000Y-75671000D01*
G75*
G02*
X100193000Y-75471000I200000J0D01*
G01*
X100593000Y-75471000D01*
G75*
G02*
X100793000Y-75671000I0J-200000D01*
G01*
G37*
%TD.AperFunction*%
%TO.P,R7,2*%
%TO.N,Net-(R7-Pad2)*%
%TA.AperFunction,SMDPad,CuDef*%
G36*
G01*
X99143000Y-75671000D02*
X99143000Y-76221000D01*
G75*
G02*
X98943000Y-76421000I-200000J0D01*
G01*
X98543000Y-76421000D01*
G75*
G02*
X98343000Y-76221000I0J200000D01*
G01*
X98343000Y-75671000D01*
G75*
G02*
X98543000Y-75471000I200000J0D01*
G01*
X98943000Y-75471000D01*
G75*
G02*
X99143000Y-75671000I0J-200000D01*
G01*
G37*
%TD.AperFunction*%
%TD*%
D16*
%TO.P,SW1,1*%
%TO.N,GND*%
X92842000Y-85446000D03*
X92842000Y-79146000D03*
%TO.P,SW1,2*%
%TO.N,/RESET*%
X96642000Y-85446000D03*
X96642000Y-79146000D03*
%TD*%
%TO.P,SW2,2*%
%TO.N,Net-(R3-Pad2)*%
X110358000Y-79146000D03*
X110358000Y-85446000D03*
%TO.P,SW2,1*%
%TO.N,GND*%
X106558000Y-79146000D03*
X106558000Y-85446000D03*
%TD*%
D17*
%TO.P,U1,1*%
%TO.N,+3V3*%
X106652000Y-71768000D03*
%TO.P,U1,2*%
%TO.N,Net-(C8-Pad1)*%
X106152000Y-71768000D03*
%TO.P,U1,3*%
%TO.N,Net-(C5-Pad1)*%
X105652000Y-71768000D03*
%TO.P,U1,4*%
X105152000Y-71768000D03*
%TO.P,U1,5*%
%TO.N,N/C*%
X104652000Y-71768000D03*
%TO.P,U1,6*%
X104152000Y-71768000D03*
%TO.P,U1,7*%
%TO.N,+3V3*%
X103652000Y-71768000D03*
%TO.P,U1,8*%
%TO.N,Net-(JP3-Pad2)*%
X103152000Y-71768000D03*
D18*
%TO.P,U1,9*%
%TO.N,N/C*%
X102502000Y-72418000D03*
%TO.P,U1,10*%
X102502000Y-72918000D03*
%TO.P,U1,11*%
%TO.N,+3V3*%
X102502000Y-73418000D03*
%TO.P,U1,12*%
%TO.N,N/C*%
X102502000Y-73918000D03*
%TO.P,U1,13*%
%TO.N,GND*%
X102502000Y-74418000D03*
%TO.P,U1,14*%
%TO.N,Net-(R4-Pad2)*%
X102502000Y-74918000D03*
%TO.P,U1,15*%
%TO.N,/BOOT*%
X102502000Y-75418000D03*
%TO.P,U1,16*%
%TO.N,Net-(R6-Pad1)*%
X102502000Y-75918000D03*
D17*
%TO.P,U1,17*%
%TO.N,+3V3*%
X103152000Y-76568000D03*
%TO.P,U1,18*%
%TO.N,N/C*%
X103652000Y-76568000D03*
%TO.P,U1,19*%
X104152000Y-76568000D03*
%TO.P,U1,20*%
X104652000Y-76568000D03*
%TO.P,U1,21*%
X105152000Y-76568000D03*
%TO.P,U1,22*%
X105652000Y-76568000D03*
%TO.P,U1,23*%
X106152000Y-76568000D03*
%TO.P,U1,24*%
%TO.N,Net-(R3-Pad2)*%
X106652000Y-76568000D03*
D18*
%TO.P,U1,25*%
%TO.N,/RX*%
X107302000Y-75918000D03*
%TO.P,U1,26*%
%TO.N,/TX*%
X107302000Y-75418000D03*
%TO.P,U1,27*%
%TO.N,Net-(C7-Pad1)*%
X107302000Y-74918000D03*
%TO.P,U1,28*%
%TO.N,Net-(C6-Pad1)*%
X107302000Y-74418000D03*
%TO.P,U1,29*%
%TO.N,+3V3*%
X107302000Y-73918000D03*
%TO.P,U1,30*%
X107302000Y-73418000D03*
%TO.P,U1,31*%
%TO.N,Net-(R2-Pad1)*%
X107302000Y-72918000D03*
%TO.P,U1,32*%
%TO.N,/RESET*%
X107302000Y-72418000D03*
D19*
%TO.P,U1,33*%
%TO.N,GND*%
X104039500Y-75030500D03*
X105764500Y-75030500D03*
X104039500Y-73305500D03*
X105764500Y-73305500D03*
%TD*%
D20*
%TO.P,Y1,1*%
%TO.N,Net-(C6-Pad1)*%
X109132000Y-73576000D03*
%TO.P,Y1,2*%
%TO.N,GND*%
X109132000Y-75776000D03*
%TO.P,Y1,3*%
%TO.N,Net-(C7-Pad1)*%
X110832000Y-75776000D03*
%TO.P,Y1,4*%
%TO.N,GND*%
X110832000Y-73576000D03*
%TD*%
D21*
%TO.P,AE1,2*%
%TO.N,GND*%
X108272000Y-67564000D03*
D22*
%TO.P,AE1,1*%
%TO.N,Net-(AE1-Pad1)*%
X106172000Y-67564000D03*
%TD*%
%TO.P,C6,1*%
%TO.N,Net-(C6-Pad1)*%
%TA.AperFunction,SMDPad,CuDef*%
G36*
G01*
X109730000Y-72052000D02*
X109730000Y-71712000D01*
G75*
G02*
X109870000Y-71572000I140000J0D01*
G01*
X110150000Y-71572000D01*
G75*
G02*
X110290000Y-71712000I0J-140000D01*
G01*
X110290000Y-72052000D01*
G75*
G02*
X110150000Y-72192000I-140000J0D01*
G01*
X109870000Y-72192000D01*
G75*
G02*
X109730000Y-72052000I0J140000D01*
G01*
G37*
%TD.AperFunction*%
%TO.P,C6,2*%
%TO.N,GND*%
%TA.AperFunction,SMDPad,CuDef*%
G36*
G01*
X110690000Y-72052000D02*
X110690000Y-71712000D01*
G75*
G02*
X110830000Y-71572000I140000J0D01*
G01*
X111110000Y-71572000D01*
G75*
G02*
X111250000Y-71712000I0J-140000D01*
G01*
X111250000Y-72052000D01*
G75*
G02*
X111110000Y-72192000I-140000J0D01*
G01*
X110830000Y-72192000D01*
G75*
G02*
X110690000Y-72052000I0J140000D01*
G01*
G37*
%TD.AperFunction*%
%TD*%
%TO.P,C7,2*%
%TO.N,GND*%
%TA.AperFunction,SMDPad,CuDef*%
G36*
G01*
X110290000Y-77300000D02*
X110290000Y-77640000D01*
G75*
G02*
X110150000Y-77780000I-140000J0D01*
G01*
X109870000Y-77780000D01*
G75*
G02*
X109730000Y-77640000I0J140000D01*
G01*
X109730000Y-77300000D01*
G75*
G02*
X109870000Y-77160000I140000J0D01*
G01*
X110150000Y-77160000D01*
G75*
G02*
X110290000Y-77300000I0J-140000D01*
G01*
G37*
%TD.AperFunction*%
%TO.P,C7,1*%
%TO.N,Net-(C7-Pad1)*%
%TA.AperFunction,SMDPad,CuDef*%
G36*
G01*
X111250000Y-77300000D02*
X111250000Y-77640000D01*
G75*
G02*
X111110000Y-77780000I-140000J0D01*
G01*
X110830000Y-77780000D01*
G75*
G02*
X110690000Y-77640000I0J140000D01*
G01*
X110690000Y-77300000D01*
G75*
G02*
X110830000Y-77160000I140000J0D01*
G01*
X111110000Y-77160000D01*
G75*
G02*
X111250000Y-77300000I0J-140000D01*
G01*
G37*
%TD.AperFunction*%
%TD*%
D23*
%TO.N,GND*%
X111664525Y-68226660D03*
X105156000Y-68834000D03*
X97790000Y-70612000D03*
X104039500Y-75030500D03*
X105764500Y-75030500D03*
X104039500Y-73305500D03*
X105764500Y-73305500D03*
X111693080Y-72200000D03*
X106172000Y-77724000D03*
X109220000Y-77216000D03*
X91948000Y-70104000D03*
X92710000Y-70358000D03*
X97028000Y-70612000D03*
X103378000Y-69596000D03*
X107915017Y-69576955D03*
X97790000Y-68834000D03*
X110744000Y-67564000D03*
X109728000Y-67564000D03*
%TO.N,+3V3*%
X108031998Y-73660000D03*
X110490000Y-71120000D03*
X101600000Y-72898000D03*
X103124000Y-77470000D03*
X99314000Y-81534000D03*
X100343000Y-69837000D03*
%TO.N,/RESET*%
X95504000Y-76200000D03*
X107442000Y-71975600D03*
X97815116Y-72533010D03*
%TO.N,/BOOT*%
X100330000Y-77470000D03*
%TO.N,Net-(JP3-Pad2)*%
X97028000Y-72390000D03*
X101240963Y-71318637D03*
%TO.N,/TX*%
X107950000Y-77216000D03*
%TO.N,/RX*%
X107277002Y-76708000D03*
X94742000Y-71120000D03*
%TO.N,Net-(R7-Pad2)*%
X98806000Y-78994000D03*
%TD*%
D24*
%TO.N,GND*%
X108272000Y-68454000D02*
X107892000Y-68834000D01*
X108272000Y-67564000D02*
X108272000Y-68454000D01*
X111070185Y-68821000D02*
X111664525Y-68226660D01*
X110744000Y-68821000D02*
X111070185Y-68821000D01*
X105143000Y-68821000D02*
X105156000Y-68834000D01*
X104140000Y-68821000D02*
X105143000Y-68821000D01*
X98793000Y-70612000D02*
X97790000Y-70612000D01*
X103427000Y-74418000D02*
X104039500Y-75030500D01*
X102502000Y-74418000D02*
X103427000Y-74418000D01*
X104039500Y-75030500D02*
X105764500Y-75030500D01*
X104039500Y-75030500D02*
X104039500Y-73305500D01*
X104039500Y-73305500D02*
X105764500Y-73305500D01*
X111375080Y-71882000D02*
X111693080Y-72200000D01*
X110970000Y-71882000D02*
X111375080Y-71882000D01*
X106558000Y-78110000D02*
X106172000Y-77724000D01*
X106558000Y-79146000D02*
X106558000Y-78110000D01*
X109132000Y-77128000D02*
X109220000Y-77216000D01*
X109132000Y-75776000D02*
X109132000Y-77128000D01*
X104140000Y-68834000D02*
X103378000Y-69596000D01*
X104140000Y-68821000D02*
X104140000Y-68834000D01*
X107892000Y-69553938D02*
X107915017Y-69576955D01*
X107892000Y-68834000D02*
X107892000Y-69553938D01*
X98793000Y-68834000D02*
X97790000Y-68834000D01*
X110744000Y-68821000D02*
X110744000Y-67564000D01*
X109220000Y-68072000D02*
X109728000Y-67564000D01*
X109220000Y-68771000D02*
X109220000Y-68072000D01*
D25*
%TO.N,Net-(AE1-Pad1)*%
X106172000Y-67564000D02*
X106172000Y-69116000D01*
X106454000Y-68834000D02*
X106172000Y-69116000D01*
X106992000Y-68834000D02*
X106454000Y-68834000D01*
D24*
%TO.N,+3V3*%
X100956118Y-72390000D02*
X100343000Y-72390000D01*
X101984118Y-73418000D02*
X100956118Y-72390000D01*
X102502000Y-73418000D02*
X101984118Y-73418000D01*
X107773998Y-73918000D02*
X108031998Y-73660000D01*
X107302000Y-73918000D02*
X107773998Y-73918000D01*
X110490000Y-70625000D02*
X110744000Y-70371000D01*
X110490000Y-71120000D02*
X110490000Y-70625000D01*
X107789998Y-73418000D02*
X108031998Y-73660000D01*
X107302000Y-73418000D02*
X107789998Y-73418000D01*
X100355000Y-68846000D02*
X100343000Y-68834000D01*
X102362000Y-68846000D02*
X100355000Y-68846000D01*
X103152000Y-77435000D02*
X104394000Y-78677000D01*
X103152000Y-76568000D02*
X103152000Y-77435000D01*
X98743000Y-73990000D02*
X100343000Y-72390000D01*
X98743000Y-74168000D02*
X98743000Y-73990000D01*
X100343000Y-71361000D02*
X100343000Y-70612000D01*
X100343000Y-72390000D02*
X100343000Y-71361000D01*
X97091000Y-76899000D02*
X97790000Y-76200000D01*
X97091000Y-76962000D02*
X97091000Y-76899000D01*
X97790000Y-75121000D02*
X98743000Y-74168000D01*
X97790000Y-76200000D02*
X97790000Y-75121000D01*
X97091000Y-76962000D02*
X97091000Y-77025000D01*
X97091000Y-77025000D02*
X97790000Y-77724000D01*
X97790000Y-80010000D02*
X99314000Y-81534000D01*
X97790000Y-77724000D02*
X97790000Y-80010000D01*
X100343000Y-69837000D02*
X100343000Y-70612000D01*
X100343000Y-68834000D02*
X100343000Y-69837000D01*
X110744000Y-69850000D02*
X110744000Y-70371000D01*
X108712000Y-69596000D02*
X110490000Y-69596000D01*
X108443390Y-69864610D02*
X108712000Y-69596000D01*
X108443390Y-71134610D02*
X108443390Y-69864610D01*
X108204000Y-71374000D02*
X108443390Y-71134610D01*
X106934000Y-71374000D02*
X108204000Y-71374000D01*
X110490000Y-69596000D02*
X110744000Y-69850000D01*
X106652000Y-71656000D02*
X106934000Y-71374000D01*
X106652000Y-71768000D02*
X106652000Y-71656000D01*
X100343000Y-71133000D02*
X100343000Y-71361000D01*
X103652000Y-71250118D02*
X103518281Y-71116399D01*
X103652000Y-71768000D02*
X103652000Y-71250118D01*
X103120399Y-71116399D02*
X102901601Y-70897601D01*
X103518281Y-71116399D02*
X103120399Y-71116399D01*
X101385118Y-70612000D02*
X100343000Y-70612000D01*
X101670719Y-70897601D02*
X101385118Y-70612000D01*
X102901601Y-70897601D02*
X101670719Y-70897601D01*
%TO.N,Net-(C5-Pad1)*%
X105652000Y-71768000D02*
X105652000Y-71108000D01*
X104915000Y-70371000D02*
X104140000Y-70371000D01*
X105152000Y-70870000D02*
X105283000Y-70739000D01*
X105152000Y-71768000D02*
X105152000Y-70870000D01*
X105283000Y-70739000D02*
X104915000Y-70371000D01*
X105652000Y-71108000D02*
X105283000Y-70739000D01*
X102387000Y-70371000D02*
X102362000Y-70346000D01*
X104140000Y-70371000D02*
X102387000Y-70371000D01*
%TO.N,Net-(C6-Pad1)*%
X110010000Y-71882000D02*
X109728000Y-71882000D01*
X109132000Y-72478000D02*
X109132000Y-73576000D01*
X109728000Y-71882000D02*
X109132000Y-72478000D01*
X108446399Y-74261601D02*
X109132000Y-73576000D01*
X108110399Y-74261601D02*
X108446399Y-74261601D01*
X107954000Y-74418000D02*
X108110399Y-74261601D01*
X107302000Y-74418000D02*
X107954000Y-74418000D01*
%TO.N,Net-(C7-Pad1)*%
X110832000Y-75633118D02*
X110832000Y-75776000D01*
X109973281Y-74774399D02*
X110832000Y-75633118D01*
X108290719Y-74774399D02*
X109973281Y-74774399D01*
X108147118Y-74918000D02*
X108290719Y-74774399D01*
X107302000Y-74918000D02*
X108147118Y-74918000D01*
X110832000Y-77332000D02*
X110970000Y-77470000D01*
X110832000Y-75776000D02*
X110832000Y-77332000D01*
%TO.N,Net-(C8-Pad1)*%
X106152000Y-70096000D02*
X106172000Y-70076000D01*
X106152000Y-71768000D02*
X106152000Y-70096000D01*
D25*
X106454000Y-70358000D02*
X106172000Y-70076000D01*
X106992000Y-70358000D02*
X106454000Y-70358000D01*
D24*
%TO.N,Net-(D1-Pad2)*%
X102400000Y-81559000D02*
X102425000Y-81534000D01*
X102400000Y-83058000D02*
X102400000Y-81559000D01*
%TO.N,/RESET*%
X95616000Y-76787000D02*
X95441000Y-76962000D01*
X95441000Y-77945000D02*
X96642000Y-79146000D01*
X95441000Y-76962000D02*
X95441000Y-77945000D01*
X96642000Y-79146000D02*
X96642000Y-85446000D01*
X95616000Y-76088000D02*
X95504000Y-76200000D01*
X95616000Y-74930000D02*
X95616000Y-76088000D01*
X95616000Y-76088000D02*
X95616000Y-76787000D01*
X107302000Y-72115600D02*
X107442000Y-71975600D01*
X107302000Y-72418000D02*
X107302000Y-72115600D01*
X97316769Y-71788399D02*
X96359601Y-71788399D01*
X97629601Y-72101231D02*
X97316769Y-71788399D01*
X97629601Y-72347495D02*
X97629601Y-72101231D01*
X97815116Y-72533010D02*
X97629601Y-72347495D01*
X95616000Y-72532000D02*
X95616000Y-74930000D01*
X96359601Y-71788399D02*
X95616000Y-72532000D01*
%TO.N,/BOOT*%
X102502000Y-75418000D02*
X101620000Y-75418000D01*
X101092000Y-75946000D02*
X100393000Y-75946000D01*
X101620000Y-75418000D02*
X101092000Y-75946000D01*
X100330000Y-76009000D02*
X100393000Y-75946000D01*
X100330000Y-77470000D02*
X100330000Y-76009000D01*
%TO.N,Net-(JP3-Pad2)*%
X96916000Y-72502000D02*
X96916000Y-74930000D01*
X97028000Y-72390000D02*
X96916000Y-72502000D01*
X103152000Y-71768000D02*
X102756000Y-71768000D01*
X101655363Y-71318637D02*
X101710726Y-71374000D01*
X101240963Y-71318637D02*
X101655363Y-71318637D01*
X102362000Y-71374000D02*
X102756000Y-71768000D01*
X101710726Y-71374000D02*
X102362000Y-71374000D01*
%TO.N,/TX*%
X107953601Y-77212399D02*
X107950000Y-77216000D01*
X107953601Y-75551719D02*
X107953601Y-77212399D01*
X107819882Y-75418000D02*
X107953601Y-75551719D01*
X107302000Y-75418000D02*
X107819882Y-75418000D01*
%TO.N,/RX*%
X107302000Y-76683002D02*
X107277002Y-76708000D01*
X107302000Y-75918000D02*
X107302000Y-76683002D01*
X94662000Y-71200000D02*
X90600000Y-71200000D01*
X94742000Y-71120000D02*
X94662000Y-71200000D01*
%TO.N,Net-(R2-Pad1)*%
X109220000Y-71517882D02*
X109220000Y-70421000D01*
X107819882Y-72918000D02*
X109220000Y-71517882D01*
X107302000Y-72918000D02*
X107819882Y-72918000D01*
%TO.N,Net-(R3-Pad2)*%
X104394000Y-80327000D02*
X110173000Y-80327000D01*
X110358000Y-80142000D02*
X110358000Y-79146000D01*
X110173000Y-80327000D02*
X110358000Y-80142000D01*
X110358000Y-80512000D02*
X110173000Y-80327000D01*
X110358000Y-85446000D02*
X110358000Y-80512000D01*
X106652000Y-76568000D02*
X106652000Y-76934000D01*
X108864000Y-79146000D02*
X110358000Y-79146000D01*
X106652000Y-76934000D02*
X108864000Y-79146000D01*
%TO.N,Net-(R4-Pad2)*%
X101143000Y-74918000D02*
X100393000Y-74168000D01*
X102502000Y-74918000D02*
X101143000Y-74918000D01*
%TO.N,Net-(R6-Pad1)*%
X102502000Y-75918000D02*
X101882000Y-75918000D01*
X101882000Y-75918000D02*
X101346000Y-76454000D01*
X101346000Y-76454000D02*
X101346000Y-79502000D01*
X100775000Y-80073000D02*
X100775000Y-81534000D01*
X101346000Y-79502000D02*
X100775000Y-80073000D01*
%TO.N,Net-(R7-Pad2)*%
X98743000Y-78931000D02*
X98743000Y-75946000D01*
X98806000Y-78994000D02*
X98743000Y-78931000D01*
%TD*%
D26*
%TO.N,GND*%
X90063738Y-68200000D02*
X89880049Y-68322737D01*
X89722737Y-68480049D01*
X89599138Y-68665028D01*
X89514002Y-68870566D01*
X89470600Y-69088764D01*
X89470600Y-69311236D01*
X89514002Y-69529434D01*
X89599138Y-69734972D01*
X89722737Y-69919951D01*
X89880049Y-70077263D01*
X90063738Y-70200000D01*
X89880049Y-70322737D01*
X89722737Y-70480049D01*
X89599138Y-70665028D01*
X89514002Y-70870566D01*
X89470600Y-71088764D01*
X89470600Y-71311236D01*
X89514002Y-71529434D01*
X89599138Y-71734972D01*
X89722737Y-71919951D01*
X89880049Y-72077263D01*
X90063738Y-72200000D01*
X89880049Y-72322737D01*
X89722737Y-72480049D01*
X89599138Y-72665028D01*
X89514002Y-72870566D01*
X89470600Y-73088764D01*
X89470600Y-73311236D01*
X89514002Y-73529434D01*
X89599138Y-73734972D01*
X89722737Y-73919951D01*
X89880049Y-74077263D01*
X90063738Y-74200000D01*
X89880049Y-74322737D01*
X89722737Y-74480049D01*
X89599138Y-74665028D01*
X89514002Y-74870566D01*
X89470600Y-75088764D01*
X89470600Y-75311236D01*
X89514002Y-75529434D01*
X89599138Y-75734972D01*
X89722737Y-75919951D01*
X89880049Y-76077263D01*
X90063738Y-76200000D01*
X89880049Y-76322737D01*
X89722737Y-76480049D01*
X89599138Y-76665028D01*
X89514002Y-76870566D01*
X89470600Y-77088764D01*
X89470600Y-77311236D01*
X89514002Y-77529434D01*
X89599138Y-77734972D01*
X89722737Y-77919951D01*
X89880049Y-78077263D01*
X90063738Y-78200000D01*
X89880049Y-78322737D01*
X89722737Y-78480049D01*
X89599138Y-78665028D01*
X89514002Y-78870566D01*
X89470600Y-79088764D01*
X89470600Y-79311236D01*
X89514002Y-79529434D01*
X89599138Y-79734972D01*
X89722737Y-79919951D01*
X89880049Y-80077263D01*
X90063738Y-80200000D01*
X89880049Y-80322737D01*
X89722737Y-80480049D01*
X89599138Y-80665028D01*
X89514002Y-80870566D01*
X89470600Y-81088764D01*
X89470600Y-81311236D01*
X89514002Y-81529434D01*
X89599138Y-81734972D01*
X89722737Y-81919951D01*
X89880049Y-82077263D01*
X90063738Y-82200000D01*
X89880049Y-82322737D01*
X89722737Y-82480049D01*
X89599138Y-82665028D01*
X89514002Y-82870566D01*
X89470600Y-83088764D01*
X89470600Y-83311236D01*
X89514002Y-83529434D01*
X89599138Y-83734972D01*
X89722737Y-83919951D01*
X89880049Y-84077263D01*
X90065028Y-84200862D01*
X90069597Y-84202754D01*
X89985526Y-84245882D01*
X89953659Y-84267175D01*
X89865095Y-84429174D01*
X90600000Y-85164079D01*
X91334905Y-84429174D01*
X91246341Y-84267175D01*
X91130496Y-84202716D01*
X91134972Y-84200862D01*
X91319951Y-84077263D01*
X91477263Y-83919951D01*
X91600862Y-83734972D01*
X91685998Y-83529434D01*
X91729400Y-83311236D01*
X91729400Y-83088764D01*
X91685998Y-82870566D01*
X91600862Y-82665028D01*
X91477263Y-82480049D01*
X91319951Y-82322737D01*
X91136262Y-82200000D01*
X91319951Y-82077263D01*
X91477263Y-81919951D01*
X91600862Y-81734972D01*
X91685998Y-81529434D01*
X91729400Y-81311236D01*
X91729400Y-81088764D01*
X91685998Y-80870566D01*
X91600862Y-80665028D01*
X91477263Y-80480049D01*
X91319951Y-80322737D01*
X91136262Y-80200000D01*
X91319951Y-80077263D01*
X91401214Y-79996000D01*
X92061248Y-79996000D01*
X92066643Y-80050772D01*
X92082619Y-80103439D01*
X92108563Y-80151977D01*
X92143478Y-80194522D01*
X92186023Y-80229437D01*
X92234561Y-80255381D01*
X92287228Y-80271357D01*
X92342000Y-80276752D01*
X92746750Y-80275400D01*
X92816600Y-80205550D01*
X92816600Y-79171400D01*
X92867400Y-79171400D01*
X92867400Y-80205550D01*
X92937250Y-80275400D01*
X93342000Y-80276752D01*
X93396772Y-80271357D01*
X93449439Y-80255381D01*
X93497977Y-80229437D01*
X93540522Y-80194522D01*
X93575437Y-80151977D01*
X93601381Y-80103439D01*
X93617357Y-80050772D01*
X93622752Y-79996000D01*
X93621400Y-79241250D01*
X93551550Y-79171400D01*
X92867400Y-79171400D01*
X92816600Y-79171400D01*
X92132450Y-79171400D01*
X92062600Y-79241250D01*
X92061248Y-79996000D01*
X91401214Y-79996000D01*
X91477263Y-79919951D01*
X91600862Y-79734972D01*
X91685998Y-79529434D01*
X91729400Y-79311236D01*
X91729400Y-79088764D01*
X91685998Y-78870566D01*
X91600862Y-78665028D01*
X91477263Y-78480049D01*
X91319951Y-78322737D01*
X91279937Y-78296000D01*
X92061248Y-78296000D01*
X92062600Y-79050750D01*
X92132450Y-79120600D01*
X92816600Y-79120600D01*
X92816600Y-78086450D01*
X92867400Y-78086450D01*
X92867400Y-79120600D01*
X93551550Y-79120600D01*
X93621400Y-79050750D01*
X93622752Y-78296000D01*
X93617357Y-78241228D01*
X93601381Y-78188561D01*
X93575437Y-78140023D01*
X93540522Y-78097478D01*
X93497977Y-78062563D01*
X93449439Y-78036619D01*
X93396772Y-78020643D01*
X93342000Y-78015248D01*
X92937250Y-78016600D01*
X92867400Y-78086450D01*
X92816600Y-78086450D01*
X92746750Y-78016600D01*
X92342000Y-78015248D01*
X92287228Y-78020643D01*
X92234561Y-78036619D01*
X92186023Y-78062563D01*
X92143478Y-78097478D01*
X92108563Y-78140023D01*
X92082619Y-78188561D01*
X92066643Y-78241228D01*
X92061248Y-78296000D01*
X91279937Y-78296000D01*
X91136262Y-78200000D01*
X91319951Y-78077263D01*
X91477263Y-77919951D01*
X91600862Y-77734972D01*
X91685998Y-77529434D01*
X91729400Y-77311236D01*
X91729400Y-77088764D01*
X91685998Y-76870566D01*
X91600862Y-76665028D01*
X91477263Y-76480049D01*
X91319951Y-76322737D01*
X91136262Y-76200000D01*
X91319951Y-76077263D01*
X91477263Y-75919951D01*
X91600862Y-75734972D01*
X91685998Y-75529434D01*
X91729400Y-75311236D01*
X91729400Y-75088764D01*
X91685998Y-74870566D01*
X91600862Y-74665028D01*
X91477263Y-74480049D01*
X91319951Y-74322737D01*
X91136262Y-74200000D01*
X91319951Y-74077263D01*
X91477263Y-73919951D01*
X91600862Y-73734972D01*
X91685998Y-73529434D01*
X91729400Y-73311236D01*
X91729400Y-73088764D01*
X91685998Y-72870566D01*
X91600862Y-72665028D01*
X91477263Y-72480049D01*
X91319951Y-72322737D01*
X91136262Y-72200000D01*
X91319951Y-72077263D01*
X91477263Y-71919951D01*
X91600862Y-71734972D01*
X91664639Y-71581000D01*
X94389043Y-71581000D01*
X94467551Y-71633457D01*
X94572995Y-71677134D01*
X94684934Y-71699400D01*
X94799066Y-71699400D01*
X94911005Y-71677134D01*
X95016449Y-71633457D01*
X95111346Y-71570049D01*
X95192049Y-71489346D01*
X95255457Y-71394449D01*
X95299134Y-71289005D01*
X95321400Y-71177066D01*
X95321400Y-71087000D01*
X98062248Y-71087000D01*
X98067643Y-71141772D01*
X98083619Y-71194439D01*
X98109563Y-71242977D01*
X98144478Y-71285522D01*
X98187023Y-71320437D01*
X98235561Y-71346381D01*
X98288228Y-71362357D01*
X98343000Y-71367752D01*
X98697750Y-71366400D01*
X98767600Y-71296550D01*
X98767600Y-70637400D01*
X98818400Y-70637400D01*
X98818400Y-71296550D01*
X98888250Y-71366400D01*
X99243000Y-71367752D01*
X99297772Y-71362357D01*
X99350439Y-71346381D01*
X99398977Y-71320437D01*
X99441522Y-71285522D01*
X99476437Y-71242977D01*
X99502381Y-71194439D01*
X99518357Y-71141772D01*
X99523752Y-71087000D01*
X99522400Y-70707250D01*
X99452550Y-70637400D01*
X98818400Y-70637400D01*
X98767600Y-70637400D01*
X98133450Y-70637400D01*
X98063600Y-70707250D01*
X98062248Y-71087000D01*
X95321400Y-71087000D01*
X95321400Y-71062934D01*
X95299134Y-70950995D01*
X95255457Y-70845551D01*
X95192049Y-70750654D01*
X95111346Y-70669951D01*
X95016449Y-70606543D01*
X94911005Y-70562866D01*
X94799066Y-70540600D01*
X94684934Y-70540600D01*
X94572995Y-70562866D01*
X94467551Y-70606543D01*
X94372654Y-70669951D01*
X94291951Y-70750654D01*
X94246284Y-70819000D01*
X91664639Y-70819000D01*
X91600862Y-70665028D01*
X91477263Y-70480049D01*
X91319951Y-70322737D01*
X91136262Y-70200000D01*
X91230548Y-70137000D01*
X98062248Y-70137000D01*
X98063600Y-70516750D01*
X98133450Y-70586600D01*
X98767600Y-70586600D01*
X98767600Y-69927450D01*
X98818400Y-69927450D01*
X98818400Y-70586600D01*
X99452550Y-70586600D01*
X99522400Y-70516750D01*
X99523752Y-70137000D01*
X99518357Y-70082228D01*
X99502381Y-70029561D01*
X99476437Y-69981023D01*
X99441522Y-69938478D01*
X99398977Y-69903563D01*
X99350439Y-69877619D01*
X99297772Y-69861643D01*
X99243000Y-69856248D01*
X98888250Y-69857600D01*
X98818400Y-69927450D01*
X98767600Y-69927450D01*
X98697750Y-69857600D01*
X98343000Y-69856248D01*
X98288228Y-69861643D01*
X98235561Y-69877619D01*
X98187023Y-69903563D01*
X98144478Y-69938478D01*
X98109563Y-69981023D01*
X98083619Y-70029561D01*
X98067643Y-70082228D01*
X98062248Y-70137000D01*
X91230548Y-70137000D01*
X91319951Y-70077263D01*
X91477263Y-69919951D01*
X91600862Y-69734972D01*
X91685998Y-69529434D01*
X91729400Y-69311236D01*
X91729400Y-69309000D01*
X98062248Y-69309000D01*
X98067643Y-69363772D01*
X98083619Y-69416439D01*
X98109563Y-69464977D01*
X98144478Y-69507522D01*
X98187023Y-69542437D01*
X98235561Y-69568381D01*
X98288228Y-69584357D01*
X98343000Y-69589752D01*
X98697750Y-69588400D01*
X98767600Y-69518550D01*
X98767600Y-68859400D01*
X98818400Y-68859400D01*
X98818400Y-69518550D01*
X98888250Y-69588400D01*
X99243000Y-69589752D01*
X99297772Y-69584357D01*
X99350439Y-69568381D01*
X99398977Y-69542437D01*
X99441522Y-69507522D01*
X99476437Y-69464977D01*
X99502381Y-69416439D01*
X99518357Y-69363772D01*
X99523752Y-69309000D01*
X99522400Y-68929250D01*
X99452550Y-68859400D01*
X98818400Y-68859400D01*
X98767600Y-68859400D01*
X98133450Y-68859400D01*
X98063600Y-68929250D01*
X98062248Y-69309000D01*
X91729400Y-69309000D01*
X91729400Y-69088764D01*
X91685998Y-68870566D01*
X91600862Y-68665028D01*
X91477263Y-68480049D01*
X91319951Y-68322737D01*
X91136262Y-68200000D01*
X91213786Y-68148200D01*
X98159439Y-68148200D01*
X98144478Y-68160478D01*
X98109563Y-68203023D01*
X98083619Y-68251561D01*
X98067643Y-68304228D01*
X98062248Y-68359000D01*
X98063600Y-68738750D01*
X98133450Y-68808600D01*
X98767600Y-68808600D01*
X98767600Y-68788600D01*
X98818400Y-68788600D01*
X98818400Y-68808600D01*
X99452550Y-68808600D01*
X99522400Y-68738750D01*
X99523752Y-68359000D01*
X99518357Y-68304228D01*
X99502381Y-68251561D01*
X99476437Y-68203023D01*
X99441522Y-68160478D01*
X99426561Y-68148200D01*
X99865613Y-68148200D01*
X99837020Y-68163483D01*
X99760380Y-68226380D01*
X99697483Y-68303020D01*
X99650747Y-68390457D01*
X99621967Y-68485333D01*
X99612249Y-68584000D01*
X99612249Y-69084000D01*
X99621967Y-69182667D01*
X99650747Y-69277543D01*
X99697483Y-69364980D01*
X99760380Y-69441620D01*
X99837020Y-69504517D01*
X99860083Y-69516844D01*
X99829543Y-69562551D01*
X99785866Y-69667995D01*
X99763600Y-69779934D01*
X99763600Y-69894066D01*
X99782012Y-69986627D01*
X99760380Y-70004380D01*
X99697483Y-70081020D01*
X99650747Y-70168457D01*
X99621967Y-70263333D01*
X99612249Y-70362000D01*
X99612249Y-70862000D01*
X99621967Y-70960667D01*
X99650747Y-71055543D01*
X99697483Y-71142980D01*
X99760380Y-71219620D01*
X99837020Y-71282517D01*
X99924457Y-71329253D01*
X99962000Y-71340641D01*
X99962000Y-71379713D01*
X99962001Y-71379723D01*
X99962001Y-71661358D01*
X99924457Y-71672747D01*
X99837020Y-71719483D01*
X99760380Y-71782380D01*
X99697483Y-71859020D01*
X99650747Y-71946457D01*
X99621967Y-72041333D01*
X99612249Y-72140000D01*
X99612249Y-72581936D01*
X99523062Y-72671124D01*
X99522400Y-72485250D01*
X99452550Y-72415400D01*
X98818400Y-72415400D01*
X98818400Y-73074550D01*
X98888250Y-73144400D01*
X99049172Y-73145013D01*
X98781937Y-73412249D01*
X98543000Y-73412249D01*
X98449210Y-73421486D01*
X98359025Y-73448844D01*
X98275909Y-73493270D01*
X98203058Y-73553058D01*
X98143270Y-73625909D01*
X98098844Y-73709025D01*
X98071486Y-73799210D01*
X98062249Y-73893000D01*
X98062249Y-74309936D01*
X97696343Y-74675843D01*
X97694344Y-74655553D01*
X97694344Y-74630991D01*
X97688949Y-74576219D01*
X97669827Y-74480086D01*
X97653852Y-74427420D01*
X97616343Y-74336864D01*
X97590398Y-74288324D01*
X97535942Y-74206825D01*
X97501027Y-74164281D01*
X97431719Y-74094973D01*
X97389175Y-74060058D01*
X97307676Y-74005602D01*
X97297000Y-73999896D01*
X97297000Y-72905714D01*
X97302449Y-72903457D01*
X97346248Y-72874191D01*
X97365067Y-72902356D01*
X97445770Y-72983059D01*
X97540667Y-73046467D01*
X97646111Y-73090144D01*
X97758050Y-73112410D01*
X97872182Y-73112410D01*
X97984121Y-73090144D01*
X98089565Y-73046467D01*
X98115991Y-73028810D01*
X98144478Y-73063522D01*
X98187023Y-73098437D01*
X98235561Y-73124381D01*
X98288228Y-73140357D01*
X98343000Y-73145752D01*
X98697750Y-73144400D01*
X98767600Y-73074550D01*
X98767600Y-72415400D01*
X98747600Y-72415400D01*
X98747600Y-72364600D01*
X98767600Y-72364600D01*
X98767600Y-71705450D01*
X98818400Y-71705450D01*
X98818400Y-72364600D01*
X99452550Y-72364600D01*
X99522400Y-72294750D01*
X99523752Y-71915000D01*
X99518357Y-71860228D01*
X99502381Y-71807561D01*
X99476437Y-71759023D01*
X99441522Y-71716478D01*
X99398977Y-71681563D01*
X99350439Y-71655619D01*
X99297772Y-71639643D01*
X99243000Y-71634248D01*
X98888250Y-71635600D01*
X98818400Y-71705450D01*
X98767600Y-71705450D01*
X98697750Y-71635600D01*
X98343000Y-71634248D01*
X98288228Y-71639643D01*
X98235561Y-71655619D01*
X98187023Y-71681563D01*
X98144478Y-71716478D01*
X98109563Y-71759023D01*
X98083619Y-71807561D01*
X98067643Y-71860228D01*
X98062248Y-71915000D01*
X98062580Y-72008375D01*
X97990523Y-71978528D01*
X97983302Y-71954723D01*
X97950507Y-71893369D01*
X97947923Y-71888534D01*
X97912240Y-71845055D01*
X97900312Y-71830520D01*
X97885774Y-71818589D01*
X97599414Y-71532230D01*
X97587480Y-71517688D01*
X97529465Y-71470077D01*
X97463277Y-71434698D01*
X97391458Y-71412912D01*
X97335482Y-71407399D01*
X97335479Y-71407399D01*
X97316769Y-71405556D01*
X97298059Y-71407399D01*
X96378311Y-71407399D01*
X96359601Y-71405556D01*
X96340891Y-71407399D01*
X96340888Y-71407399D01*
X96284912Y-71412912D01*
X96213093Y-71434698D01*
X96146904Y-71470077D01*
X96103425Y-71505759D01*
X96103422Y-71505762D01*
X96088890Y-71517688D01*
X96076964Y-71532220D01*
X95359831Y-72249355D01*
X95345289Y-72261289D01*
X95317829Y-72294750D01*
X95297678Y-72319304D01*
X95273785Y-72364005D01*
X95262299Y-72385493D01*
X95240513Y-72457312D01*
X95235000Y-72513287D01*
X95233157Y-72532000D01*
X95235000Y-72550710D01*
X95235001Y-73999895D01*
X95224324Y-74005602D01*
X95142825Y-74060058D01*
X95100281Y-74094973D01*
X95030973Y-74164281D01*
X94996058Y-74206825D01*
X94941602Y-74288324D01*
X94915657Y-74336864D01*
X94878148Y-74427420D01*
X94862173Y-74480086D01*
X94843051Y-74576219D01*
X94837656Y-74630991D01*
X94837656Y-74655553D01*
X94835248Y-74680000D01*
X94835248Y-75180000D01*
X94837656Y-75204447D01*
X94837656Y-75229009D01*
X94843051Y-75283781D01*
X94862173Y-75379914D01*
X94878148Y-75432580D01*
X94915657Y-75523136D01*
X94941602Y-75571676D01*
X94996058Y-75653175D01*
X95030973Y-75695719D01*
X95100281Y-75765027D01*
X95110880Y-75773725D01*
X95053951Y-75830654D01*
X94990543Y-75925551D01*
X94946866Y-76030995D01*
X94924600Y-76142934D01*
X94924600Y-76257066D01*
X94936685Y-76317820D01*
X94901058Y-76347058D01*
X94841270Y-76419909D01*
X94796844Y-76503025D01*
X94769486Y-76593210D01*
X94760249Y-76687000D01*
X94760249Y-77237000D01*
X94769486Y-77330790D01*
X94796844Y-77420975D01*
X94841270Y-77504091D01*
X94901058Y-77576942D01*
X94973909Y-77636730D01*
X95057025Y-77681156D01*
X95060001Y-77682059D01*
X95060001Y-77926280D01*
X95058157Y-77945000D01*
X95062574Y-77989842D01*
X95065514Y-78019689D01*
X95072122Y-78041474D01*
X95087299Y-78091507D01*
X95122678Y-78157696D01*
X95148009Y-78188561D01*
X95170290Y-78215711D01*
X95184827Y-78227641D01*
X95861249Y-78904064D01*
X95861249Y-79996000D01*
X95866644Y-80050772D01*
X95882620Y-80103439D01*
X95908564Y-80151977D01*
X95943479Y-80194521D01*
X95986023Y-80229436D01*
X96034561Y-80255380D01*
X96087228Y-80271356D01*
X96142000Y-80276751D01*
X96261000Y-80276751D01*
X96261001Y-84315249D01*
X96142000Y-84315249D01*
X96087228Y-84320644D01*
X96034561Y-84336620D01*
X95986023Y-84362564D01*
X95943479Y-84397479D01*
X95908564Y-84440023D01*
X95882620Y-84488561D01*
X95866644Y-84541228D01*
X95861249Y-84596000D01*
X95861249Y-86296000D01*
X95866644Y-86350772D01*
X95882620Y-86403439D01*
X95908564Y-86451977D01*
X95943479Y-86494521D01*
X95986023Y-86529436D01*
X96034561Y-86555380D01*
X96087228Y-86571356D01*
X96142000Y-86576751D01*
X97142000Y-86576751D01*
X97196772Y-86571356D01*
X97249439Y-86555380D01*
X97297977Y-86529436D01*
X97340521Y-86494521D01*
X97375436Y-86451977D01*
X97401380Y-86403439D01*
X97417356Y-86350772D01*
X97422751Y-86296000D01*
X97422751Y-84840160D01*
X99370600Y-84840160D01*
X99370600Y-84983840D01*
X99398631Y-85124758D01*
X99453614Y-85257500D01*
X99533438Y-85376965D01*
X99635035Y-85478562D01*
X99754500Y-85558386D01*
X99887242Y-85613369D01*
X100028160Y-85641400D01*
X100171840Y-85641400D01*
X100312758Y-85613369D01*
X100445500Y-85558386D01*
X100512302Y-85513750D01*
X100744600Y-85513750D01*
X100744600Y-85682250D01*
X100777472Y-85847511D01*
X100841954Y-86003184D01*
X100935567Y-86143286D01*
X101054714Y-86262433D01*
X101194816Y-86356046D01*
X101350489Y-86420528D01*
X101515750Y-86453400D01*
X101684250Y-86453400D01*
X101849511Y-86420528D01*
X102005184Y-86356046D01*
X102095049Y-86296000D01*
X105777248Y-86296000D01*
X105782643Y-86350772D01*
X105798619Y-86403439D01*
X105824563Y-86451977D01*
X105859478Y-86494522D01*
X105902023Y-86529437D01*
X105950561Y-86555381D01*
X106003228Y-86571357D01*
X106058000Y-86576752D01*
X106462750Y-86575400D01*
X106532600Y-86505550D01*
X106532600Y-85471400D01*
X106583400Y-85471400D01*
X106583400Y-86505550D01*
X106653250Y-86575400D01*
X107058000Y-86576752D01*
X107112772Y-86571357D01*
X107165439Y-86555381D01*
X107213977Y-86529437D01*
X107256522Y-86494522D01*
X107291437Y-86451977D01*
X107317381Y-86403439D01*
X107333357Y-86350772D01*
X107338752Y-86296000D01*
X107337400Y-85541250D01*
X107267550Y-85471400D01*
X106583400Y-85471400D01*
X106532600Y-85471400D01*
X105848450Y-85471400D01*
X105778600Y-85541250D01*
X105777248Y-86296000D01*
X102095049Y-86296000D01*
X102145286Y-86262433D01*
X102264433Y-86143286D01*
X102358046Y-86003184D01*
X102422528Y-85847511D01*
X102455400Y-85682250D01*
X102455400Y-85513750D01*
X102422528Y-85348489D01*
X102358046Y-85192816D01*
X102264433Y-85052714D01*
X102145286Y-84933567D01*
X102005493Y-84840160D01*
X102370600Y-84840160D01*
X102370600Y-84983840D01*
X102398631Y-85124758D01*
X102453614Y-85257500D01*
X102533438Y-85376965D01*
X102635035Y-85478562D01*
X102754500Y-85558386D01*
X102887242Y-85613369D01*
X103028160Y-85641400D01*
X103171840Y-85641400D01*
X103312758Y-85613369D01*
X103445500Y-85558386D01*
X103564965Y-85478562D01*
X103666562Y-85376965D01*
X103746386Y-85257500D01*
X103801369Y-85124758D01*
X103829400Y-84983840D01*
X103829400Y-84840160D01*
X103801369Y-84699242D01*
X103758606Y-84596000D01*
X105777248Y-84596000D01*
X105778600Y-85350750D01*
X105848450Y-85420600D01*
X106532600Y-85420600D01*
X106532600Y-84386450D01*
X106583400Y-84386450D01*
X106583400Y-85420600D01*
X107267550Y-85420600D01*
X107337400Y-85350750D01*
X107338752Y-84596000D01*
X107333357Y-84541228D01*
X107317381Y-84488561D01*
X107291437Y-84440023D01*
X107256522Y-84397478D01*
X107213977Y-84362563D01*
X107165439Y-84336619D01*
X107112772Y-84320643D01*
X107058000Y-84315248D01*
X106653250Y-84316600D01*
X106583400Y-84386450D01*
X106532600Y-84386450D01*
X106462750Y-84316600D01*
X106058000Y-84315248D01*
X106003228Y-84320643D01*
X105950561Y-84336619D01*
X105902023Y-84362563D01*
X105859478Y-84397478D01*
X105824563Y-84440023D01*
X105798619Y-84488561D01*
X105782643Y-84541228D01*
X105777248Y-84596000D01*
X103758606Y-84596000D01*
X103746386Y-84566500D01*
X103666562Y-84447035D01*
X103564965Y-84345438D01*
X103445500Y-84265614D01*
X103312758Y-84210631D01*
X103171840Y-84182600D01*
X103028160Y-84182600D01*
X102887242Y-84210631D01*
X102754500Y-84265614D01*
X102635035Y-84345438D01*
X102533438Y-84447035D01*
X102453614Y-84566500D01*
X102398631Y-84699242D01*
X102370600Y-84840160D01*
X102005493Y-84840160D01*
X102005184Y-84839954D01*
X101849511Y-84775472D01*
X101684250Y-84742600D01*
X101515750Y-84742600D01*
X101350489Y-84775472D01*
X101194816Y-84839954D01*
X101054714Y-84933567D01*
X100935567Y-85052714D01*
X100841954Y-85192816D01*
X100777472Y-85348489D01*
X100744600Y-85513750D01*
X100512302Y-85513750D01*
X100564965Y-85478562D01*
X100666562Y-85376965D01*
X100746386Y-85257500D01*
X100801369Y-85124758D01*
X100829400Y-84983840D01*
X100829400Y-84840160D01*
X100801369Y-84699242D01*
X100746386Y-84566500D01*
X100666562Y-84447035D01*
X100564965Y-84345438D01*
X100445500Y-84265614D01*
X100312758Y-84210631D01*
X100171840Y-84182600D01*
X100028160Y-84182600D01*
X99887242Y-84210631D01*
X99754500Y-84265614D01*
X99635035Y-84345438D01*
X99533438Y-84447035D01*
X99453614Y-84566500D01*
X99398631Y-84699242D01*
X99370600Y-84840160D01*
X97422751Y-84840160D01*
X97422751Y-84596000D01*
X97417356Y-84541228D01*
X97401380Y-84488561D01*
X97375436Y-84440023D01*
X97340521Y-84397479D01*
X97297977Y-84362564D01*
X97249439Y-84336620D01*
X97196772Y-84320644D01*
X97142000Y-84315249D01*
X97023000Y-84315249D01*
X97023000Y-83458000D01*
X100119248Y-83458000D01*
X100124643Y-83512772D01*
X100140619Y-83565439D01*
X100166563Y-83613977D01*
X100201478Y-83656522D01*
X100244023Y-83691437D01*
X100292561Y-83717381D01*
X100345228Y-83733357D01*
X100400000Y-83738752D01*
X100704750Y-83737400D01*
X100774600Y-83667550D01*
X100774600Y-83083400D01*
X100825400Y-83083400D01*
X100825400Y-83667550D01*
X100895250Y-83737400D01*
X101200000Y-83738752D01*
X101254772Y-83733357D01*
X101307439Y-83717381D01*
X101355977Y-83691437D01*
X101398522Y-83656522D01*
X101433437Y-83613977D01*
X101459381Y-83565439D01*
X101475357Y-83512772D01*
X101480752Y-83458000D01*
X101479400Y-83153250D01*
X101409550Y-83083400D01*
X100825400Y-83083400D01*
X100774600Y-83083400D01*
X100190450Y-83083400D01*
X100120600Y-83153250D01*
X100119248Y-83458000D01*
X97023000Y-83458000D01*
X97023000Y-82658000D01*
X100119248Y-82658000D01*
X100120600Y-82962750D01*
X100190450Y-83032600D01*
X100774600Y-83032600D01*
X100774600Y-82448450D01*
X100825400Y-82448450D01*
X100825400Y-83032600D01*
X101409550Y-83032600D01*
X101479400Y-82962750D01*
X101480752Y-82658000D01*
X101719249Y-82658000D01*
X101719249Y-83458000D01*
X101724644Y-83512772D01*
X101740620Y-83565439D01*
X101766564Y-83613977D01*
X101801479Y-83656521D01*
X101844023Y-83691436D01*
X101892561Y-83717380D01*
X101945228Y-83733356D01*
X102000000Y-83738751D01*
X102800000Y-83738751D01*
X102854772Y-83733356D01*
X102907439Y-83717380D01*
X102955977Y-83691436D01*
X102998521Y-83656521D01*
X103033436Y-83613977D01*
X103059380Y-83565439D01*
X103075356Y-83512772D01*
X103080751Y-83458000D01*
X103080751Y-82658000D01*
X103075356Y-82603228D01*
X103059380Y-82550561D01*
X103033436Y-82502023D01*
X102998521Y-82459479D01*
X102955977Y-82424564D01*
X102907439Y-82398620D01*
X102854772Y-82382644D01*
X102800000Y-82377249D01*
X102781000Y-82377249D01*
X102781000Y-82261642D01*
X102808975Y-82253156D01*
X102892091Y-82208730D01*
X102964942Y-82148942D01*
X103024730Y-82076091D01*
X103069156Y-81992975D01*
X103096514Y-81902790D01*
X103105751Y-81809000D01*
X103105751Y-81259000D01*
X103096514Y-81165210D01*
X103069156Y-81075025D01*
X103024730Y-80991909D01*
X102964942Y-80919058D01*
X102892091Y-80859270D01*
X102808975Y-80814844D01*
X102718790Y-80787486D01*
X102625000Y-80778249D01*
X102225000Y-80778249D01*
X102131210Y-80787486D01*
X102041025Y-80814844D01*
X101957909Y-80859270D01*
X101885058Y-80919058D01*
X101825270Y-80991909D01*
X101780844Y-81075025D01*
X101753486Y-81165210D01*
X101744249Y-81259000D01*
X101744249Y-81809000D01*
X101753486Y-81902790D01*
X101780844Y-81992975D01*
X101825270Y-82076091D01*
X101885058Y-82148942D01*
X101957909Y-82208730D01*
X102019001Y-82241384D01*
X102019000Y-82377249D01*
X102000000Y-82377249D01*
X101945228Y-82382644D01*
X101892561Y-82398620D01*
X101844023Y-82424564D01*
X101801479Y-82459479D01*
X101766564Y-82502023D01*
X101740620Y-82550561D01*
X101724644Y-82603228D01*
X101719249Y-82658000D01*
X101480752Y-82658000D01*
X101475357Y-82603228D01*
X101459381Y-82550561D01*
X101433437Y-82502023D01*
X101398522Y-82459478D01*
X101355977Y-82424563D01*
X101307439Y-82398619D01*
X101254772Y-82382643D01*
X101200000Y-82377248D01*
X100895250Y-82378600D01*
X100825400Y-82448450D01*
X100774600Y-82448450D01*
X100704750Y-82378600D01*
X100400000Y-82377248D01*
X100345228Y-82382643D01*
X100292561Y-82398619D01*
X100244023Y-82424563D01*
X100201478Y-82459478D01*
X100166563Y-82502023D01*
X100140619Y-82550561D01*
X100124643Y-82603228D01*
X100119248Y-82658000D01*
X97023000Y-82658000D01*
X97023000Y-80276751D01*
X97142000Y-80276751D01*
X97196772Y-80271356D01*
X97249439Y-80255380D01*
X97297977Y-80229436D01*
X97340521Y-80194521D01*
X97375436Y-80151977D01*
X97401380Y-80103439D01*
X97412689Y-80066158D01*
X97414514Y-80084688D01*
X97436299Y-80156507D01*
X97471678Y-80222696D01*
X97498867Y-80255825D01*
X97519290Y-80280711D01*
X97533827Y-80292641D01*
X98734600Y-81493415D01*
X98734600Y-81591066D01*
X98756866Y-81703005D01*
X98800543Y-81808449D01*
X98863951Y-81903346D01*
X98944654Y-81984049D01*
X99039551Y-82047457D01*
X99144995Y-82091134D01*
X99256934Y-82113400D01*
X99371066Y-82113400D01*
X99483005Y-82091134D01*
X99588449Y-82047457D01*
X99683346Y-81984049D01*
X99764049Y-81903346D01*
X99827457Y-81808449D01*
X99871134Y-81703005D01*
X99893400Y-81591066D01*
X99893400Y-81476934D01*
X99871134Y-81364995D01*
X99827457Y-81259551D01*
X99764049Y-81164654D01*
X99683346Y-81083951D01*
X99588449Y-81020543D01*
X99483005Y-80976866D01*
X99371066Y-80954600D01*
X99273415Y-80954600D01*
X98171000Y-79852186D01*
X98171000Y-77742702D01*
X98172842Y-77723999D01*
X98171000Y-77705296D01*
X98171000Y-77705287D01*
X98165487Y-77649311D01*
X98143701Y-77577492D01*
X98108323Y-77511305D01*
X98108322Y-77511303D01*
X98081407Y-77478508D01*
X98060711Y-77453289D01*
X98046175Y-77441360D01*
X97771751Y-77166936D01*
X97771751Y-76757064D01*
X98046176Y-76482639D01*
X98060711Y-76470711D01*
X98084519Y-76441701D01*
X98105082Y-76416645D01*
X98143270Y-76488091D01*
X98203058Y-76560942D01*
X98275909Y-76620730D01*
X98359025Y-76665156D01*
X98362001Y-76666059D01*
X98362000Y-78618605D01*
X98355951Y-78624654D01*
X98292543Y-78719551D01*
X98248866Y-78824995D01*
X98226600Y-78936934D01*
X98226600Y-79051066D01*
X98248866Y-79163005D01*
X98292543Y-79268449D01*
X98355951Y-79363346D01*
X98436654Y-79444049D01*
X98531551Y-79507457D01*
X98636995Y-79551134D01*
X98748934Y-79573400D01*
X98863066Y-79573400D01*
X98975005Y-79551134D01*
X99080449Y-79507457D01*
X99175346Y-79444049D01*
X99256049Y-79363346D01*
X99319457Y-79268449D01*
X99363134Y-79163005D01*
X99385400Y-79051066D01*
X99385400Y-78936934D01*
X99363134Y-78824995D01*
X99319457Y-78719551D01*
X99256049Y-78624654D01*
X99175346Y-78543951D01*
X99124000Y-78509643D01*
X99124000Y-76666058D01*
X99126975Y-76665156D01*
X99210091Y-76620730D01*
X99282942Y-76560942D01*
X99342730Y-76488091D01*
X99387156Y-76404975D01*
X99414514Y-76314790D01*
X99423751Y-76221000D01*
X99423751Y-75671000D01*
X99414514Y-75577210D01*
X99387156Y-75487025D01*
X99342730Y-75403909D01*
X99282942Y-75331058D01*
X99210091Y-75271270D01*
X99126975Y-75226844D01*
X99036790Y-75199486D01*
X98943000Y-75190249D01*
X98543000Y-75190249D01*
X98449210Y-75199486D01*
X98359025Y-75226844D01*
X98275909Y-75271270D01*
X98203058Y-75331058D01*
X98171000Y-75370120D01*
X98171000Y-75278814D01*
X98527582Y-74922233D01*
X98543000Y-74923751D01*
X98943000Y-74923751D01*
X99036790Y-74914514D01*
X99126975Y-74887156D01*
X99210091Y-74842730D01*
X99282942Y-74782942D01*
X99342730Y-74710091D01*
X99387156Y-74626975D01*
X99414514Y-74536790D01*
X99423751Y-74443000D01*
X99423751Y-73893000D01*
X99419722Y-73852092D01*
X100126064Y-73145751D01*
X100568000Y-73145751D01*
X100666667Y-73136033D01*
X100761543Y-73107253D01*
X100848980Y-73060517D01*
X100925620Y-72997620D01*
X100970382Y-72943078D01*
X101030093Y-73002789D01*
X101042866Y-73067005D01*
X101086543Y-73172449D01*
X101149951Y-73267346D01*
X101230654Y-73348049D01*
X101325551Y-73411457D01*
X101430995Y-73455134D01*
X101495209Y-73467907D01*
X101701481Y-73674179D01*
X101713407Y-73688711D01*
X101727939Y-73700637D01*
X101727942Y-73700640D01*
X101747958Y-73717066D01*
X101771422Y-73736322D01*
X101837610Y-73771701D01*
X101872310Y-73782227D01*
X101871249Y-73793000D01*
X101871249Y-74043000D01*
X101876644Y-74097772D01*
X101892620Y-74150439D01*
X101902006Y-74167999D01*
X101892619Y-74185561D01*
X101876643Y-74238228D01*
X101871248Y-74293000D01*
X101872600Y-74322750D01*
X101942450Y-74392600D01*
X102476600Y-74392600D01*
X102476600Y-74372600D01*
X102527400Y-74372600D01*
X102527400Y-74392600D01*
X102547400Y-74392600D01*
X102547400Y-74443400D01*
X102527400Y-74443400D01*
X102527400Y-74463400D01*
X102476600Y-74463400D01*
X102476600Y-74443400D01*
X101942450Y-74443400D01*
X101872600Y-74513250D01*
X101871521Y-74537000D01*
X101300815Y-74537000D01*
X101073751Y-74309936D01*
X101073751Y-73893000D01*
X101064514Y-73799210D01*
X101037156Y-73709025D01*
X100992730Y-73625909D01*
X100932942Y-73553058D01*
X100860091Y-73493270D01*
X100776975Y-73448844D01*
X100686790Y-73421486D01*
X100593000Y-73412249D01*
X100193000Y-73412249D01*
X100099210Y-73421486D01*
X100009025Y-73448844D01*
X99925909Y-73493270D01*
X99853058Y-73553058D01*
X99793270Y-73625909D01*
X99748844Y-73709025D01*
X99721486Y-73799210D01*
X99712249Y-73893000D01*
X99712249Y-74443000D01*
X99721486Y-74536790D01*
X99748844Y-74626975D01*
X99793270Y-74710091D01*
X99853058Y-74782942D01*
X99925909Y-74842730D01*
X100009025Y-74887156D01*
X100099210Y-74914514D01*
X100193000Y-74923751D01*
X100593000Y-74923751D01*
X100608418Y-74922233D01*
X100860359Y-75174174D01*
X100872289Y-75188711D01*
X100891464Y-75204447D01*
X100930303Y-75236322D01*
X100970169Y-75257631D01*
X100996492Y-75271701D01*
X101068311Y-75293487D01*
X101124287Y-75299000D01*
X101124289Y-75299000D01*
X101142999Y-75300843D01*
X101161709Y-75299000D01*
X101200185Y-75299000D01*
X101028449Y-75470736D01*
X100992730Y-75403909D01*
X100932942Y-75331058D01*
X100860091Y-75271270D01*
X100776975Y-75226844D01*
X100686790Y-75199486D01*
X100593000Y-75190249D01*
X100193000Y-75190249D01*
X100099210Y-75199486D01*
X100009025Y-75226844D01*
X99925909Y-75271270D01*
X99853058Y-75331058D01*
X99793270Y-75403909D01*
X99748844Y-75487025D01*
X99721486Y-75577210D01*
X99712249Y-75671000D01*
X99712249Y-76221000D01*
X99721486Y-76314790D01*
X99748844Y-76404975D01*
X99793270Y-76488091D01*
X99853058Y-76560942D01*
X99925909Y-76620730D01*
X99949001Y-76633073D01*
X99949000Y-77031605D01*
X99879951Y-77100654D01*
X99816543Y-77195551D01*
X99772866Y-77300995D01*
X99750600Y-77412934D01*
X99750600Y-77527066D01*
X99772866Y-77639005D01*
X99816543Y-77744449D01*
X99879951Y-77839346D01*
X99960654Y-77920049D01*
X100055551Y-77983457D01*
X100160995Y-78027134D01*
X100272934Y-78049400D01*
X100387066Y-78049400D01*
X100499005Y-78027134D01*
X100604449Y-77983457D01*
X100699346Y-77920049D01*
X100780049Y-77839346D01*
X100843457Y-77744449D01*
X100887134Y-77639005D01*
X100909400Y-77527066D01*
X100909400Y-77412934D01*
X100887134Y-77300995D01*
X100843457Y-77195551D01*
X100780049Y-77100654D01*
X100711000Y-77031605D01*
X100711000Y-76685170D01*
X100776975Y-76665156D01*
X100860091Y-76620730D01*
X100932942Y-76560942D01*
X100965000Y-76521880D01*
X100965001Y-79344184D01*
X100518832Y-79790354D01*
X100504289Y-79802289D01*
X100472666Y-79840823D01*
X100456678Y-79860304D01*
X100443562Y-79884843D01*
X100421299Y-79926493D01*
X100399513Y-79998312D01*
X100394000Y-80054287D01*
X100392157Y-80073000D01*
X100394000Y-80091710D01*
X100394001Y-80813941D01*
X100391025Y-80814844D01*
X100307909Y-80859270D01*
X100235058Y-80919058D01*
X100175270Y-80991909D01*
X100130844Y-81075025D01*
X100103486Y-81165210D01*
X100094249Y-81259000D01*
X100094249Y-81809000D01*
X100103486Y-81902790D01*
X100130844Y-81992975D01*
X100175270Y-82076091D01*
X100235058Y-82148942D01*
X100307909Y-82208730D01*
X100391025Y-82253156D01*
X100481210Y-82280514D01*
X100575000Y-82289751D01*
X100975000Y-82289751D01*
X101068790Y-82280514D01*
X101158975Y-82253156D01*
X101242091Y-82208730D01*
X101314942Y-82148942D01*
X101374730Y-82076091D01*
X101419156Y-81992975D01*
X101446514Y-81902790D01*
X101455751Y-81809000D01*
X101455751Y-81259000D01*
X101446514Y-81165210D01*
X101419156Y-81075025D01*
X101374730Y-80991909D01*
X101314942Y-80919058D01*
X101242091Y-80859270D01*
X101158975Y-80814844D01*
X101156000Y-80813942D01*
X101156000Y-80230814D01*
X101602174Y-79784641D01*
X101616711Y-79772711D01*
X101647682Y-79734972D01*
X101664322Y-79714697D01*
X101699701Y-79648508D01*
X101703946Y-79634514D01*
X101721487Y-79576689D01*
X101727000Y-79520713D01*
X101727000Y-79520710D01*
X101728843Y-79502000D01*
X101727000Y-79483290D01*
X101727000Y-76611814D01*
X102039265Y-76299549D01*
X102044561Y-76302380D01*
X102097228Y-76318356D01*
X102152000Y-76323751D01*
X102746249Y-76323751D01*
X102746249Y-76918000D01*
X102751644Y-76972772D01*
X102764051Y-77013672D01*
X102754654Y-77019951D01*
X102673951Y-77100654D01*
X102610543Y-77195551D01*
X102566866Y-77300995D01*
X102544600Y-77412934D01*
X102544600Y-77527066D01*
X102566866Y-77639005D01*
X102610543Y-77744449D01*
X102673951Y-77839346D01*
X102754654Y-77920049D01*
X102849551Y-77983457D01*
X102954995Y-78027134D01*
X103066934Y-78049400D01*
X103181066Y-78049400D01*
X103219868Y-78041682D01*
X103639767Y-78461582D01*
X103638249Y-78477000D01*
X103638249Y-78877000D01*
X103647486Y-78970790D01*
X103674844Y-79060975D01*
X103719270Y-79144091D01*
X103779058Y-79216942D01*
X103851909Y-79276730D01*
X103935025Y-79321156D01*
X104025210Y-79348514D01*
X104119000Y-79357751D01*
X104669000Y-79357751D01*
X104762790Y-79348514D01*
X104852975Y-79321156D01*
X104936091Y-79276730D01*
X105008942Y-79216942D01*
X105068730Y-79144091D01*
X105113156Y-79060975D01*
X105140514Y-78970790D01*
X105149751Y-78877000D01*
X105149751Y-78477000D01*
X105140514Y-78383210D01*
X105114059Y-78296000D01*
X105777248Y-78296000D01*
X105778600Y-79050750D01*
X105848450Y-79120600D01*
X106532600Y-79120600D01*
X106532600Y-78086450D01*
X106583400Y-78086450D01*
X106583400Y-79120600D01*
X107267550Y-79120600D01*
X107337400Y-79050750D01*
X107338752Y-78296000D01*
X107333357Y-78241228D01*
X107317381Y-78188561D01*
X107291437Y-78140023D01*
X107256522Y-78097478D01*
X107213977Y-78062563D01*
X107165439Y-78036619D01*
X107112772Y-78020643D01*
X107058000Y-78015248D01*
X106653250Y-78016600D01*
X106583400Y-78086450D01*
X106532600Y-78086450D01*
X106462750Y-78016600D01*
X106058000Y-78015248D01*
X106003228Y-78020643D01*
X105950561Y-78036619D01*
X105902023Y-78062563D01*
X105859478Y-78097478D01*
X105824563Y-78140023D01*
X105798619Y-78188561D01*
X105782643Y-78241228D01*
X105777248Y-78296000D01*
X105114059Y-78296000D01*
X105113156Y-78293025D01*
X105068730Y-78209909D01*
X105008942Y-78137058D01*
X104936091Y-78077270D01*
X104852975Y-78032844D01*
X104762790Y-78005486D01*
X104669000Y-77996249D01*
X104252064Y-77996249D01*
X103703400Y-77447586D01*
X103703400Y-77412934D01*
X103681134Y-77300995D01*
X103638783Y-77198751D01*
X103777000Y-77198751D01*
X103831772Y-77193356D01*
X103884439Y-77177380D01*
X103902000Y-77167993D01*
X103919561Y-77177380D01*
X103972228Y-77193356D01*
X104027000Y-77198751D01*
X104277000Y-77198751D01*
X104331772Y-77193356D01*
X104384439Y-77177380D01*
X104402000Y-77167993D01*
X104419561Y-77177380D01*
X104472228Y-77193356D01*
X104527000Y-77198751D01*
X104777000Y-77198751D01*
X104831772Y-77193356D01*
X104884439Y-77177380D01*
X104902000Y-77167993D01*
X104919561Y-77177380D01*
X104972228Y-77193356D01*
X105027000Y-77198751D01*
X105277000Y-77198751D01*
X105331772Y-77193356D01*
X105384439Y-77177380D01*
X105402000Y-77167993D01*
X105419561Y-77177380D01*
X105472228Y-77193356D01*
X105527000Y-77198751D01*
X105777000Y-77198751D01*
X105831772Y-77193356D01*
X105884439Y-77177380D01*
X105902000Y-77167993D01*
X105919561Y-77177380D01*
X105972228Y-77193356D01*
X106027000Y-77198751D01*
X106277000Y-77198751D01*
X106331772Y-77193356D01*
X106363959Y-77183592D01*
X106381290Y-77204711D01*
X106395827Y-77216641D01*
X108581359Y-79402174D01*
X108593289Y-79416711D01*
X108607824Y-79428639D01*
X108651303Y-79464322D01*
X108674359Y-79476645D01*
X108717492Y-79499701D01*
X108789311Y-79521487D01*
X108845287Y-79527000D01*
X108845296Y-79527000D01*
X108863999Y-79528842D01*
X108882702Y-79527000D01*
X109577249Y-79527000D01*
X109577249Y-79946000D01*
X107338662Y-79946000D01*
X107337400Y-79241250D01*
X107267550Y-79171400D01*
X106583400Y-79171400D01*
X106583400Y-79191400D01*
X106532600Y-79191400D01*
X106532600Y-79171400D01*
X105848450Y-79171400D01*
X105778600Y-79241250D01*
X105777338Y-79946000D01*
X105114058Y-79946000D01*
X105113156Y-79943025D01*
X105068730Y-79859909D01*
X105008942Y-79787058D01*
X104936091Y-79727270D01*
X104852975Y-79682844D01*
X104762790Y-79655486D01*
X104669000Y-79646249D01*
X104119000Y-79646249D01*
X104025210Y-79655486D01*
X103935025Y-79682844D01*
X103851909Y-79727270D01*
X103779058Y-79787058D01*
X103719270Y-79859909D01*
X103674844Y-79943025D01*
X103647486Y-80033210D01*
X103638249Y-80127000D01*
X103638249Y-80527000D01*
X103647486Y-80620790D01*
X103674844Y-80710975D01*
X103719270Y-80794091D01*
X103779058Y-80866942D01*
X103851909Y-80926730D01*
X103935025Y-80971156D01*
X104025210Y-80998514D01*
X104119000Y-81007751D01*
X104669000Y-81007751D01*
X104762790Y-80998514D01*
X104852975Y-80971156D01*
X104936091Y-80926730D01*
X105008942Y-80866942D01*
X105068730Y-80794091D01*
X105113156Y-80710975D01*
X105114058Y-80708000D01*
X109977001Y-80708000D01*
X109977000Y-84315249D01*
X109858000Y-84315249D01*
X109803228Y-84320644D01*
X109750561Y-84336620D01*
X109702023Y-84362564D01*
X109659479Y-84397479D01*
X109624564Y-84440023D01*
X109598620Y-84488561D01*
X109582644Y-84541228D01*
X109577249Y-84596000D01*
X109577249Y-86296000D01*
X109582644Y-86350772D01*
X109598620Y-86403439D01*
X109624564Y-86451977D01*
X109659479Y-86494521D01*
X109702023Y-86529436D01*
X109750561Y-86555380D01*
X109803228Y-86571356D01*
X109858000Y-86576751D01*
X110858000Y-86576751D01*
X110912772Y-86571356D01*
X110965439Y-86555380D01*
X111013977Y-86529436D01*
X111056521Y-86494521D01*
X111091436Y-86451977D01*
X111117380Y-86403439D01*
X111133356Y-86350772D01*
X111138751Y-86296000D01*
X111138751Y-84596000D01*
X111133356Y-84541228D01*
X111117380Y-84488561D01*
X111091436Y-84440023D01*
X111056521Y-84397479D01*
X111013977Y-84362564D01*
X110965439Y-84336620D01*
X110912772Y-84320644D01*
X110858000Y-84315249D01*
X110739000Y-84315249D01*
X110739000Y-80530710D01*
X110740843Y-80512000D01*
X110737696Y-80480049D01*
X110733487Y-80437311D01*
X110711701Y-80365492D01*
X110691126Y-80327000D01*
X110711701Y-80288508D01*
X110715267Y-80276751D01*
X110858000Y-80276751D01*
X110912772Y-80271356D01*
X110965439Y-80255380D01*
X111013977Y-80229436D01*
X111056521Y-80194521D01*
X111091436Y-80151977D01*
X111117380Y-80103439D01*
X111133356Y-80050772D01*
X111138751Y-79996000D01*
X111138751Y-78296000D01*
X111133356Y-78241228D01*
X111117380Y-78188561D01*
X111091436Y-78140023D01*
X111056521Y-78097479D01*
X111013977Y-78062564D01*
X111010585Y-78060751D01*
X111110000Y-78060751D01*
X111192084Y-78052666D01*
X111271014Y-78028723D01*
X111343757Y-77989842D01*
X111407516Y-77937516D01*
X111459842Y-77873757D01*
X111498723Y-77801014D01*
X111522666Y-77722084D01*
X111530751Y-77640000D01*
X111530751Y-77569870D01*
X111599138Y-77734972D01*
X111722737Y-77919951D01*
X111880049Y-78077263D01*
X112063738Y-78200000D01*
X111880049Y-78322737D01*
X111722737Y-78480049D01*
X111599138Y-78665028D01*
X111514002Y-78870566D01*
X111470600Y-79088764D01*
X111470600Y-79311236D01*
X111514002Y-79529434D01*
X111599138Y-79734972D01*
X111722737Y-79919951D01*
X111880049Y-80077263D01*
X112063738Y-80200000D01*
X111880049Y-80322737D01*
X111722737Y-80480049D01*
X111599138Y-80665028D01*
X111514002Y-80870566D01*
X111470600Y-81088764D01*
X111470600Y-81311236D01*
X111514002Y-81529434D01*
X111599138Y-81734972D01*
X111722737Y-81919951D01*
X111880049Y-82077263D01*
X112063738Y-82200000D01*
X111880049Y-82322737D01*
X111722737Y-82480049D01*
X111599138Y-82665028D01*
X111514002Y-82870566D01*
X111470600Y-83088764D01*
X111470600Y-83311236D01*
X111514002Y-83529434D01*
X111599138Y-83734972D01*
X111722737Y-83919951D01*
X111880049Y-84077263D01*
X112063738Y-84200000D01*
X111880049Y-84322737D01*
X111722737Y-84480049D01*
X111599138Y-84665028D01*
X111514002Y-84870566D01*
X111470600Y-85088764D01*
X111470600Y-85311236D01*
X111514002Y-85529434D01*
X111599138Y-85734972D01*
X111722737Y-85919951D01*
X111880049Y-86077263D01*
X112065028Y-86200862D01*
X112270566Y-86285998D01*
X112488764Y-86329400D01*
X112711236Y-86329400D01*
X112929434Y-86285998D01*
X113134972Y-86200862D01*
X113319951Y-86077263D01*
X113477263Y-85919951D01*
X113600862Y-85734972D01*
X113685998Y-85529434D01*
X113729400Y-85311236D01*
X113729400Y-85088764D01*
X113685998Y-84870566D01*
X113600862Y-84665028D01*
X113477263Y-84480049D01*
X113319951Y-84322737D01*
X113136262Y-84200000D01*
X113319951Y-84077263D01*
X113477263Y-83919951D01*
X113600862Y-83734972D01*
X113685998Y-83529434D01*
X113729400Y-83311236D01*
X113729400Y-83088764D01*
X113685998Y-82870566D01*
X113600862Y-82665028D01*
X113477263Y-82480049D01*
X113319951Y-82322737D01*
X113136262Y-82200000D01*
X113319951Y-82077263D01*
X113477263Y-81919951D01*
X113600862Y-81734972D01*
X113685998Y-81529434D01*
X113729400Y-81311236D01*
X113729400Y-81088764D01*
X113685998Y-80870566D01*
X113600862Y-80665028D01*
X113477263Y-80480049D01*
X113319951Y-80322737D01*
X113136262Y-80200000D01*
X113319951Y-80077263D01*
X113477263Y-79919951D01*
X113600862Y-79734972D01*
X113685998Y-79529434D01*
X113729400Y-79311236D01*
X113729400Y-79088764D01*
X113685998Y-78870566D01*
X113600862Y-78665028D01*
X113477263Y-78480049D01*
X113319951Y-78322737D01*
X113136262Y-78200000D01*
X113319951Y-78077263D01*
X113477263Y-77919951D01*
X113600862Y-77734972D01*
X113685998Y-77529434D01*
X113729400Y-77311236D01*
X113729400Y-77088764D01*
X113685998Y-76870566D01*
X113600862Y-76665028D01*
X113477263Y-76480049D01*
X113319951Y-76322737D01*
X113136262Y-76200000D01*
X113319951Y-76077263D01*
X113477263Y-75919951D01*
X113600862Y-75734972D01*
X113685998Y-75529434D01*
X113729400Y-75311236D01*
X113729400Y-75088764D01*
X113685998Y-74870566D01*
X113600862Y-74665028D01*
X113477263Y-74480049D01*
X113319951Y-74322737D01*
X113136262Y-74200000D01*
X113319951Y-74077263D01*
X113477263Y-73919951D01*
X113600862Y-73734972D01*
X113685998Y-73529434D01*
X113729400Y-73311236D01*
X113729400Y-73088764D01*
X113685998Y-72870566D01*
X113600862Y-72665028D01*
X113477263Y-72480049D01*
X113319951Y-72322737D01*
X113136262Y-72200000D01*
X113319951Y-72077263D01*
X113477263Y-71919951D01*
X113600862Y-71734972D01*
X113685998Y-71529434D01*
X113729400Y-71311236D01*
X113729400Y-71088764D01*
X113685998Y-70870566D01*
X113600862Y-70665028D01*
X113477263Y-70480049D01*
X113319951Y-70322737D01*
X113136262Y-70200000D01*
X113319951Y-70077263D01*
X113477263Y-69919951D01*
X113600862Y-69734972D01*
X113685998Y-69529434D01*
X113729400Y-69311236D01*
X113729400Y-69088764D01*
X113685998Y-68870566D01*
X113600862Y-68665028D01*
X113477263Y-68480049D01*
X113319951Y-68322737D01*
X113136262Y-68200000D01*
X113213786Y-68148200D01*
X113741601Y-68148200D01*
X113741600Y-86817600D01*
X89458400Y-86817600D01*
X89458400Y-85970826D01*
X89865095Y-85970826D01*
X89953659Y-86132825D01*
X90148063Y-86240996D01*
X90359835Y-86309162D01*
X90580837Y-86334703D01*
X90802575Y-86316639D01*
X90874993Y-86296000D01*
X92061248Y-86296000D01*
X92066643Y-86350772D01*
X92082619Y-86403439D01*
X92108563Y-86451977D01*
X92143478Y-86494522D01*
X92186023Y-86529437D01*
X92234561Y-86555381D01*
X92287228Y-86571357D01*
X92342000Y-86576752D01*
X92746750Y-86575400D01*
X92816600Y-86505550D01*
X92816600Y-85471400D01*
X92867400Y-85471400D01*
X92867400Y-86505550D01*
X92937250Y-86575400D01*
X93342000Y-86576752D01*
X93396772Y-86571357D01*
X93449439Y-86555381D01*
X93497977Y-86529437D01*
X93540522Y-86494522D01*
X93575437Y-86451977D01*
X93601381Y-86403439D01*
X93617357Y-86350772D01*
X93622752Y-86296000D01*
X93621400Y-85541250D01*
X93551550Y-85471400D01*
X92867400Y-85471400D01*
X92816600Y-85471400D01*
X92132450Y-85471400D01*
X92062600Y-85541250D01*
X92061248Y-86296000D01*
X90874993Y-86296000D01*
X91016528Y-86255663D01*
X91214474Y-86154118D01*
X91246341Y-86132825D01*
X91334905Y-85970826D01*
X90600000Y-85235921D01*
X89865095Y-85970826D01*
X89458400Y-85970826D01*
X89458400Y-85180837D01*
X89465297Y-85180837D01*
X89483361Y-85402575D01*
X89544337Y-85616528D01*
X89645882Y-85814474D01*
X89667175Y-85846341D01*
X89829174Y-85934905D01*
X90564079Y-85200000D01*
X90635921Y-85200000D01*
X91370826Y-85934905D01*
X91532825Y-85846341D01*
X91640996Y-85651937D01*
X91709162Y-85440165D01*
X91734703Y-85219163D01*
X91716639Y-84997425D01*
X91655663Y-84783472D01*
X91559492Y-84596000D01*
X92061248Y-84596000D01*
X92062600Y-85350750D01*
X92132450Y-85420600D01*
X92816600Y-85420600D01*
X92816600Y-84386450D01*
X92867400Y-84386450D01*
X92867400Y-85420600D01*
X93551550Y-85420600D01*
X93621400Y-85350750D01*
X93622752Y-84596000D01*
X93617357Y-84541228D01*
X93601381Y-84488561D01*
X93575437Y-84440023D01*
X93540522Y-84397478D01*
X93497977Y-84362563D01*
X93449439Y-84336619D01*
X93396772Y-84320643D01*
X93342000Y-84315248D01*
X92937250Y-84316600D01*
X92867400Y-84386450D01*
X92816600Y-84386450D01*
X92746750Y-84316600D01*
X92342000Y-84315248D01*
X92287228Y-84320643D01*
X92234561Y-84336619D01*
X92186023Y-84362563D01*
X92143478Y-84397478D01*
X92108563Y-84440023D01*
X92082619Y-84488561D01*
X92066643Y-84541228D01*
X92061248Y-84596000D01*
X91559492Y-84596000D01*
X91554118Y-84585526D01*
X91532825Y-84553659D01*
X91370826Y-84465095D01*
X90635921Y-85200000D01*
X90564079Y-85200000D01*
X89829174Y-84465095D01*
X89667175Y-84553659D01*
X89559004Y-84748063D01*
X89490838Y-84959835D01*
X89465297Y-85180837D01*
X89458400Y-85180837D01*
X89458400Y-68148200D01*
X89986214Y-68148200D01*
X90063738Y-68200000D01*
%TA.AperFunction,Conductor*%
D27*
G36*
X90063738Y-68200000D02*
G01*
X89880049Y-68322737D01*
X89722737Y-68480049D01*
X89599138Y-68665028D01*
X89514002Y-68870566D01*
X89470600Y-69088764D01*
X89470600Y-69311236D01*
X89514002Y-69529434D01*
X89599138Y-69734972D01*
X89722737Y-69919951D01*
X89880049Y-70077263D01*
X90063738Y-70200000D01*
X89880049Y-70322737D01*
X89722737Y-70480049D01*
X89599138Y-70665028D01*
X89514002Y-70870566D01*
X89470600Y-71088764D01*
X89470600Y-71311236D01*
X89514002Y-71529434D01*
X89599138Y-71734972D01*
X89722737Y-71919951D01*
X89880049Y-72077263D01*
X90063738Y-72200000D01*
X89880049Y-72322737D01*
X89722737Y-72480049D01*
X89599138Y-72665028D01*
X89514002Y-72870566D01*
X89470600Y-73088764D01*
X89470600Y-73311236D01*
X89514002Y-73529434D01*
X89599138Y-73734972D01*
X89722737Y-73919951D01*
X89880049Y-74077263D01*
X90063738Y-74200000D01*
X89880049Y-74322737D01*
X89722737Y-74480049D01*
X89599138Y-74665028D01*
X89514002Y-74870566D01*
X89470600Y-75088764D01*
X89470600Y-75311236D01*
X89514002Y-75529434D01*
X89599138Y-75734972D01*
X89722737Y-75919951D01*
X89880049Y-76077263D01*
X90063738Y-76200000D01*
X89880049Y-76322737D01*
X89722737Y-76480049D01*
X89599138Y-76665028D01*
X89514002Y-76870566D01*
X89470600Y-77088764D01*
X89470600Y-77311236D01*
X89514002Y-77529434D01*
X89599138Y-77734972D01*
X89722737Y-77919951D01*
X89880049Y-78077263D01*
X90063738Y-78200000D01*
X89880049Y-78322737D01*
X89722737Y-78480049D01*
X89599138Y-78665028D01*
X89514002Y-78870566D01*
X89470600Y-79088764D01*
X89470600Y-79311236D01*
X89514002Y-79529434D01*
X89599138Y-79734972D01*
X89722737Y-79919951D01*
X89880049Y-80077263D01*
X90063738Y-80200000D01*
X89880049Y-80322737D01*
X89722737Y-80480049D01*
X89599138Y-80665028D01*
X89514002Y-80870566D01*
X89470600Y-81088764D01*
X89470600Y-81311236D01*
X89514002Y-81529434D01*
X89599138Y-81734972D01*
X89722737Y-81919951D01*
X89880049Y-82077263D01*
X90063738Y-82200000D01*
X89880049Y-82322737D01*
X89722737Y-82480049D01*
X89599138Y-82665028D01*
X89514002Y-82870566D01*
X89470600Y-83088764D01*
X89470600Y-83311236D01*
X89514002Y-83529434D01*
X89599138Y-83734972D01*
X89722737Y-83919951D01*
X89880049Y-84077263D01*
X90065028Y-84200862D01*
X90069597Y-84202754D01*
X89985526Y-84245882D01*
X89953659Y-84267175D01*
X89865095Y-84429174D01*
X90600000Y-85164079D01*
X91334905Y-84429174D01*
X91246341Y-84267175D01*
X91130496Y-84202716D01*
X91134972Y-84200862D01*
X91319951Y-84077263D01*
X91477263Y-83919951D01*
X91600862Y-83734972D01*
X91685998Y-83529434D01*
X91729400Y-83311236D01*
X91729400Y-83088764D01*
X91685998Y-82870566D01*
X91600862Y-82665028D01*
X91477263Y-82480049D01*
X91319951Y-82322737D01*
X91136262Y-82200000D01*
X91319951Y-82077263D01*
X91477263Y-81919951D01*
X91600862Y-81734972D01*
X91685998Y-81529434D01*
X91729400Y-81311236D01*
X91729400Y-81088764D01*
X91685998Y-80870566D01*
X91600862Y-80665028D01*
X91477263Y-80480049D01*
X91319951Y-80322737D01*
X91136262Y-80200000D01*
X91319951Y-80077263D01*
X91401214Y-79996000D01*
X92061248Y-79996000D01*
X92066643Y-80050772D01*
X92082619Y-80103439D01*
X92108563Y-80151977D01*
X92143478Y-80194522D01*
X92186023Y-80229437D01*
X92234561Y-80255381D01*
X92287228Y-80271357D01*
X92342000Y-80276752D01*
X92746750Y-80275400D01*
X92816600Y-80205550D01*
X92816600Y-79171400D01*
X92867400Y-79171400D01*
X92867400Y-80205550D01*
X92937250Y-80275400D01*
X93342000Y-80276752D01*
X93396772Y-80271357D01*
X93449439Y-80255381D01*
X93497977Y-80229437D01*
X93540522Y-80194522D01*
X93575437Y-80151977D01*
X93601381Y-80103439D01*
X93617357Y-80050772D01*
X93622752Y-79996000D01*
X93621400Y-79241250D01*
X93551550Y-79171400D01*
X92867400Y-79171400D01*
X92816600Y-79171400D01*
X92132450Y-79171400D01*
X92062600Y-79241250D01*
X92061248Y-79996000D01*
X91401214Y-79996000D01*
X91477263Y-79919951D01*
X91600862Y-79734972D01*
X91685998Y-79529434D01*
X91729400Y-79311236D01*
X91729400Y-79088764D01*
X91685998Y-78870566D01*
X91600862Y-78665028D01*
X91477263Y-78480049D01*
X91319951Y-78322737D01*
X91279937Y-78296000D01*
X92061248Y-78296000D01*
X92062600Y-79050750D01*
X92132450Y-79120600D01*
X92816600Y-79120600D01*
X92816600Y-78086450D01*
X92867400Y-78086450D01*
X92867400Y-79120600D01*
X93551550Y-79120600D01*
X93621400Y-79050750D01*
X93622752Y-78296000D01*
X93617357Y-78241228D01*
X93601381Y-78188561D01*
X93575437Y-78140023D01*
X93540522Y-78097478D01*
X93497977Y-78062563D01*
X93449439Y-78036619D01*
X93396772Y-78020643D01*
X93342000Y-78015248D01*
X92937250Y-78016600D01*
X92867400Y-78086450D01*
X92816600Y-78086450D01*
X92746750Y-78016600D01*
X92342000Y-78015248D01*
X92287228Y-78020643D01*
X92234561Y-78036619D01*
X92186023Y-78062563D01*
X92143478Y-78097478D01*
X92108563Y-78140023D01*
X92082619Y-78188561D01*
X92066643Y-78241228D01*
X92061248Y-78296000D01*
X91279937Y-78296000D01*
X91136262Y-78200000D01*
X91319951Y-78077263D01*
X91477263Y-77919951D01*
X91600862Y-77734972D01*
X91685998Y-77529434D01*
X91729400Y-77311236D01*
X91729400Y-77088764D01*
X91685998Y-76870566D01*
X91600862Y-76665028D01*
X91477263Y-76480049D01*
X91319951Y-76322737D01*
X91136262Y-76200000D01*
X91319951Y-76077263D01*
X91477263Y-75919951D01*
X91600862Y-75734972D01*
X91685998Y-75529434D01*
X91729400Y-75311236D01*
X91729400Y-75088764D01*
X91685998Y-74870566D01*
X91600862Y-74665028D01*
X91477263Y-74480049D01*
X91319951Y-74322737D01*
X91136262Y-74200000D01*
X91319951Y-74077263D01*
X91477263Y-73919951D01*
X91600862Y-73734972D01*
X91685998Y-73529434D01*
X91729400Y-73311236D01*
X91729400Y-73088764D01*
X91685998Y-72870566D01*
X91600862Y-72665028D01*
X91477263Y-72480049D01*
X91319951Y-72322737D01*
X91136262Y-72200000D01*
X91319951Y-72077263D01*
X91477263Y-71919951D01*
X91600862Y-71734972D01*
X91664639Y-71581000D01*
X94389043Y-71581000D01*
X94467551Y-71633457D01*
X94572995Y-71677134D01*
X94684934Y-71699400D01*
X94799066Y-71699400D01*
X94911005Y-71677134D01*
X95016449Y-71633457D01*
X95111346Y-71570049D01*
X95192049Y-71489346D01*
X95255457Y-71394449D01*
X95299134Y-71289005D01*
X95321400Y-71177066D01*
X95321400Y-71087000D01*
X98062248Y-71087000D01*
X98067643Y-71141772D01*
X98083619Y-71194439D01*
X98109563Y-71242977D01*
X98144478Y-71285522D01*
X98187023Y-71320437D01*
X98235561Y-71346381D01*
X98288228Y-71362357D01*
X98343000Y-71367752D01*
X98697750Y-71366400D01*
X98767600Y-71296550D01*
X98767600Y-70637400D01*
X98818400Y-70637400D01*
X98818400Y-71296550D01*
X98888250Y-71366400D01*
X99243000Y-71367752D01*
X99297772Y-71362357D01*
X99350439Y-71346381D01*
X99398977Y-71320437D01*
X99441522Y-71285522D01*
X99476437Y-71242977D01*
X99502381Y-71194439D01*
X99518357Y-71141772D01*
X99523752Y-71087000D01*
X99522400Y-70707250D01*
X99452550Y-70637400D01*
X98818400Y-70637400D01*
X98767600Y-70637400D01*
X98133450Y-70637400D01*
X98063600Y-70707250D01*
X98062248Y-71087000D01*
X95321400Y-71087000D01*
X95321400Y-71062934D01*
X95299134Y-70950995D01*
X95255457Y-70845551D01*
X95192049Y-70750654D01*
X95111346Y-70669951D01*
X95016449Y-70606543D01*
X94911005Y-70562866D01*
X94799066Y-70540600D01*
X94684934Y-70540600D01*
X94572995Y-70562866D01*
X94467551Y-70606543D01*
X94372654Y-70669951D01*
X94291951Y-70750654D01*
X94246284Y-70819000D01*
X91664639Y-70819000D01*
X91600862Y-70665028D01*
X91477263Y-70480049D01*
X91319951Y-70322737D01*
X91136262Y-70200000D01*
X91230548Y-70137000D01*
X98062248Y-70137000D01*
X98063600Y-70516750D01*
X98133450Y-70586600D01*
X98767600Y-70586600D01*
X98767600Y-69927450D01*
X98818400Y-69927450D01*
X98818400Y-70586600D01*
X99452550Y-70586600D01*
X99522400Y-70516750D01*
X99523752Y-70137000D01*
X99518357Y-70082228D01*
X99502381Y-70029561D01*
X99476437Y-69981023D01*
X99441522Y-69938478D01*
X99398977Y-69903563D01*
X99350439Y-69877619D01*
X99297772Y-69861643D01*
X99243000Y-69856248D01*
X98888250Y-69857600D01*
X98818400Y-69927450D01*
X98767600Y-69927450D01*
X98697750Y-69857600D01*
X98343000Y-69856248D01*
X98288228Y-69861643D01*
X98235561Y-69877619D01*
X98187023Y-69903563D01*
X98144478Y-69938478D01*
X98109563Y-69981023D01*
X98083619Y-70029561D01*
X98067643Y-70082228D01*
X98062248Y-70137000D01*
X91230548Y-70137000D01*
X91319951Y-70077263D01*
X91477263Y-69919951D01*
X91600862Y-69734972D01*
X91685998Y-69529434D01*
X91729400Y-69311236D01*
X91729400Y-69309000D01*
X98062248Y-69309000D01*
X98067643Y-69363772D01*
X98083619Y-69416439D01*
X98109563Y-69464977D01*
X98144478Y-69507522D01*
X98187023Y-69542437D01*
X98235561Y-69568381D01*
X98288228Y-69584357D01*
X98343000Y-69589752D01*
X98697750Y-69588400D01*
X98767600Y-69518550D01*
X98767600Y-68859400D01*
X98818400Y-68859400D01*
X98818400Y-69518550D01*
X98888250Y-69588400D01*
X99243000Y-69589752D01*
X99297772Y-69584357D01*
X99350439Y-69568381D01*
X99398977Y-69542437D01*
X99441522Y-69507522D01*
X99476437Y-69464977D01*
X99502381Y-69416439D01*
X99518357Y-69363772D01*
X99523752Y-69309000D01*
X99522400Y-68929250D01*
X99452550Y-68859400D01*
X98818400Y-68859400D01*
X98767600Y-68859400D01*
X98133450Y-68859400D01*
X98063600Y-68929250D01*
X98062248Y-69309000D01*
X91729400Y-69309000D01*
X91729400Y-69088764D01*
X91685998Y-68870566D01*
X91600862Y-68665028D01*
X91477263Y-68480049D01*
X91319951Y-68322737D01*
X91136262Y-68200000D01*
X91213786Y-68148200D01*
X98159439Y-68148200D01*
X98144478Y-68160478D01*
X98109563Y-68203023D01*
X98083619Y-68251561D01*
X98067643Y-68304228D01*
X98062248Y-68359000D01*
X98063600Y-68738750D01*
X98133450Y-68808600D01*
X98767600Y-68808600D01*
X98767600Y-68788600D01*
X98818400Y-68788600D01*
X98818400Y-68808600D01*
X99452550Y-68808600D01*
X99522400Y-68738750D01*
X99523752Y-68359000D01*
X99518357Y-68304228D01*
X99502381Y-68251561D01*
X99476437Y-68203023D01*
X99441522Y-68160478D01*
X99426561Y-68148200D01*
X99865613Y-68148200D01*
X99837020Y-68163483D01*
X99760380Y-68226380D01*
X99697483Y-68303020D01*
X99650747Y-68390457D01*
X99621967Y-68485333D01*
X99612249Y-68584000D01*
X99612249Y-69084000D01*
X99621967Y-69182667D01*
X99650747Y-69277543D01*
X99697483Y-69364980D01*
X99760380Y-69441620D01*
X99837020Y-69504517D01*
X99860083Y-69516844D01*
X99829543Y-69562551D01*
X99785866Y-69667995D01*
X99763600Y-69779934D01*
X99763600Y-69894066D01*
X99782012Y-69986627D01*
X99760380Y-70004380D01*
X99697483Y-70081020D01*
X99650747Y-70168457D01*
X99621967Y-70263333D01*
X99612249Y-70362000D01*
X99612249Y-70862000D01*
X99621967Y-70960667D01*
X99650747Y-71055543D01*
X99697483Y-71142980D01*
X99760380Y-71219620D01*
X99837020Y-71282517D01*
X99924457Y-71329253D01*
X99962000Y-71340641D01*
X99962000Y-71379713D01*
X99962001Y-71379723D01*
X99962001Y-71661358D01*
X99924457Y-71672747D01*
X99837020Y-71719483D01*
X99760380Y-71782380D01*
X99697483Y-71859020D01*
X99650747Y-71946457D01*
X99621967Y-72041333D01*
X99612249Y-72140000D01*
X99612249Y-72581936D01*
X99523062Y-72671124D01*
X99522400Y-72485250D01*
X99452550Y-72415400D01*
X98818400Y-72415400D01*
X98818400Y-73074550D01*
X98888250Y-73144400D01*
X99049172Y-73145013D01*
X98781937Y-73412249D01*
X98543000Y-73412249D01*
X98449210Y-73421486D01*
X98359025Y-73448844D01*
X98275909Y-73493270D01*
X98203058Y-73553058D01*
X98143270Y-73625909D01*
X98098844Y-73709025D01*
X98071486Y-73799210D01*
X98062249Y-73893000D01*
X98062249Y-74309936D01*
X97696343Y-74675843D01*
X97694344Y-74655553D01*
X97694344Y-74630991D01*
X97688949Y-74576219D01*
X97669827Y-74480086D01*
X97653852Y-74427420D01*
X97616343Y-74336864D01*
X97590398Y-74288324D01*
X97535942Y-74206825D01*
X97501027Y-74164281D01*
X97431719Y-74094973D01*
X97389175Y-74060058D01*
X97307676Y-74005602D01*
X97297000Y-73999896D01*
X97297000Y-72905714D01*
X97302449Y-72903457D01*
X97346248Y-72874191D01*
X97365067Y-72902356D01*
X97445770Y-72983059D01*
X97540667Y-73046467D01*
X97646111Y-73090144D01*
X97758050Y-73112410D01*
X97872182Y-73112410D01*
X97984121Y-73090144D01*
X98089565Y-73046467D01*
X98115991Y-73028810D01*
X98144478Y-73063522D01*
X98187023Y-73098437D01*
X98235561Y-73124381D01*
X98288228Y-73140357D01*
X98343000Y-73145752D01*
X98697750Y-73144400D01*
X98767600Y-73074550D01*
X98767600Y-72415400D01*
X98747600Y-72415400D01*
X98747600Y-72364600D01*
X98767600Y-72364600D01*
X98767600Y-71705450D01*
X98818400Y-71705450D01*
X98818400Y-72364600D01*
X99452550Y-72364600D01*
X99522400Y-72294750D01*
X99523752Y-71915000D01*
X99518357Y-71860228D01*
X99502381Y-71807561D01*
X99476437Y-71759023D01*
X99441522Y-71716478D01*
X99398977Y-71681563D01*
X99350439Y-71655619D01*
X99297772Y-71639643D01*
X99243000Y-71634248D01*
X98888250Y-71635600D01*
X98818400Y-71705450D01*
X98767600Y-71705450D01*
X98697750Y-71635600D01*
X98343000Y-71634248D01*
X98288228Y-71639643D01*
X98235561Y-71655619D01*
X98187023Y-71681563D01*
X98144478Y-71716478D01*
X98109563Y-71759023D01*
X98083619Y-71807561D01*
X98067643Y-71860228D01*
X98062248Y-71915000D01*
X98062580Y-72008375D01*
X97990523Y-71978528D01*
X97983302Y-71954723D01*
X97950507Y-71893369D01*
X97947923Y-71888534D01*
X97912240Y-71845055D01*
X97900312Y-71830520D01*
X97885774Y-71818589D01*
X97599414Y-71532230D01*
X97587480Y-71517688D01*
X97529465Y-71470077D01*
X97463277Y-71434698D01*
X97391458Y-71412912D01*
X97335482Y-71407399D01*
X97335479Y-71407399D01*
X97316769Y-71405556D01*
X97298059Y-71407399D01*
X96378311Y-71407399D01*
X96359601Y-71405556D01*
X96340891Y-71407399D01*
X96340888Y-71407399D01*
X96284912Y-71412912D01*
X96213093Y-71434698D01*
X96146904Y-71470077D01*
X96103425Y-71505759D01*
X96103422Y-71505762D01*
X96088890Y-71517688D01*
X96076964Y-71532220D01*
X95359831Y-72249355D01*
X95345289Y-72261289D01*
X95317829Y-72294750D01*
X95297678Y-72319304D01*
X95273785Y-72364005D01*
X95262299Y-72385493D01*
X95240513Y-72457312D01*
X95235000Y-72513287D01*
X95233157Y-72532000D01*
X95235000Y-72550710D01*
X95235001Y-73999895D01*
X95224324Y-74005602D01*
X95142825Y-74060058D01*
X95100281Y-74094973D01*
X95030973Y-74164281D01*
X94996058Y-74206825D01*
X94941602Y-74288324D01*
X94915657Y-74336864D01*
X94878148Y-74427420D01*
X94862173Y-74480086D01*
X94843051Y-74576219D01*
X94837656Y-74630991D01*
X94837656Y-74655553D01*
X94835248Y-74680000D01*
X94835248Y-75180000D01*
X94837656Y-75204447D01*
X94837656Y-75229009D01*
X94843051Y-75283781D01*
X94862173Y-75379914D01*
X94878148Y-75432580D01*
X94915657Y-75523136D01*
X94941602Y-75571676D01*
X94996058Y-75653175D01*
X95030973Y-75695719D01*
X95100281Y-75765027D01*
X95110880Y-75773725D01*
X95053951Y-75830654D01*
X94990543Y-75925551D01*
X94946866Y-76030995D01*
X94924600Y-76142934D01*
X94924600Y-76257066D01*
X94936685Y-76317820D01*
X94901058Y-76347058D01*
X94841270Y-76419909D01*
X94796844Y-76503025D01*
X94769486Y-76593210D01*
X94760249Y-76687000D01*
X94760249Y-77237000D01*
X94769486Y-77330790D01*
X94796844Y-77420975D01*
X94841270Y-77504091D01*
X94901058Y-77576942D01*
X94973909Y-77636730D01*
X95057025Y-77681156D01*
X95060001Y-77682059D01*
X95060001Y-77926280D01*
X95058157Y-77945000D01*
X95062574Y-77989842D01*
X95065514Y-78019689D01*
X95072122Y-78041474D01*
X95087299Y-78091507D01*
X95122678Y-78157696D01*
X95148009Y-78188561D01*
X95170290Y-78215711D01*
X95184827Y-78227641D01*
X95861249Y-78904064D01*
X95861249Y-79996000D01*
X95866644Y-80050772D01*
X95882620Y-80103439D01*
X95908564Y-80151977D01*
X95943479Y-80194521D01*
X95986023Y-80229436D01*
X96034561Y-80255380D01*
X96087228Y-80271356D01*
X96142000Y-80276751D01*
X96261000Y-80276751D01*
X96261001Y-84315249D01*
X96142000Y-84315249D01*
X96087228Y-84320644D01*
X96034561Y-84336620D01*
X95986023Y-84362564D01*
X95943479Y-84397479D01*
X95908564Y-84440023D01*
X95882620Y-84488561D01*
X95866644Y-84541228D01*
X95861249Y-84596000D01*
X95861249Y-86296000D01*
X95866644Y-86350772D01*
X95882620Y-86403439D01*
X95908564Y-86451977D01*
X95943479Y-86494521D01*
X95986023Y-86529436D01*
X96034561Y-86555380D01*
X96087228Y-86571356D01*
X96142000Y-86576751D01*
X97142000Y-86576751D01*
X97196772Y-86571356D01*
X97249439Y-86555380D01*
X97297977Y-86529436D01*
X97340521Y-86494521D01*
X97375436Y-86451977D01*
X97401380Y-86403439D01*
X97417356Y-86350772D01*
X97422751Y-86296000D01*
X97422751Y-84840160D01*
X99370600Y-84840160D01*
X99370600Y-84983840D01*
X99398631Y-85124758D01*
X99453614Y-85257500D01*
X99533438Y-85376965D01*
X99635035Y-85478562D01*
X99754500Y-85558386D01*
X99887242Y-85613369D01*
X100028160Y-85641400D01*
X100171840Y-85641400D01*
X100312758Y-85613369D01*
X100445500Y-85558386D01*
X100512302Y-85513750D01*
X100744600Y-85513750D01*
X100744600Y-85682250D01*
X100777472Y-85847511D01*
X100841954Y-86003184D01*
X100935567Y-86143286D01*
X101054714Y-86262433D01*
X101194816Y-86356046D01*
X101350489Y-86420528D01*
X101515750Y-86453400D01*
X101684250Y-86453400D01*
X101849511Y-86420528D01*
X102005184Y-86356046D01*
X102095049Y-86296000D01*
X105777248Y-86296000D01*
X105782643Y-86350772D01*
X105798619Y-86403439D01*
X105824563Y-86451977D01*
X105859478Y-86494522D01*
X105902023Y-86529437D01*
X105950561Y-86555381D01*
X106003228Y-86571357D01*
X106058000Y-86576752D01*
X106462750Y-86575400D01*
X106532600Y-86505550D01*
X106532600Y-85471400D01*
X106583400Y-85471400D01*
X106583400Y-86505550D01*
X106653250Y-86575400D01*
X107058000Y-86576752D01*
X107112772Y-86571357D01*
X107165439Y-86555381D01*
X107213977Y-86529437D01*
X107256522Y-86494522D01*
X107291437Y-86451977D01*
X107317381Y-86403439D01*
X107333357Y-86350772D01*
X107338752Y-86296000D01*
X107337400Y-85541250D01*
X107267550Y-85471400D01*
X106583400Y-85471400D01*
X106532600Y-85471400D01*
X105848450Y-85471400D01*
X105778600Y-85541250D01*
X105777248Y-86296000D01*
X102095049Y-86296000D01*
X102145286Y-86262433D01*
X102264433Y-86143286D01*
X102358046Y-86003184D01*
X102422528Y-85847511D01*
X102455400Y-85682250D01*
X102455400Y-85513750D01*
X102422528Y-85348489D01*
X102358046Y-85192816D01*
X102264433Y-85052714D01*
X102145286Y-84933567D01*
X102005493Y-84840160D01*
X102370600Y-84840160D01*
X102370600Y-84983840D01*
X102398631Y-85124758D01*
X102453614Y-85257500D01*
X102533438Y-85376965D01*
X102635035Y-85478562D01*
X102754500Y-85558386D01*
X102887242Y-85613369D01*
X103028160Y-85641400D01*
X103171840Y-85641400D01*
X103312758Y-85613369D01*
X103445500Y-85558386D01*
X103564965Y-85478562D01*
X103666562Y-85376965D01*
X103746386Y-85257500D01*
X103801369Y-85124758D01*
X103829400Y-84983840D01*
X103829400Y-84840160D01*
X103801369Y-84699242D01*
X103758606Y-84596000D01*
X105777248Y-84596000D01*
X105778600Y-85350750D01*
X105848450Y-85420600D01*
X106532600Y-85420600D01*
X106532600Y-84386450D01*
X106583400Y-84386450D01*
X106583400Y-85420600D01*
X107267550Y-85420600D01*
X107337400Y-85350750D01*
X107338752Y-84596000D01*
X107333357Y-84541228D01*
X107317381Y-84488561D01*
X107291437Y-84440023D01*
X107256522Y-84397478D01*
X107213977Y-84362563D01*
X107165439Y-84336619D01*
X107112772Y-84320643D01*
X107058000Y-84315248D01*
X106653250Y-84316600D01*
X106583400Y-84386450D01*
X106532600Y-84386450D01*
X106462750Y-84316600D01*
X106058000Y-84315248D01*
X106003228Y-84320643D01*
X105950561Y-84336619D01*
X105902023Y-84362563D01*
X105859478Y-84397478D01*
X105824563Y-84440023D01*
X105798619Y-84488561D01*
X105782643Y-84541228D01*
X105777248Y-84596000D01*
X103758606Y-84596000D01*
X103746386Y-84566500D01*
X103666562Y-84447035D01*
X103564965Y-84345438D01*
X103445500Y-84265614D01*
X103312758Y-84210631D01*
X103171840Y-84182600D01*
X103028160Y-84182600D01*
X102887242Y-84210631D01*
X102754500Y-84265614D01*
X102635035Y-84345438D01*
X102533438Y-84447035D01*
X102453614Y-84566500D01*
X102398631Y-84699242D01*
X102370600Y-84840160D01*
X102005493Y-84840160D01*
X102005184Y-84839954D01*
X101849511Y-84775472D01*
X101684250Y-84742600D01*
X101515750Y-84742600D01*
X101350489Y-84775472D01*
X101194816Y-84839954D01*
X101054714Y-84933567D01*
X100935567Y-85052714D01*
X100841954Y-85192816D01*
X100777472Y-85348489D01*
X100744600Y-85513750D01*
X100512302Y-85513750D01*
X100564965Y-85478562D01*
X100666562Y-85376965D01*
X100746386Y-85257500D01*
X100801369Y-85124758D01*
X100829400Y-84983840D01*
X100829400Y-84840160D01*
X100801369Y-84699242D01*
X100746386Y-84566500D01*
X100666562Y-84447035D01*
X100564965Y-84345438D01*
X100445500Y-84265614D01*
X100312758Y-84210631D01*
X100171840Y-84182600D01*
X100028160Y-84182600D01*
X99887242Y-84210631D01*
X99754500Y-84265614D01*
X99635035Y-84345438D01*
X99533438Y-84447035D01*
X99453614Y-84566500D01*
X99398631Y-84699242D01*
X99370600Y-84840160D01*
X97422751Y-84840160D01*
X97422751Y-84596000D01*
X97417356Y-84541228D01*
X97401380Y-84488561D01*
X97375436Y-84440023D01*
X97340521Y-84397479D01*
X97297977Y-84362564D01*
X97249439Y-84336620D01*
X97196772Y-84320644D01*
X97142000Y-84315249D01*
X97023000Y-84315249D01*
X97023000Y-83458000D01*
X100119248Y-83458000D01*
X100124643Y-83512772D01*
X100140619Y-83565439D01*
X100166563Y-83613977D01*
X100201478Y-83656522D01*
X100244023Y-83691437D01*
X100292561Y-83717381D01*
X100345228Y-83733357D01*
X100400000Y-83738752D01*
X100704750Y-83737400D01*
X100774600Y-83667550D01*
X100774600Y-83083400D01*
X100825400Y-83083400D01*
X100825400Y-83667550D01*
X100895250Y-83737400D01*
X101200000Y-83738752D01*
X101254772Y-83733357D01*
X101307439Y-83717381D01*
X101355977Y-83691437D01*
X101398522Y-83656522D01*
X101433437Y-83613977D01*
X101459381Y-83565439D01*
X101475357Y-83512772D01*
X101480752Y-83458000D01*
X101479400Y-83153250D01*
X101409550Y-83083400D01*
X100825400Y-83083400D01*
X100774600Y-83083400D01*
X100190450Y-83083400D01*
X100120600Y-83153250D01*
X100119248Y-83458000D01*
X97023000Y-83458000D01*
X97023000Y-82658000D01*
X100119248Y-82658000D01*
X100120600Y-82962750D01*
X100190450Y-83032600D01*
X100774600Y-83032600D01*
X100774600Y-82448450D01*
X100825400Y-82448450D01*
X100825400Y-83032600D01*
X101409550Y-83032600D01*
X101479400Y-82962750D01*
X101480752Y-82658000D01*
X101719249Y-82658000D01*
X101719249Y-83458000D01*
X101724644Y-83512772D01*
X101740620Y-83565439D01*
X101766564Y-83613977D01*
X101801479Y-83656521D01*
X101844023Y-83691436D01*
X101892561Y-83717380D01*
X101945228Y-83733356D01*
X102000000Y-83738751D01*
X102800000Y-83738751D01*
X102854772Y-83733356D01*
X102907439Y-83717380D01*
X102955977Y-83691436D01*
X102998521Y-83656521D01*
X103033436Y-83613977D01*
X103059380Y-83565439D01*
X103075356Y-83512772D01*
X103080751Y-83458000D01*
X103080751Y-82658000D01*
X103075356Y-82603228D01*
X103059380Y-82550561D01*
X103033436Y-82502023D01*
X102998521Y-82459479D01*
X102955977Y-82424564D01*
X102907439Y-82398620D01*
X102854772Y-82382644D01*
X102800000Y-82377249D01*
X102781000Y-82377249D01*
X102781000Y-82261642D01*
X102808975Y-82253156D01*
X102892091Y-82208730D01*
X102964942Y-82148942D01*
X103024730Y-82076091D01*
X103069156Y-81992975D01*
X103096514Y-81902790D01*
X103105751Y-81809000D01*
X103105751Y-81259000D01*
X103096514Y-81165210D01*
X103069156Y-81075025D01*
X103024730Y-80991909D01*
X102964942Y-80919058D01*
X102892091Y-80859270D01*
X102808975Y-80814844D01*
X102718790Y-80787486D01*
X102625000Y-80778249D01*
X102225000Y-80778249D01*
X102131210Y-80787486D01*
X102041025Y-80814844D01*
X101957909Y-80859270D01*
X101885058Y-80919058D01*
X101825270Y-80991909D01*
X101780844Y-81075025D01*
X101753486Y-81165210D01*
X101744249Y-81259000D01*
X101744249Y-81809000D01*
X101753486Y-81902790D01*
X101780844Y-81992975D01*
X101825270Y-82076091D01*
X101885058Y-82148942D01*
X101957909Y-82208730D01*
X102019001Y-82241384D01*
X102019000Y-82377249D01*
X102000000Y-82377249D01*
X101945228Y-82382644D01*
X101892561Y-82398620D01*
X101844023Y-82424564D01*
X101801479Y-82459479D01*
X101766564Y-82502023D01*
X101740620Y-82550561D01*
X101724644Y-82603228D01*
X101719249Y-82658000D01*
X101480752Y-82658000D01*
X101475357Y-82603228D01*
X101459381Y-82550561D01*
X101433437Y-82502023D01*
X101398522Y-82459478D01*
X101355977Y-82424563D01*
X101307439Y-82398619D01*
X101254772Y-82382643D01*
X101200000Y-82377248D01*
X100895250Y-82378600D01*
X100825400Y-82448450D01*
X100774600Y-82448450D01*
X100704750Y-82378600D01*
X100400000Y-82377248D01*
X100345228Y-82382643D01*
X100292561Y-82398619D01*
X100244023Y-82424563D01*
X100201478Y-82459478D01*
X100166563Y-82502023D01*
X100140619Y-82550561D01*
X100124643Y-82603228D01*
X100119248Y-82658000D01*
X97023000Y-82658000D01*
X97023000Y-80276751D01*
X97142000Y-80276751D01*
X97196772Y-80271356D01*
X97249439Y-80255380D01*
X97297977Y-80229436D01*
X97340521Y-80194521D01*
X97375436Y-80151977D01*
X97401380Y-80103439D01*
X97412689Y-80066158D01*
X97414514Y-80084688D01*
X97436299Y-80156507D01*
X97471678Y-80222696D01*
X97498867Y-80255825D01*
X97519290Y-80280711D01*
X97533827Y-80292641D01*
X98734600Y-81493415D01*
X98734600Y-81591066D01*
X98756866Y-81703005D01*
X98800543Y-81808449D01*
X98863951Y-81903346D01*
X98944654Y-81984049D01*
X99039551Y-82047457D01*
X99144995Y-82091134D01*
X99256934Y-82113400D01*
X99371066Y-82113400D01*
X99483005Y-82091134D01*
X99588449Y-82047457D01*
X99683346Y-81984049D01*
X99764049Y-81903346D01*
X99827457Y-81808449D01*
X99871134Y-81703005D01*
X99893400Y-81591066D01*
X99893400Y-81476934D01*
X99871134Y-81364995D01*
X99827457Y-81259551D01*
X99764049Y-81164654D01*
X99683346Y-81083951D01*
X99588449Y-81020543D01*
X99483005Y-80976866D01*
X99371066Y-80954600D01*
X99273415Y-80954600D01*
X98171000Y-79852186D01*
X98171000Y-77742702D01*
X98172842Y-77723999D01*
X98171000Y-77705296D01*
X98171000Y-77705287D01*
X98165487Y-77649311D01*
X98143701Y-77577492D01*
X98108323Y-77511305D01*
X98108322Y-77511303D01*
X98081407Y-77478508D01*
X98060711Y-77453289D01*
X98046175Y-77441360D01*
X97771751Y-77166936D01*
X97771751Y-76757064D01*
X98046176Y-76482639D01*
X98060711Y-76470711D01*
X98084519Y-76441701D01*
X98105082Y-76416645D01*
X98143270Y-76488091D01*
X98203058Y-76560942D01*
X98275909Y-76620730D01*
X98359025Y-76665156D01*
X98362001Y-76666059D01*
X98362000Y-78618605D01*
X98355951Y-78624654D01*
X98292543Y-78719551D01*
X98248866Y-78824995D01*
X98226600Y-78936934D01*
X98226600Y-79051066D01*
X98248866Y-79163005D01*
X98292543Y-79268449D01*
X98355951Y-79363346D01*
X98436654Y-79444049D01*
X98531551Y-79507457D01*
X98636995Y-79551134D01*
X98748934Y-79573400D01*
X98863066Y-79573400D01*
X98975005Y-79551134D01*
X99080449Y-79507457D01*
X99175346Y-79444049D01*
X99256049Y-79363346D01*
X99319457Y-79268449D01*
X99363134Y-79163005D01*
X99385400Y-79051066D01*
X99385400Y-78936934D01*
X99363134Y-78824995D01*
X99319457Y-78719551D01*
X99256049Y-78624654D01*
X99175346Y-78543951D01*
X99124000Y-78509643D01*
X99124000Y-76666058D01*
X99126975Y-76665156D01*
X99210091Y-76620730D01*
X99282942Y-76560942D01*
X99342730Y-76488091D01*
X99387156Y-76404975D01*
X99414514Y-76314790D01*
X99423751Y-76221000D01*
X99423751Y-75671000D01*
X99414514Y-75577210D01*
X99387156Y-75487025D01*
X99342730Y-75403909D01*
X99282942Y-75331058D01*
X99210091Y-75271270D01*
X99126975Y-75226844D01*
X99036790Y-75199486D01*
X98943000Y-75190249D01*
X98543000Y-75190249D01*
X98449210Y-75199486D01*
X98359025Y-75226844D01*
X98275909Y-75271270D01*
X98203058Y-75331058D01*
X98171000Y-75370120D01*
X98171000Y-75278814D01*
X98527582Y-74922233D01*
X98543000Y-74923751D01*
X98943000Y-74923751D01*
X99036790Y-74914514D01*
X99126975Y-74887156D01*
X99210091Y-74842730D01*
X99282942Y-74782942D01*
X99342730Y-74710091D01*
X99387156Y-74626975D01*
X99414514Y-74536790D01*
X99423751Y-74443000D01*
X99423751Y-73893000D01*
X99419722Y-73852092D01*
X100126064Y-73145751D01*
X100568000Y-73145751D01*
X100666667Y-73136033D01*
X100761543Y-73107253D01*
X100848980Y-73060517D01*
X100925620Y-72997620D01*
X100970382Y-72943078D01*
X101030093Y-73002789D01*
X101042866Y-73067005D01*
X101086543Y-73172449D01*
X101149951Y-73267346D01*
X101230654Y-73348049D01*
X101325551Y-73411457D01*
X101430995Y-73455134D01*
X101495209Y-73467907D01*
X101701481Y-73674179D01*
X101713407Y-73688711D01*
X101727939Y-73700637D01*
X101727942Y-73700640D01*
X101747958Y-73717066D01*
X101771422Y-73736322D01*
X101837610Y-73771701D01*
X101872310Y-73782227D01*
X101871249Y-73793000D01*
X101871249Y-74043000D01*
X101876644Y-74097772D01*
X101892620Y-74150439D01*
X101902006Y-74167999D01*
X101892619Y-74185561D01*
X101876643Y-74238228D01*
X101871248Y-74293000D01*
X101872600Y-74322750D01*
X101942450Y-74392600D01*
X102476600Y-74392600D01*
X102476600Y-74372600D01*
X102527400Y-74372600D01*
X102527400Y-74392600D01*
X102547400Y-74392600D01*
X102547400Y-74443400D01*
X102527400Y-74443400D01*
X102527400Y-74463400D01*
X102476600Y-74463400D01*
X102476600Y-74443400D01*
X101942450Y-74443400D01*
X101872600Y-74513250D01*
X101871521Y-74537000D01*
X101300815Y-74537000D01*
X101073751Y-74309936D01*
X101073751Y-73893000D01*
X101064514Y-73799210D01*
X101037156Y-73709025D01*
X100992730Y-73625909D01*
X100932942Y-73553058D01*
X100860091Y-73493270D01*
X100776975Y-73448844D01*
X100686790Y-73421486D01*
X100593000Y-73412249D01*
X100193000Y-73412249D01*
X100099210Y-73421486D01*
X100009025Y-73448844D01*
X99925909Y-73493270D01*
X99853058Y-73553058D01*
X99793270Y-73625909D01*
X99748844Y-73709025D01*
X99721486Y-73799210D01*
X99712249Y-73893000D01*
X99712249Y-74443000D01*
X99721486Y-74536790D01*
X99748844Y-74626975D01*
X99793270Y-74710091D01*
X99853058Y-74782942D01*
X99925909Y-74842730D01*
X100009025Y-74887156D01*
X100099210Y-74914514D01*
X100193000Y-74923751D01*
X100593000Y-74923751D01*
X100608418Y-74922233D01*
X100860359Y-75174174D01*
X100872289Y-75188711D01*
X100891464Y-75204447D01*
X100930303Y-75236322D01*
X100970169Y-75257631D01*
X100996492Y-75271701D01*
X101068311Y-75293487D01*
X101124287Y-75299000D01*
X101124289Y-75299000D01*
X101142999Y-75300843D01*
X101161709Y-75299000D01*
X101200185Y-75299000D01*
X101028449Y-75470736D01*
X100992730Y-75403909D01*
X100932942Y-75331058D01*
X100860091Y-75271270D01*
X100776975Y-75226844D01*
X100686790Y-75199486D01*
X100593000Y-75190249D01*
X100193000Y-75190249D01*
X100099210Y-75199486D01*
X100009025Y-75226844D01*
X99925909Y-75271270D01*
X99853058Y-75331058D01*
X99793270Y-75403909D01*
X99748844Y-75487025D01*
X99721486Y-75577210D01*
X99712249Y-75671000D01*
X99712249Y-76221000D01*
X99721486Y-76314790D01*
X99748844Y-76404975D01*
X99793270Y-76488091D01*
X99853058Y-76560942D01*
X99925909Y-76620730D01*
X99949001Y-76633073D01*
X99949000Y-77031605D01*
X99879951Y-77100654D01*
X99816543Y-77195551D01*
X99772866Y-77300995D01*
X99750600Y-77412934D01*
X99750600Y-77527066D01*
X99772866Y-77639005D01*
X99816543Y-77744449D01*
X99879951Y-77839346D01*
X99960654Y-77920049D01*
X100055551Y-77983457D01*
X100160995Y-78027134D01*
X100272934Y-78049400D01*
X100387066Y-78049400D01*
X100499005Y-78027134D01*
X100604449Y-77983457D01*
X100699346Y-77920049D01*
X100780049Y-77839346D01*
X100843457Y-77744449D01*
X100887134Y-77639005D01*
X100909400Y-77527066D01*
X100909400Y-77412934D01*
X100887134Y-77300995D01*
X100843457Y-77195551D01*
X100780049Y-77100654D01*
X100711000Y-77031605D01*
X100711000Y-76685170D01*
X100776975Y-76665156D01*
X100860091Y-76620730D01*
X100932942Y-76560942D01*
X100965000Y-76521880D01*
X100965001Y-79344184D01*
X100518832Y-79790354D01*
X100504289Y-79802289D01*
X100472666Y-79840823D01*
X100456678Y-79860304D01*
X100443562Y-79884843D01*
X100421299Y-79926493D01*
X100399513Y-79998312D01*
X100394000Y-80054287D01*
X100392157Y-80073000D01*
X100394000Y-80091710D01*
X100394001Y-80813941D01*
X100391025Y-80814844D01*
X100307909Y-80859270D01*
X100235058Y-80919058D01*
X100175270Y-80991909D01*
X100130844Y-81075025D01*
X100103486Y-81165210D01*
X100094249Y-81259000D01*
X100094249Y-81809000D01*
X100103486Y-81902790D01*
X100130844Y-81992975D01*
X100175270Y-82076091D01*
X100235058Y-82148942D01*
X100307909Y-82208730D01*
X100391025Y-82253156D01*
X100481210Y-82280514D01*
X100575000Y-82289751D01*
X100975000Y-82289751D01*
X101068790Y-82280514D01*
X101158975Y-82253156D01*
X101242091Y-82208730D01*
X101314942Y-82148942D01*
X101374730Y-82076091D01*
X101419156Y-81992975D01*
X101446514Y-81902790D01*
X101455751Y-81809000D01*
X101455751Y-81259000D01*
X101446514Y-81165210D01*
X101419156Y-81075025D01*
X101374730Y-80991909D01*
X101314942Y-80919058D01*
X101242091Y-80859270D01*
X101158975Y-80814844D01*
X101156000Y-80813942D01*
X101156000Y-80230814D01*
X101602174Y-79784641D01*
X101616711Y-79772711D01*
X101647682Y-79734972D01*
X101664322Y-79714697D01*
X101699701Y-79648508D01*
X101703946Y-79634514D01*
X101721487Y-79576689D01*
X101727000Y-79520713D01*
X101727000Y-79520710D01*
X101728843Y-79502000D01*
X101727000Y-79483290D01*
X101727000Y-76611814D01*
X102039265Y-76299549D01*
X102044561Y-76302380D01*
X102097228Y-76318356D01*
X102152000Y-76323751D01*
X102746249Y-76323751D01*
X102746249Y-76918000D01*
X102751644Y-76972772D01*
X102764051Y-77013672D01*
X102754654Y-77019951D01*
X102673951Y-77100654D01*
X102610543Y-77195551D01*
X102566866Y-77300995D01*
X102544600Y-77412934D01*
X102544600Y-77527066D01*
X102566866Y-77639005D01*
X102610543Y-77744449D01*
X102673951Y-77839346D01*
X102754654Y-77920049D01*
X102849551Y-77983457D01*
X102954995Y-78027134D01*
X103066934Y-78049400D01*
X103181066Y-78049400D01*
X103219868Y-78041682D01*
X103639767Y-78461582D01*
X103638249Y-78477000D01*
X103638249Y-78877000D01*
X103647486Y-78970790D01*
X103674844Y-79060975D01*
X103719270Y-79144091D01*
X103779058Y-79216942D01*
X103851909Y-79276730D01*
X103935025Y-79321156D01*
X104025210Y-79348514D01*
X104119000Y-79357751D01*
X104669000Y-79357751D01*
X104762790Y-79348514D01*
X104852975Y-79321156D01*
X104936091Y-79276730D01*
X105008942Y-79216942D01*
X105068730Y-79144091D01*
X105113156Y-79060975D01*
X105140514Y-78970790D01*
X105149751Y-78877000D01*
X105149751Y-78477000D01*
X105140514Y-78383210D01*
X105114059Y-78296000D01*
X105777248Y-78296000D01*
X105778600Y-79050750D01*
X105848450Y-79120600D01*
X106532600Y-79120600D01*
X106532600Y-78086450D01*
X106583400Y-78086450D01*
X106583400Y-79120600D01*
X107267550Y-79120600D01*
X107337400Y-79050750D01*
X107338752Y-78296000D01*
X107333357Y-78241228D01*
X107317381Y-78188561D01*
X107291437Y-78140023D01*
X107256522Y-78097478D01*
X107213977Y-78062563D01*
X107165439Y-78036619D01*
X107112772Y-78020643D01*
X107058000Y-78015248D01*
X106653250Y-78016600D01*
X106583400Y-78086450D01*
X106532600Y-78086450D01*
X106462750Y-78016600D01*
X106058000Y-78015248D01*
X106003228Y-78020643D01*
X105950561Y-78036619D01*
X105902023Y-78062563D01*
X105859478Y-78097478D01*
X105824563Y-78140023D01*
X105798619Y-78188561D01*
X105782643Y-78241228D01*
X105777248Y-78296000D01*
X105114059Y-78296000D01*
X105113156Y-78293025D01*
X105068730Y-78209909D01*
X105008942Y-78137058D01*
X104936091Y-78077270D01*
X104852975Y-78032844D01*
X104762790Y-78005486D01*
X104669000Y-77996249D01*
X104252064Y-77996249D01*
X103703400Y-77447586D01*
X103703400Y-77412934D01*
X103681134Y-77300995D01*
X103638783Y-77198751D01*
X103777000Y-77198751D01*
X103831772Y-77193356D01*
X103884439Y-77177380D01*
X103902000Y-77167993D01*
X103919561Y-77177380D01*
X103972228Y-77193356D01*
X104027000Y-77198751D01*
X104277000Y-77198751D01*
X104331772Y-77193356D01*
X104384439Y-77177380D01*
X104402000Y-77167993D01*
X104419561Y-77177380D01*
X104472228Y-77193356D01*
X104527000Y-77198751D01*
X104777000Y-77198751D01*
X104831772Y-77193356D01*
X104884439Y-77177380D01*
X104902000Y-77167993D01*
X104919561Y-77177380D01*
X104972228Y-77193356D01*
X105027000Y-77198751D01*
X105277000Y-77198751D01*
X105331772Y-77193356D01*
X105384439Y-77177380D01*
X105402000Y-77167993D01*
X105419561Y-77177380D01*
X105472228Y-77193356D01*
X105527000Y-77198751D01*
X105777000Y-77198751D01*
X105831772Y-77193356D01*
X105884439Y-77177380D01*
X105902000Y-77167993D01*
X105919561Y-77177380D01*
X105972228Y-77193356D01*
X106027000Y-77198751D01*
X106277000Y-77198751D01*
X106331772Y-77193356D01*
X106363959Y-77183592D01*
X106381290Y-77204711D01*
X106395827Y-77216641D01*
X108581359Y-79402174D01*
X108593289Y-79416711D01*
X108607824Y-79428639D01*
X108651303Y-79464322D01*
X108674359Y-79476645D01*
X108717492Y-79499701D01*
X108789311Y-79521487D01*
X108845287Y-79527000D01*
X108845296Y-79527000D01*
X108863999Y-79528842D01*
X108882702Y-79527000D01*
X109577249Y-79527000D01*
X109577249Y-79946000D01*
X107338662Y-79946000D01*
X107337400Y-79241250D01*
X107267550Y-79171400D01*
X106583400Y-79171400D01*
X106583400Y-79191400D01*
X106532600Y-79191400D01*
X106532600Y-79171400D01*
X105848450Y-79171400D01*
X105778600Y-79241250D01*
X105777338Y-79946000D01*
X105114058Y-79946000D01*
X105113156Y-79943025D01*
X105068730Y-79859909D01*
X105008942Y-79787058D01*
X104936091Y-79727270D01*
X104852975Y-79682844D01*
X104762790Y-79655486D01*
X104669000Y-79646249D01*
X104119000Y-79646249D01*
X104025210Y-79655486D01*
X103935025Y-79682844D01*
X103851909Y-79727270D01*
X103779058Y-79787058D01*
X103719270Y-79859909D01*
X103674844Y-79943025D01*
X103647486Y-80033210D01*
X103638249Y-80127000D01*
X103638249Y-80527000D01*
X103647486Y-80620790D01*
X103674844Y-80710975D01*
X103719270Y-80794091D01*
X103779058Y-80866942D01*
X103851909Y-80926730D01*
X103935025Y-80971156D01*
X104025210Y-80998514D01*
X104119000Y-81007751D01*
X104669000Y-81007751D01*
X104762790Y-80998514D01*
X104852975Y-80971156D01*
X104936091Y-80926730D01*
X105008942Y-80866942D01*
X105068730Y-80794091D01*
X105113156Y-80710975D01*
X105114058Y-80708000D01*
X109977001Y-80708000D01*
X109977000Y-84315249D01*
X109858000Y-84315249D01*
X109803228Y-84320644D01*
X109750561Y-84336620D01*
X109702023Y-84362564D01*
X109659479Y-84397479D01*
X109624564Y-84440023D01*
X109598620Y-84488561D01*
X109582644Y-84541228D01*
X109577249Y-84596000D01*
X109577249Y-86296000D01*
X109582644Y-86350772D01*
X109598620Y-86403439D01*
X109624564Y-86451977D01*
X109659479Y-86494521D01*
X109702023Y-86529436D01*
X109750561Y-86555380D01*
X109803228Y-86571356D01*
X109858000Y-86576751D01*
X110858000Y-86576751D01*
X110912772Y-86571356D01*
X110965439Y-86555380D01*
X111013977Y-86529436D01*
X111056521Y-86494521D01*
X111091436Y-86451977D01*
X111117380Y-86403439D01*
X111133356Y-86350772D01*
X111138751Y-86296000D01*
X111138751Y-84596000D01*
X111133356Y-84541228D01*
X111117380Y-84488561D01*
X111091436Y-84440023D01*
X111056521Y-84397479D01*
X111013977Y-84362564D01*
X110965439Y-84336620D01*
X110912772Y-84320644D01*
X110858000Y-84315249D01*
X110739000Y-84315249D01*
X110739000Y-80530710D01*
X110740843Y-80512000D01*
X110737696Y-80480049D01*
X110733487Y-80437311D01*
X110711701Y-80365492D01*
X110691126Y-80327000D01*
X110711701Y-80288508D01*
X110715267Y-80276751D01*
X110858000Y-80276751D01*
X110912772Y-80271356D01*
X110965439Y-80255380D01*
X111013977Y-80229436D01*
X111056521Y-80194521D01*
X111091436Y-80151977D01*
X111117380Y-80103439D01*
X111133356Y-80050772D01*
X111138751Y-79996000D01*
X111138751Y-78296000D01*
X111133356Y-78241228D01*
X111117380Y-78188561D01*
X111091436Y-78140023D01*
X111056521Y-78097479D01*
X111013977Y-78062564D01*
X111010585Y-78060751D01*
X111110000Y-78060751D01*
X111192084Y-78052666D01*
X111271014Y-78028723D01*
X111343757Y-77989842D01*
X111407516Y-77937516D01*
X111459842Y-77873757D01*
X111498723Y-77801014D01*
X111522666Y-77722084D01*
X111530751Y-77640000D01*
X111530751Y-77569870D01*
X111599138Y-77734972D01*
X111722737Y-77919951D01*
X111880049Y-78077263D01*
X112063738Y-78200000D01*
X111880049Y-78322737D01*
X111722737Y-78480049D01*
X111599138Y-78665028D01*
X111514002Y-78870566D01*
X111470600Y-79088764D01*
X111470600Y-79311236D01*
X111514002Y-79529434D01*
X111599138Y-79734972D01*
X111722737Y-79919951D01*
X111880049Y-80077263D01*
X112063738Y-80200000D01*
X111880049Y-80322737D01*
X111722737Y-80480049D01*
X111599138Y-80665028D01*
X111514002Y-80870566D01*
X111470600Y-81088764D01*
X111470600Y-81311236D01*
X111514002Y-81529434D01*
X111599138Y-81734972D01*
X111722737Y-81919951D01*
X111880049Y-82077263D01*
X112063738Y-82200000D01*
X111880049Y-82322737D01*
X111722737Y-82480049D01*
X111599138Y-82665028D01*
X111514002Y-82870566D01*
X111470600Y-83088764D01*
X111470600Y-83311236D01*
X111514002Y-83529434D01*
X111599138Y-83734972D01*
X111722737Y-83919951D01*
X111880049Y-84077263D01*
X112063738Y-84200000D01*
X111880049Y-84322737D01*
X111722737Y-84480049D01*
X111599138Y-84665028D01*
X111514002Y-84870566D01*
X111470600Y-85088764D01*
X111470600Y-85311236D01*
X111514002Y-85529434D01*
X111599138Y-85734972D01*
X111722737Y-85919951D01*
X111880049Y-86077263D01*
X112065028Y-86200862D01*
X112270566Y-86285998D01*
X112488764Y-86329400D01*
X112711236Y-86329400D01*
X112929434Y-86285998D01*
X113134972Y-86200862D01*
X113319951Y-86077263D01*
X113477263Y-85919951D01*
X113600862Y-85734972D01*
X113685998Y-85529434D01*
X113729400Y-85311236D01*
X113729400Y-85088764D01*
X113685998Y-84870566D01*
X113600862Y-84665028D01*
X113477263Y-84480049D01*
X113319951Y-84322737D01*
X113136262Y-84200000D01*
X113319951Y-84077263D01*
X113477263Y-83919951D01*
X113600862Y-83734972D01*
X113685998Y-83529434D01*
X113729400Y-83311236D01*
X113729400Y-83088764D01*
X113685998Y-82870566D01*
X113600862Y-82665028D01*
X113477263Y-82480049D01*
X113319951Y-82322737D01*
X113136262Y-82200000D01*
X113319951Y-82077263D01*
X113477263Y-81919951D01*
X113600862Y-81734972D01*
X113685998Y-81529434D01*
X113729400Y-81311236D01*
X113729400Y-81088764D01*
X113685998Y-80870566D01*
X113600862Y-80665028D01*
X113477263Y-80480049D01*
X113319951Y-80322737D01*
X113136262Y-80200000D01*
X113319951Y-80077263D01*
X113477263Y-79919951D01*
X113600862Y-79734972D01*
X113685998Y-79529434D01*
X113729400Y-79311236D01*
X113729400Y-79088764D01*
X113685998Y-78870566D01*
X113600862Y-78665028D01*
X113477263Y-78480049D01*
X113319951Y-78322737D01*
X113136262Y-78200000D01*
X113319951Y-78077263D01*
X113477263Y-77919951D01*
X113600862Y-77734972D01*
X113685998Y-77529434D01*
X113729400Y-77311236D01*
X113729400Y-77088764D01*
X113685998Y-76870566D01*
X113600862Y-76665028D01*
X113477263Y-76480049D01*
X113319951Y-76322737D01*
X113136262Y-76200000D01*
X113319951Y-76077263D01*
X113477263Y-75919951D01*
X113600862Y-75734972D01*
X113685998Y-75529434D01*
X113729400Y-75311236D01*
X113729400Y-75088764D01*
X113685998Y-74870566D01*
X113600862Y-74665028D01*
X113477263Y-74480049D01*
X113319951Y-74322737D01*
X113136262Y-74200000D01*
X113319951Y-74077263D01*
X113477263Y-73919951D01*
X113600862Y-73734972D01*
X113685998Y-73529434D01*
X113729400Y-73311236D01*
X113729400Y-73088764D01*
X113685998Y-72870566D01*
X113600862Y-72665028D01*
X113477263Y-72480049D01*
X113319951Y-72322737D01*
X113136262Y-72200000D01*
X113319951Y-72077263D01*
X113477263Y-71919951D01*
X113600862Y-71734972D01*
X113685998Y-71529434D01*
X113729400Y-71311236D01*
X113729400Y-71088764D01*
X113685998Y-70870566D01*
X113600862Y-70665028D01*
X113477263Y-70480049D01*
X113319951Y-70322737D01*
X113136262Y-70200000D01*
X113319951Y-70077263D01*
X113477263Y-69919951D01*
X113600862Y-69734972D01*
X113685998Y-69529434D01*
X113729400Y-69311236D01*
X113729400Y-69088764D01*
X113685998Y-68870566D01*
X113600862Y-68665028D01*
X113477263Y-68480049D01*
X113319951Y-68322737D01*
X113136262Y-68200000D01*
X113213786Y-68148200D01*
X113741601Y-68148200D01*
X113741600Y-86817600D01*
X89458400Y-86817600D01*
X89458400Y-85970826D01*
X89865095Y-85970826D01*
X89953659Y-86132825D01*
X90148063Y-86240996D01*
X90359835Y-86309162D01*
X90580837Y-86334703D01*
X90802575Y-86316639D01*
X90874993Y-86296000D01*
X92061248Y-86296000D01*
X92066643Y-86350772D01*
X92082619Y-86403439D01*
X92108563Y-86451977D01*
X92143478Y-86494522D01*
X92186023Y-86529437D01*
X92234561Y-86555381D01*
X92287228Y-86571357D01*
X92342000Y-86576752D01*
X92746750Y-86575400D01*
X92816600Y-86505550D01*
X92816600Y-85471400D01*
X92867400Y-85471400D01*
X92867400Y-86505550D01*
X92937250Y-86575400D01*
X93342000Y-86576752D01*
X93396772Y-86571357D01*
X93449439Y-86555381D01*
X93497977Y-86529437D01*
X93540522Y-86494522D01*
X93575437Y-86451977D01*
X93601381Y-86403439D01*
X93617357Y-86350772D01*
X93622752Y-86296000D01*
X93621400Y-85541250D01*
X93551550Y-85471400D01*
X92867400Y-85471400D01*
X92816600Y-85471400D01*
X92132450Y-85471400D01*
X92062600Y-85541250D01*
X92061248Y-86296000D01*
X90874993Y-86296000D01*
X91016528Y-86255663D01*
X91214474Y-86154118D01*
X91246341Y-86132825D01*
X91334905Y-85970826D01*
X90600000Y-85235921D01*
X89865095Y-85970826D01*
X89458400Y-85970826D01*
X89458400Y-85180837D01*
X89465297Y-85180837D01*
X89483361Y-85402575D01*
X89544337Y-85616528D01*
X89645882Y-85814474D01*
X89667175Y-85846341D01*
X89829174Y-85934905D01*
X90564079Y-85200000D01*
X90635921Y-85200000D01*
X91370826Y-85934905D01*
X91532825Y-85846341D01*
X91640996Y-85651937D01*
X91709162Y-85440165D01*
X91734703Y-85219163D01*
X91716639Y-84997425D01*
X91655663Y-84783472D01*
X91559492Y-84596000D01*
X92061248Y-84596000D01*
X92062600Y-85350750D01*
X92132450Y-85420600D01*
X92816600Y-85420600D01*
X92816600Y-84386450D01*
X92867400Y-84386450D01*
X92867400Y-85420600D01*
X93551550Y-85420600D01*
X93621400Y-85350750D01*
X93622752Y-84596000D01*
X93617357Y-84541228D01*
X93601381Y-84488561D01*
X93575437Y-84440023D01*
X93540522Y-84397478D01*
X93497977Y-84362563D01*
X93449439Y-84336619D01*
X93396772Y-84320643D01*
X93342000Y-84315248D01*
X92937250Y-84316600D01*
X92867400Y-84386450D01*
X92816600Y-84386450D01*
X92746750Y-84316600D01*
X92342000Y-84315248D01*
X92287228Y-84320643D01*
X92234561Y-84336619D01*
X92186023Y-84362563D01*
X92143478Y-84397478D01*
X92108563Y-84440023D01*
X92082619Y-84488561D01*
X92066643Y-84541228D01*
X92061248Y-84596000D01*
X91559492Y-84596000D01*
X91554118Y-84585526D01*
X91532825Y-84553659D01*
X91370826Y-84465095D01*
X90635921Y-85200000D01*
X90564079Y-85200000D01*
X89829174Y-84465095D01*
X89667175Y-84553659D01*
X89559004Y-84748063D01*
X89490838Y-84959835D01*
X89465297Y-85180837D01*
X89458400Y-85180837D01*
X89458400Y-68148200D01*
X89986214Y-68148200D01*
X90063738Y-68200000D01*
G37*
%TD.AperFunction*%
D26*
X109157400Y-75750600D02*
X109177400Y-75750600D01*
X109177400Y-75801400D01*
X109157400Y-75801400D01*
X109157400Y-76685550D01*
X109227250Y-76755400D01*
X109732000Y-76756752D01*
X109786772Y-76751357D01*
X109839439Y-76735381D01*
X109887977Y-76709437D01*
X109930522Y-76674522D01*
X109965437Y-76631977D01*
X109982001Y-76600989D01*
X109998564Y-76631977D01*
X110033479Y-76674521D01*
X110076023Y-76709436D01*
X110124561Y-76735380D01*
X110177228Y-76751356D01*
X110232000Y-76756751D01*
X110451001Y-76756751D01*
X110451001Y-76930686D01*
X110445977Y-76926563D01*
X110397439Y-76900619D01*
X110344772Y-76884643D01*
X110290000Y-76879248D01*
X110105250Y-76880600D01*
X110035400Y-76950450D01*
X110035400Y-77444600D01*
X110055400Y-77444600D01*
X110055400Y-77495400D01*
X110035400Y-77495400D01*
X110035400Y-77515400D01*
X109984600Y-77515400D01*
X109984600Y-77495400D01*
X109520450Y-77495400D01*
X109450600Y-77565250D01*
X109449248Y-77780000D01*
X109454643Y-77834772D01*
X109470619Y-77887439D01*
X109496563Y-77935977D01*
X109531478Y-77978522D01*
X109574023Y-78013437D01*
X109622561Y-78039381D01*
X109675228Y-78055357D01*
X109709239Y-78058707D01*
X109702023Y-78062564D01*
X109659479Y-78097479D01*
X109624564Y-78140023D01*
X109598620Y-78188561D01*
X109582644Y-78241228D01*
X109577249Y-78296000D01*
X109577249Y-78765000D01*
X109021815Y-78765000D01*
X108044724Y-77787909D01*
X108119005Y-77773134D01*
X108224449Y-77729457D01*
X108319346Y-77666049D01*
X108400049Y-77585346D01*
X108463457Y-77490449D01*
X108507134Y-77385005D01*
X108529400Y-77273066D01*
X108529400Y-77160000D01*
X109449248Y-77160000D01*
X109450600Y-77374750D01*
X109520450Y-77444600D01*
X109984600Y-77444600D01*
X109984600Y-76950450D01*
X109914750Y-76880600D01*
X109730000Y-76879248D01*
X109675228Y-76884643D01*
X109622561Y-76900619D01*
X109574023Y-76926563D01*
X109531478Y-76961478D01*
X109496563Y-77004023D01*
X109470619Y-77052561D01*
X109454643Y-77105228D01*
X109449248Y-77160000D01*
X108529400Y-77160000D01*
X108529400Y-77158934D01*
X108507134Y-77046995D01*
X108463457Y-76941551D01*
X108400049Y-76846654D01*
X108334601Y-76781206D01*
X108334601Y-76675444D01*
X108376023Y-76709437D01*
X108424561Y-76735381D01*
X108477228Y-76751357D01*
X108532000Y-76756752D01*
X109036750Y-76755400D01*
X109106600Y-76685550D01*
X109106600Y-75801400D01*
X109086600Y-75801400D01*
X109086600Y-75750600D01*
X109106600Y-75750600D01*
X109106600Y-75730600D01*
X109157400Y-75730600D01*
X109157400Y-75750600D01*
%TA.AperFunction,Conductor*%
D27*
G36*
X109157400Y-75750600D02*
G01*
X109177400Y-75750600D01*
X109177400Y-75801400D01*
X109157400Y-75801400D01*
X109157400Y-76685550D01*
X109227250Y-76755400D01*
X109732000Y-76756752D01*
X109786772Y-76751357D01*
X109839439Y-76735381D01*
X109887977Y-76709437D01*
X109930522Y-76674522D01*
X109965437Y-76631977D01*
X109982001Y-76600989D01*
X109998564Y-76631977D01*
X110033479Y-76674521D01*
X110076023Y-76709436D01*
X110124561Y-76735380D01*
X110177228Y-76751356D01*
X110232000Y-76756751D01*
X110451001Y-76756751D01*
X110451001Y-76930686D01*
X110445977Y-76926563D01*
X110397439Y-76900619D01*
X110344772Y-76884643D01*
X110290000Y-76879248D01*
X110105250Y-76880600D01*
X110035400Y-76950450D01*
X110035400Y-77444600D01*
X110055400Y-77444600D01*
X110055400Y-77495400D01*
X110035400Y-77495400D01*
X110035400Y-77515400D01*
X109984600Y-77515400D01*
X109984600Y-77495400D01*
X109520450Y-77495400D01*
X109450600Y-77565250D01*
X109449248Y-77780000D01*
X109454643Y-77834772D01*
X109470619Y-77887439D01*
X109496563Y-77935977D01*
X109531478Y-77978522D01*
X109574023Y-78013437D01*
X109622561Y-78039381D01*
X109675228Y-78055357D01*
X109709239Y-78058707D01*
X109702023Y-78062564D01*
X109659479Y-78097479D01*
X109624564Y-78140023D01*
X109598620Y-78188561D01*
X109582644Y-78241228D01*
X109577249Y-78296000D01*
X109577249Y-78765000D01*
X109021815Y-78765000D01*
X108044724Y-77787909D01*
X108119005Y-77773134D01*
X108224449Y-77729457D01*
X108319346Y-77666049D01*
X108400049Y-77585346D01*
X108463457Y-77490449D01*
X108507134Y-77385005D01*
X108529400Y-77273066D01*
X108529400Y-77160000D01*
X109449248Y-77160000D01*
X109450600Y-77374750D01*
X109520450Y-77444600D01*
X109984600Y-77444600D01*
X109984600Y-76950450D01*
X109914750Y-76880600D01*
X109730000Y-76879248D01*
X109675228Y-76884643D01*
X109622561Y-76900619D01*
X109574023Y-76926563D01*
X109531478Y-76961478D01*
X109496563Y-77004023D01*
X109470619Y-77052561D01*
X109454643Y-77105228D01*
X109449248Y-77160000D01*
X108529400Y-77160000D01*
X108529400Y-77158934D01*
X108507134Y-77046995D01*
X108463457Y-76941551D01*
X108400049Y-76846654D01*
X108334601Y-76781206D01*
X108334601Y-76675444D01*
X108376023Y-76709437D01*
X108424561Y-76735381D01*
X108477228Y-76751357D01*
X108532000Y-76756752D01*
X109036750Y-76755400D01*
X109106600Y-76685550D01*
X109106600Y-75801400D01*
X109086600Y-75801400D01*
X109086600Y-75750600D01*
X109106600Y-75750600D01*
X109106600Y-75730600D01*
X109157400Y-75730600D01*
X109157400Y-75750600D01*
G37*
%TD.AperFunction*%
D26*
X104064900Y-73280100D02*
X105739100Y-73280100D01*
X105739100Y-73260100D01*
X105789900Y-73260100D01*
X105789900Y-73280100D01*
X105809900Y-73280100D01*
X105809900Y-73330900D01*
X105789900Y-73330900D01*
X105789900Y-75005100D01*
X105809900Y-75005100D01*
X105809900Y-75055900D01*
X105789900Y-75055900D01*
X105789900Y-75075900D01*
X105739100Y-75075900D01*
X105739100Y-75055900D01*
X104064900Y-75055900D01*
X104064900Y-75075900D01*
X104014100Y-75075900D01*
X104014100Y-75055900D01*
X103994100Y-75055900D01*
X103994100Y-75005100D01*
X104014100Y-75005100D01*
X104014100Y-73330900D01*
X104064900Y-73330900D01*
X104064900Y-75005100D01*
X105739100Y-75005100D01*
X105739100Y-73330900D01*
X104064900Y-73330900D01*
X104014100Y-73330900D01*
X103994100Y-73330900D01*
X103994100Y-73280100D01*
X104014100Y-73280100D01*
X104014100Y-73260100D01*
X104064900Y-73260100D01*
X104064900Y-73280100D01*
%TA.AperFunction,Conductor*%
D27*
G36*
X104064900Y-73280100D02*
G01*
X105739100Y-73280100D01*
X105739100Y-73260100D01*
X105789900Y-73260100D01*
X105789900Y-73280100D01*
X105809900Y-73280100D01*
X105809900Y-73330900D01*
X105789900Y-73330900D01*
X105789900Y-75005100D01*
X105809900Y-75005100D01*
X105809900Y-75055900D01*
X105789900Y-75055900D01*
X105789900Y-75075900D01*
X105739100Y-75075900D01*
X105739100Y-75055900D01*
X104064900Y-75055900D01*
X104064900Y-75075900D01*
X104014100Y-75075900D01*
X104014100Y-75055900D01*
X103994100Y-75055900D01*
X103994100Y-75005100D01*
X104014100Y-75005100D01*
X104014100Y-73330900D01*
X104064900Y-73330900D01*
X104064900Y-75005100D01*
X105739100Y-75005100D01*
X105739100Y-73330900D01*
X104064900Y-73330900D01*
X104014100Y-73330900D01*
X103994100Y-73330900D01*
X103994100Y-73280100D01*
X104014100Y-73280100D01*
X104014100Y-73260100D01*
X104064900Y-73260100D01*
X104064900Y-73280100D01*
G37*
%TD.AperFunction*%
D26*
X111599138Y-71734972D02*
X111722737Y-71919951D01*
X111880049Y-72077263D01*
X112063738Y-72200000D01*
X111880049Y-72322737D01*
X111722737Y-72480049D01*
X111604880Y-72656435D01*
X111587977Y-72642563D01*
X111539439Y-72616619D01*
X111486772Y-72600643D01*
X111432000Y-72595248D01*
X110927250Y-72596600D01*
X110857400Y-72666450D01*
X110857400Y-73550600D01*
X110877400Y-73550600D01*
X110877400Y-73601400D01*
X110857400Y-73601400D01*
X110857400Y-74485550D01*
X110927250Y-74555400D01*
X111432000Y-74556752D01*
X111486772Y-74551357D01*
X111539439Y-74535381D01*
X111587977Y-74509437D01*
X111630522Y-74474522D01*
X111665437Y-74431977D01*
X111691381Y-74383439D01*
X111707357Y-74330772D01*
X111712752Y-74276000D01*
X111711920Y-73903762D01*
X111722737Y-73919951D01*
X111880049Y-74077263D01*
X112063738Y-74200000D01*
X111880049Y-74322737D01*
X111722737Y-74480049D01*
X111599138Y-74665028D01*
X111536692Y-74815787D01*
X111486772Y-74800644D01*
X111432000Y-74795249D01*
X110532945Y-74795249D01*
X110294281Y-74556585D01*
X110736750Y-74555400D01*
X110806600Y-74485550D01*
X110806600Y-73601400D01*
X110786600Y-73601400D01*
X110786600Y-73550600D01*
X110806600Y-73550600D01*
X110806600Y-72666450D01*
X110736750Y-72596600D01*
X110232000Y-72595248D01*
X110177228Y-72600643D01*
X110124561Y-72616619D01*
X110076023Y-72642563D01*
X110033478Y-72677478D01*
X109998563Y-72720023D01*
X109982000Y-72751011D01*
X109965436Y-72720023D01*
X109930521Y-72677479D01*
X109887977Y-72642564D01*
X109839439Y-72616620D01*
X109786772Y-72600644D01*
X109732000Y-72595249D01*
X109553565Y-72595249D01*
X109708403Y-72440411D01*
X109708986Y-72440723D01*
X109787916Y-72464666D01*
X109870000Y-72472751D01*
X110150000Y-72472751D01*
X110232084Y-72464666D01*
X110311014Y-72440723D01*
X110383757Y-72401842D01*
X110447516Y-72349516D01*
X110453493Y-72342233D01*
X110456563Y-72347977D01*
X110491478Y-72390522D01*
X110534023Y-72425437D01*
X110582561Y-72451381D01*
X110635228Y-72467357D01*
X110690000Y-72472752D01*
X110874750Y-72471400D01*
X110944600Y-72401550D01*
X110944600Y-71907400D01*
X110995400Y-71907400D01*
X110995400Y-72401550D01*
X111065250Y-72471400D01*
X111250000Y-72472752D01*
X111304772Y-72467357D01*
X111357439Y-72451381D01*
X111405977Y-72425437D01*
X111448522Y-72390522D01*
X111483437Y-72347977D01*
X111509381Y-72299439D01*
X111525357Y-72246772D01*
X111530752Y-72192000D01*
X111529400Y-71977250D01*
X111459550Y-71907400D01*
X110995400Y-71907400D01*
X110944600Y-71907400D01*
X110924600Y-71907400D01*
X110924600Y-71856600D01*
X110944600Y-71856600D01*
X110944600Y-71836600D01*
X110995400Y-71836600D01*
X110995400Y-71856600D01*
X111459550Y-71856600D01*
X111529400Y-71786750D01*
X111530752Y-71572000D01*
X111530477Y-71569209D01*
X111599138Y-71734972D01*
%TA.AperFunction,Conductor*%
D27*
G36*
X111599138Y-71734972D02*
G01*
X111722737Y-71919951D01*
X111880049Y-72077263D01*
X112063738Y-72200000D01*
X111880049Y-72322737D01*
X111722737Y-72480049D01*
X111604880Y-72656435D01*
X111587977Y-72642563D01*
X111539439Y-72616619D01*
X111486772Y-72600643D01*
X111432000Y-72595248D01*
X110927250Y-72596600D01*
X110857400Y-72666450D01*
X110857400Y-73550600D01*
X110877400Y-73550600D01*
X110877400Y-73601400D01*
X110857400Y-73601400D01*
X110857400Y-74485550D01*
X110927250Y-74555400D01*
X111432000Y-74556752D01*
X111486772Y-74551357D01*
X111539439Y-74535381D01*
X111587977Y-74509437D01*
X111630522Y-74474522D01*
X111665437Y-74431977D01*
X111691381Y-74383439D01*
X111707357Y-74330772D01*
X111712752Y-74276000D01*
X111711920Y-73903762D01*
X111722737Y-73919951D01*
X111880049Y-74077263D01*
X112063738Y-74200000D01*
X111880049Y-74322737D01*
X111722737Y-74480049D01*
X111599138Y-74665028D01*
X111536692Y-74815787D01*
X111486772Y-74800644D01*
X111432000Y-74795249D01*
X110532945Y-74795249D01*
X110294281Y-74556585D01*
X110736750Y-74555400D01*
X110806600Y-74485550D01*
X110806600Y-73601400D01*
X110786600Y-73601400D01*
X110786600Y-73550600D01*
X110806600Y-73550600D01*
X110806600Y-72666450D01*
X110736750Y-72596600D01*
X110232000Y-72595248D01*
X110177228Y-72600643D01*
X110124561Y-72616619D01*
X110076023Y-72642563D01*
X110033478Y-72677478D01*
X109998563Y-72720023D01*
X109982000Y-72751011D01*
X109965436Y-72720023D01*
X109930521Y-72677479D01*
X109887977Y-72642564D01*
X109839439Y-72616620D01*
X109786772Y-72600644D01*
X109732000Y-72595249D01*
X109553565Y-72595249D01*
X109708403Y-72440411D01*
X109708986Y-72440723D01*
X109787916Y-72464666D01*
X109870000Y-72472751D01*
X110150000Y-72472751D01*
X110232084Y-72464666D01*
X110311014Y-72440723D01*
X110383757Y-72401842D01*
X110447516Y-72349516D01*
X110453493Y-72342233D01*
X110456563Y-72347977D01*
X110491478Y-72390522D01*
X110534023Y-72425437D01*
X110582561Y-72451381D01*
X110635228Y-72467357D01*
X110690000Y-72472752D01*
X110874750Y-72471400D01*
X110944600Y-72401550D01*
X110944600Y-71907400D01*
X110995400Y-71907400D01*
X110995400Y-72401550D01*
X111065250Y-72471400D01*
X111250000Y-72472752D01*
X111304772Y-72467357D01*
X111357439Y-72451381D01*
X111405977Y-72425437D01*
X111448522Y-72390522D01*
X111483437Y-72347977D01*
X111509381Y-72299439D01*
X111525357Y-72246772D01*
X111530752Y-72192000D01*
X111529400Y-71977250D01*
X111459550Y-71907400D01*
X110995400Y-71907400D01*
X110944600Y-71907400D01*
X110924600Y-71907400D01*
X110924600Y-71856600D01*
X110944600Y-71856600D01*
X110944600Y-71836600D01*
X110995400Y-71836600D01*
X110995400Y-71856600D01*
X111459550Y-71856600D01*
X111529400Y-71786750D01*
X111530752Y-71572000D01*
X111530477Y-71569209D01*
X111599138Y-71734972D01*
G37*
%TD.AperFunction*%
D26*
X108546478Y-68172478D02*
X108511563Y-68215023D01*
X108485619Y-68263561D01*
X108469643Y-68316228D01*
X108464248Y-68371000D01*
X108465600Y-68675750D01*
X108535450Y-68745600D01*
X109194600Y-68745600D01*
X109194600Y-68725600D01*
X109245400Y-68725600D01*
X109245400Y-68745600D01*
X109904550Y-68745600D01*
X109974400Y-68675750D01*
X109975752Y-68371000D01*
X109970357Y-68316228D01*
X109954381Y-68263561D01*
X109928437Y-68215023D01*
X109893522Y-68172478D01*
X109863939Y-68148200D01*
X110100061Y-68148200D01*
X110070478Y-68172478D01*
X110035563Y-68215023D01*
X110009619Y-68263561D01*
X109993643Y-68316228D01*
X109988248Y-68371000D01*
X109989600Y-68725750D01*
X110059450Y-68795600D01*
X110718600Y-68795600D01*
X110718600Y-68775600D01*
X110769400Y-68775600D01*
X110769400Y-68795600D01*
X111428550Y-68795600D01*
X111498400Y-68725750D01*
X111499752Y-68371000D01*
X111494357Y-68316228D01*
X111478381Y-68263561D01*
X111452437Y-68215023D01*
X111417522Y-68172478D01*
X111387939Y-68148200D01*
X111986214Y-68148200D01*
X112063738Y-68200000D01*
X111880049Y-68322737D01*
X111722737Y-68480049D01*
X111599138Y-68665028D01*
X111514002Y-68870566D01*
X111498522Y-68948387D01*
X111498400Y-68916250D01*
X111428550Y-68846400D01*
X110769400Y-68846400D01*
X110769400Y-68866400D01*
X110718600Y-68866400D01*
X110718600Y-68846400D01*
X110059450Y-68846400D01*
X109989600Y-68916250D01*
X109988461Y-69215000D01*
X109971418Y-69215000D01*
X109975752Y-69171000D01*
X109974400Y-68866250D01*
X109904550Y-68796400D01*
X109245400Y-68796400D01*
X109245400Y-68816400D01*
X109194600Y-68816400D01*
X109194600Y-68796400D01*
X108535450Y-68796400D01*
X108465600Y-68866250D01*
X108464248Y-69171000D01*
X108469643Y-69225772D01*
X108485619Y-69278439D01*
X108489509Y-69285716D01*
X108484317Y-69289977D01*
X108441289Y-69325289D01*
X108429358Y-69339827D01*
X108187217Y-69581969D01*
X108172680Y-69593899D01*
X108160751Y-69608435D01*
X108125068Y-69651914D01*
X108089689Y-69718103D01*
X108080170Y-69749486D01*
X108071669Y-69777510D01*
X107987250Y-69778600D01*
X107917400Y-69848450D01*
X107917400Y-70332600D01*
X107937400Y-70332600D01*
X107937400Y-70383400D01*
X107917400Y-70383400D01*
X107917400Y-70867550D01*
X107987250Y-70937400D01*
X108062390Y-70938370D01*
X108062390Y-70976795D01*
X108046186Y-70993000D01*
X106952709Y-70993000D01*
X106933999Y-70991157D01*
X106915289Y-70993000D01*
X106915287Y-70993000D01*
X106859311Y-70998513D01*
X106799993Y-71016507D01*
X106787492Y-71020299D01*
X106721303Y-71055678D01*
X106691972Y-71079750D01*
X106663289Y-71103289D01*
X106651360Y-71117825D01*
X106631936Y-71137249D01*
X106533000Y-71137249D01*
X106533000Y-70766150D01*
X106558564Y-70813977D01*
X106593479Y-70856521D01*
X106636023Y-70891436D01*
X106684561Y-70917380D01*
X106737228Y-70933356D01*
X106792000Y-70938751D01*
X107192000Y-70938751D01*
X107246772Y-70933356D01*
X107299439Y-70917380D01*
X107347977Y-70891436D01*
X107390521Y-70856521D01*
X107425436Y-70813977D01*
X107442000Y-70782989D01*
X107458563Y-70813977D01*
X107493478Y-70856522D01*
X107536023Y-70891437D01*
X107584561Y-70917381D01*
X107637228Y-70933357D01*
X107692000Y-70938752D01*
X107796750Y-70937400D01*
X107866600Y-70867550D01*
X107866600Y-70383400D01*
X107846600Y-70383400D01*
X107846600Y-70332600D01*
X107866600Y-70332600D01*
X107866600Y-69848450D01*
X107796750Y-69778600D01*
X107692000Y-69777248D01*
X107637228Y-69782643D01*
X107584561Y-69798619D01*
X107536023Y-69824563D01*
X107518200Y-69839190D01*
X107518200Y-69352810D01*
X107536023Y-69367437D01*
X107584561Y-69393381D01*
X107637228Y-69409357D01*
X107692000Y-69414752D01*
X107796750Y-69413400D01*
X107866600Y-69343550D01*
X107866600Y-68859400D01*
X107917400Y-68859400D01*
X107917400Y-69343550D01*
X107987250Y-69413400D01*
X108092000Y-69414752D01*
X108146772Y-69409357D01*
X108199439Y-69393381D01*
X108247977Y-69367437D01*
X108290522Y-69332522D01*
X108325437Y-69289977D01*
X108351381Y-69241439D01*
X108367357Y-69188772D01*
X108372752Y-69134000D01*
X108371400Y-68929250D01*
X108301550Y-68859400D01*
X107917400Y-68859400D01*
X107866600Y-68859400D01*
X107846600Y-68859400D01*
X107846600Y-68808600D01*
X107866600Y-68808600D01*
X107866600Y-68324450D01*
X107917400Y-68324450D01*
X107917400Y-68808600D01*
X108301550Y-68808600D01*
X108371400Y-68738750D01*
X108372752Y-68534000D01*
X108367357Y-68479228D01*
X108351381Y-68426561D01*
X108325437Y-68378023D01*
X108290522Y-68335478D01*
X108247977Y-68300563D01*
X108199439Y-68274619D01*
X108146772Y-68258643D01*
X108092000Y-68253248D01*
X107987250Y-68254600D01*
X107917400Y-68324450D01*
X107866600Y-68324450D01*
X107796750Y-68254600D01*
X107692000Y-68253248D01*
X107637228Y-68258643D01*
X107584561Y-68274619D01*
X107536023Y-68300563D01*
X107518200Y-68315190D01*
X107518200Y-68148200D01*
X108576061Y-68148200D01*
X108546478Y-68172478D01*
%TA.AperFunction,Conductor*%
D27*
G36*
X108546478Y-68172478D02*
G01*
X108511563Y-68215023D01*
X108485619Y-68263561D01*
X108469643Y-68316228D01*
X108464248Y-68371000D01*
X108465600Y-68675750D01*
X108535450Y-68745600D01*
X109194600Y-68745600D01*
X109194600Y-68725600D01*
X109245400Y-68725600D01*
X109245400Y-68745600D01*
X109904550Y-68745600D01*
X109974400Y-68675750D01*
X109975752Y-68371000D01*
X109970357Y-68316228D01*
X109954381Y-68263561D01*
X109928437Y-68215023D01*
X109893522Y-68172478D01*
X109863939Y-68148200D01*
X110100061Y-68148200D01*
X110070478Y-68172478D01*
X110035563Y-68215023D01*
X110009619Y-68263561D01*
X109993643Y-68316228D01*
X109988248Y-68371000D01*
X109989600Y-68725750D01*
X110059450Y-68795600D01*
X110718600Y-68795600D01*
X110718600Y-68775600D01*
X110769400Y-68775600D01*
X110769400Y-68795600D01*
X111428550Y-68795600D01*
X111498400Y-68725750D01*
X111499752Y-68371000D01*
X111494357Y-68316228D01*
X111478381Y-68263561D01*
X111452437Y-68215023D01*
X111417522Y-68172478D01*
X111387939Y-68148200D01*
X111986214Y-68148200D01*
X112063738Y-68200000D01*
X111880049Y-68322737D01*
X111722737Y-68480049D01*
X111599138Y-68665028D01*
X111514002Y-68870566D01*
X111498522Y-68948387D01*
X111498400Y-68916250D01*
X111428550Y-68846400D01*
X110769400Y-68846400D01*
X110769400Y-68866400D01*
X110718600Y-68866400D01*
X110718600Y-68846400D01*
X110059450Y-68846400D01*
X109989600Y-68916250D01*
X109988461Y-69215000D01*
X109971418Y-69215000D01*
X109975752Y-69171000D01*
X109974400Y-68866250D01*
X109904550Y-68796400D01*
X109245400Y-68796400D01*
X109245400Y-68816400D01*
X109194600Y-68816400D01*
X109194600Y-68796400D01*
X108535450Y-68796400D01*
X108465600Y-68866250D01*
X108464248Y-69171000D01*
X108469643Y-69225772D01*
X108485619Y-69278439D01*
X108489509Y-69285716D01*
X108484317Y-69289977D01*
X108441289Y-69325289D01*
X108429358Y-69339827D01*
X108187217Y-69581969D01*
X108172680Y-69593899D01*
X108160751Y-69608435D01*
X108125068Y-69651914D01*
X108089689Y-69718103D01*
X108080170Y-69749486D01*
X108071669Y-69777510D01*
X107987250Y-69778600D01*
X107917400Y-69848450D01*
X107917400Y-70332600D01*
X107937400Y-70332600D01*
X107937400Y-70383400D01*
X107917400Y-70383400D01*
X107917400Y-70867550D01*
X107987250Y-70937400D01*
X108062390Y-70938370D01*
X108062390Y-70976795D01*
X108046186Y-70993000D01*
X106952709Y-70993000D01*
X106933999Y-70991157D01*
X106915289Y-70993000D01*
X106915287Y-70993000D01*
X106859311Y-70998513D01*
X106799993Y-71016507D01*
X106787492Y-71020299D01*
X106721303Y-71055678D01*
X106691972Y-71079750D01*
X106663289Y-71103289D01*
X106651360Y-71117825D01*
X106631936Y-71137249D01*
X106533000Y-71137249D01*
X106533000Y-70766150D01*
X106558564Y-70813977D01*
X106593479Y-70856521D01*
X106636023Y-70891436D01*
X106684561Y-70917380D01*
X106737228Y-70933356D01*
X106792000Y-70938751D01*
X107192000Y-70938751D01*
X107246772Y-70933356D01*
X107299439Y-70917380D01*
X107347977Y-70891436D01*
X107390521Y-70856521D01*
X107425436Y-70813977D01*
X107442000Y-70782989D01*
X107458563Y-70813977D01*
X107493478Y-70856522D01*
X107536023Y-70891437D01*
X107584561Y-70917381D01*
X107637228Y-70933357D01*
X107692000Y-70938752D01*
X107796750Y-70937400D01*
X107866600Y-70867550D01*
X107866600Y-70383400D01*
X107846600Y-70383400D01*
X107846600Y-70332600D01*
X107866600Y-70332600D01*
X107866600Y-69848450D01*
X107796750Y-69778600D01*
X107692000Y-69777248D01*
X107637228Y-69782643D01*
X107584561Y-69798619D01*
X107536023Y-69824563D01*
X107518200Y-69839190D01*
X107518200Y-69352810D01*
X107536023Y-69367437D01*
X107584561Y-69393381D01*
X107637228Y-69409357D01*
X107692000Y-69414752D01*
X107796750Y-69413400D01*
X107866600Y-69343550D01*
X107866600Y-68859400D01*
X107917400Y-68859400D01*
X107917400Y-69343550D01*
X107987250Y-69413400D01*
X108092000Y-69414752D01*
X108146772Y-69409357D01*
X108199439Y-69393381D01*
X108247977Y-69367437D01*
X108290522Y-69332522D01*
X108325437Y-69289977D01*
X108351381Y-69241439D01*
X108367357Y-69188772D01*
X108372752Y-69134000D01*
X108371400Y-68929250D01*
X108301550Y-68859400D01*
X107917400Y-68859400D01*
X107866600Y-68859400D01*
X107846600Y-68859400D01*
X107846600Y-68808600D01*
X107866600Y-68808600D01*
X107866600Y-68324450D01*
X107917400Y-68324450D01*
X107917400Y-68808600D01*
X108301550Y-68808600D01*
X108371400Y-68738750D01*
X108372752Y-68534000D01*
X108367357Y-68479228D01*
X108351381Y-68426561D01*
X108325437Y-68378023D01*
X108290522Y-68335478D01*
X108247977Y-68300563D01*
X108199439Y-68274619D01*
X108146772Y-68258643D01*
X108092000Y-68253248D01*
X107987250Y-68254600D01*
X107917400Y-68324450D01*
X107866600Y-68324450D01*
X107796750Y-68254600D01*
X107692000Y-68253248D01*
X107637228Y-68258643D01*
X107584561Y-68274619D01*
X107536023Y-68300563D01*
X107518200Y-68315190D01*
X107518200Y-68148200D01*
X108576061Y-68148200D01*
X108546478Y-68172478D01*
G37*
%TD.AperFunction*%
D26*
X103466478Y-68172478D02*
X103431563Y-68215023D01*
X103405619Y-68263561D01*
X103389643Y-68316228D01*
X103384248Y-68371000D01*
X103385600Y-68725750D01*
X103455450Y-68795600D01*
X104114600Y-68795600D01*
X104114600Y-68775600D01*
X104165400Y-68775600D01*
X104165400Y-68795600D01*
X104824550Y-68795600D01*
X104894400Y-68725750D01*
X104895752Y-68371000D01*
X104890357Y-68316228D01*
X104874381Y-68263561D01*
X104848437Y-68215023D01*
X104813522Y-68172478D01*
X104783939Y-68148200D01*
X105333800Y-68148200D01*
X105333800Y-70250985D01*
X105197645Y-70114831D01*
X105185711Y-70100289D01*
X105127696Y-70052678D01*
X105061508Y-70017299D01*
X104989689Y-69995513D01*
X104933713Y-69990000D01*
X104933710Y-69990000D01*
X104915000Y-69988157D01*
X104896290Y-69990000D01*
X104868641Y-69990000D01*
X104857253Y-69952457D01*
X104810517Y-69865020D01*
X104747620Y-69788380D01*
X104670980Y-69725483D01*
X104583543Y-69678747D01*
X104488667Y-69649967D01*
X104390000Y-69640249D01*
X103890000Y-69640249D01*
X103791333Y-69649967D01*
X103696457Y-69678747D01*
X103609020Y-69725483D01*
X103532380Y-69788380D01*
X103469483Y-69865020D01*
X103422747Y-69952457D01*
X103411359Y-69990000D01*
X103071817Y-69990000D01*
X103071380Y-69988561D01*
X103045436Y-69940023D01*
X103010521Y-69897479D01*
X102967977Y-69862564D01*
X102919439Y-69836620D01*
X102866772Y-69820644D01*
X102812000Y-69815249D01*
X101912000Y-69815249D01*
X101857228Y-69820644D01*
X101804561Y-69836620D01*
X101756023Y-69862564D01*
X101713479Y-69897479D01*
X101678564Y-69940023D01*
X101652620Y-69988561D01*
X101636644Y-70041228D01*
X101631249Y-70096000D01*
X101631249Y-70321117D01*
X101597814Y-70293678D01*
X101531626Y-70258299D01*
X101459807Y-70236513D01*
X101403831Y-70231000D01*
X101403828Y-70231000D01*
X101385118Y-70229157D01*
X101366408Y-70231000D01*
X101054225Y-70231000D01*
X101035253Y-70168457D01*
X100988517Y-70081020D01*
X100925620Y-70004380D01*
X100903988Y-69986627D01*
X100922400Y-69894066D01*
X100922400Y-69779934D01*
X100900134Y-69667995D01*
X100856457Y-69562551D01*
X100825917Y-69516844D01*
X100848980Y-69504517D01*
X100925620Y-69441620D01*
X100988517Y-69364980D01*
X101035253Y-69277543D01*
X101050585Y-69227000D01*
X101665214Y-69227000D01*
X101678564Y-69251977D01*
X101713479Y-69294521D01*
X101756023Y-69329436D01*
X101804561Y-69355380D01*
X101857228Y-69371356D01*
X101912000Y-69376751D01*
X102812000Y-69376751D01*
X102866772Y-69371356D01*
X102919439Y-69355380D01*
X102967977Y-69329436D01*
X103010521Y-69294521D01*
X103029824Y-69271000D01*
X103384248Y-69271000D01*
X103389643Y-69325772D01*
X103405619Y-69378439D01*
X103431563Y-69426977D01*
X103466478Y-69469522D01*
X103509023Y-69504437D01*
X103557561Y-69530381D01*
X103610228Y-69546357D01*
X103665000Y-69551752D01*
X104044750Y-69550400D01*
X104114600Y-69480550D01*
X104114600Y-68846400D01*
X104165400Y-68846400D01*
X104165400Y-69480550D01*
X104235250Y-69550400D01*
X104615000Y-69551752D01*
X104669772Y-69546357D01*
X104722439Y-69530381D01*
X104770977Y-69504437D01*
X104813522Y-69469522D01*
X104848437Y-69426977D01*
X104874381Y-69378439D01*
X104890357Y-69325772D01*
X104895752Y-69271000D01*
X104894400Y-68916250D01*
X104824550Y-68846400D01*
X104165400Y-68846400D01*
X104114600Y-68846400D01*
X103455450Y-68846400D01*
X103385600Y-68916250D01*
X103384248Y-69271000D01*
X103029824Y-69271000D01*
X103045436Y-69251977D01*
X103071380Y-69203439D01*
X103087356Y-69150772D01*
X103092751Y-69096000D01*
X103092751Y-68596000D01*
X103087356Y-68541228D01*
X103071380Y-68488561D01*
X103045436Y-68440023D01*
X103010521Y-68397479D01*
X102967977Y-68362564D01*
X102919439Y-68336620D01*
X102866772Y-68320644D01*
X102812000Y-68315249D01*
X101912000Y-68315249D01*
X101857228Y-68320644D01*
X101804561Y-68336620D01*
X101756023Y-68362564D01*
X101713479Y-68397479D01*
X101678564Y-68440023D01*
X101665214Y-68465000D01*
X101057865Y-68465000D01*
X101035253Y-68390457D01*
X100988517Y-68303020D01*
X100925620Y-68226380D01*
X100848980Y-68163483D01*
X100820387Y-68148200D01*
X103496061Y-68148200D01*
X103466478Y-68172478D01*
%TA.AperFunction,Conductor*%
D27*
G36*
X103466478Y-68172478D02*
G01*
X103431563Y-68215023D01*
X103405619Y-68263561D01*
X103389643Y-68316228D01*
X103384248Y-68371000D01*
X103385600Y-68725750D01*
X103455450Y-68795600D01*
X104114600Y-68795600D01*
X104114600Y-68775600D01*
X104165400Y-68775600D01*
X104165400Y-68795600D01*
X104824550Y-68795600D01*
X104894400Y-68725750D01*
X104895752Y-68371000D01*
X104890357Y-68316228D01*
X104874381Y-68263561D01*
X104848437Y-68215023D01*
X104813522Y-68172478D01*
X104783939Y-68148200D01*
X105333800Y-68148200D01*
X105333800Y-70250985D01*
X105197645Y-70114831D01*
X105185711Y-70100289D01*
X105127696Y-70052678D01*
X105061508Y-70017299D01*
X104989689Y-69995513D01*
X104933713Y-69990000D01*
X104933710Y-69990000D01*
X104915000Y-69988157D01*
X104896290Y-69990000D01*
X104868641Y-69990000D01*
X104857253Y-69952457D01*
X104810517Y-69865020D01*
X104747620Y-69788380D01*
X104670980Y-69725483D01*
X104583543Y-69678747D01*
X104488667Y-69649967D01*
X104390000Y-69640249D01*
X103890000Y-69640249D01*
X103791333Y-69649967D01*
X103696457Y-69678747D01*
X103609020Y-69725483D01*
X103532380Y-69788380D01*
X103469483Y-69865020D01*
X103422747Y-69952457D01*
X103411359Y-69990000D01*
X103071817Y-69990000D01*
X103071380Y-69988561D01*
X103045436Y-69940023D01*
X103010521Y-69897479D01*
X102967977Y-69862564D01*
X102919439Y-69836620D01*
X102866772Y-69820644D01*
X102812000Y-69815249D01*
X101912000Y-69815249D01*
X101857228Y-69820644D01*
X101804561Y-69836620D01*
X101756023Y-69862564D01*
X101713479Y-69897479D01*
X101678564Y-69940023D01*
X101652620Y-69988561D01*
X101636644Y-70041228D01*
X101631249Y-70096000D01*
X101631249Y-70321117D01*
X101597814Y-70293678D01*
X101531626Y-70258299D01*
X101459807Y-70236513D01*
X101403831Y-70231000D01*
X101403828Y-70231000D01*
X101385118Y-70229157D01*
X101366408Y-70231000D01*
X101054225Y-70231000D01*
X101035253Y-70168457D01*
X100988517Y-70081020D01*
X100925620Y-70004380D01*
X100903988Y-69986627D01*
X100922400Y-69894066D01*
X100922400Y-69779934D01*
X100900134Y-69667995D01*
X100856457Y-69562551D01*
X100825917Y-69516844D01*
X100848980Y-69504517D01*
X100925620Y-69441620D01*
X100988517Y-69364980D01*
X101035253Y-69277543D01*
X101050585Y-69227000D01*
X101665214Y-69227000D01*
X101678564Y-69251977D01*
X101713479Y-69294521D01*
X101756023Y-69329436D01*
X101804561Y-69355380D01*
X101857228Y-69371356D01*
X101912000Y-69376751D01*
X102812000Y-69376751D01*
X102866772Y-69371356D01*
X102919439Y-69355380D01*
X102967977Y-69329436D01*
X103010521Y-69294521D01*
X103029824Y-69271000D01*
X103384248Y-69271000D01*
X103389643Y-69325772D01*
X103405619Y-69378439D01*
X103431563Y-69426977D01*
X103466478Y-69469522D01*
X103509023Y-69504437D01*
X103557561Y-69530381D01*
X103610228Y-69546357D01*
X103665000Y-69551752D01*
X104044750Y-69550400D01*
X104114600Y-69480550D01*
X104114600Y-68846400D01*
X104165400Y-68846400D01*
X104165400Y-69480550D01*
X104235250Y-69550400D01*
X104615000Y-69551752D01*
X104669772Y-69546357D01*
X104722439Y-69530381D01*
X104770977Y-69504437D01*
X104813522Y-69469522D01*
X104848437Y-69426977D01*
X104874381Y-69378439D01*
X104890357Y-69325772D01*
X104895752Y-69271000D01*
X104894400Y-68916250D01*
X104824550Y-68846400D01*
X104165400Y-68846400D01*
X104114600Y-68846400D01*
X103455450Y-68846400D01*
X103385600Y-68916250D01*
X103384248Y-69271000D01*
X103029824Y-69271000D01*
X103045436Y-69251977D01*
X103071380Y-69203439D01*
X103087356Y-69150772D01*
X103092751Y-69096000D01*
X103092751Y-68596000D01*
X103087356Y-68541228D01*
X103071380Y-68488561D01*
X103045436Y-68440023D01*
X103010521Y-68397479D01*
X102967977Y-68362564D01*
X102919439Y-68336620D01*
X102866772Y-68320644D01*
X102812000Y-68315249D01*
X101912000Y-68315249D01*
X101857228Y-68320644D01*
X101804561Y-68336620D01*
X101756023Y-68362564D01*
X101713479Y-68397479D01*
X101678564Y-68440023D01*
X101665214Y-68465000D01*
X101057865Y-68465000D01*
X101035253Y-68390457D01*
X100988517Y-68303020D01*
X100925620Y-68226380D01*
X100848980Y-68163483D01*
X100820387Y-68148200D01*
X103496061Y-68148200D01*
X103466478Y-68172478D01*
G37*
%TD.AperFunction*%
%TD*%
M02*
