%TF.GenerationSoftware,KiCad,Pcbnew,(5.1.7)-1*%
%TF.CreationDate,2020-10-27T00:37:30-04:00*%
%TF.ProjectId,esp8285bee,65737038-3238-4356-9265-652e6b696361,rev?*%
%TF.SameCoordinates,Original*%
%TF.FileFunction,Copper,L2,Bot*%
%TF.FilePolarity,Positive*%
%FSLAX46Y46*%
G04 Gerber Fmt 4.6, Leading zero omitted, Abs format (unit mm)*
G04 Created by KiCad (PCBNEW (5.1.7)-1) date 2020-10-27 00:37:30*
%MOMM*%
%LPD*%
G01*
G04 APERTURE LIST*
%TA.AperFunction,EtchedComponent*%
%ADD10C,0.100000*%
%TD*%
%TA.AperFunction,SMDPad,CuDef*%
%ADD11C,0.100000*%
%TD*%
%TA.AperFunction,ComponentPad*%
%ADD12C,1.700000*%
%TD*%
%TA.AperFunction,SMDPad,CuDef*%
%ADD13R,0.700000X1.500000*%
%TD*%
%TA.AperFunction,SMDPad,CuDef*%
%ADD14R,1.000000X0.800000*%
%TD*%
%TA.AperFunction,ComponentPad*%
%ADD15R,0.900000X0.500000*%
%TD*%
%TA.AperFunction,ViaPad*%
%ADD16C,0.600000*%
%TD*%
%TA.AperFunction,Conductor*%
%ADD17C,0.203200*%
%TD*%
%TA.AperFunction,Conductor*%
%ADD18C,0.152400*%
%TD*%
%TA.AperFunction,Conductor*%
%ADD19C,0.100000*%
%TD*%
G04 APERTURE END LIST*
D10*
%TO.C,JP1*%
G36*
X93222000Y-74630000D02*
G01*
X93722000Y-74630000D01*
X93722000Y-75230000D01*
X93222000Y-75230000D01*
X93222000Y-74630000D01*
G37*
%TO.C,JP2*%
G36*
X93722000Y-77770000D02*
G01*
X93222000Y-77770000D01*
X93222000Y-77170000D01*
X93722000Y-77170000D01*
X93722000Y-77770000D01*
G37*
%TD*%
%TA.AperFunction,SMDPad,CuDef*%
D11*
%TO.P,JP1,1*%
%TO.N,/RESET*%
G36*
X93622000Y-74180000D02*
G01*
X94122000Y-74180000D01*
X94122000Y-74180602D01*
X94146534Y-74180602D01*
X94195365Y-74185412D01*
X94243490Y-74194984D01*
X94290445Y-74209228D01*
X94335778Y-74228005D01*
X94379051Y-74251136D01*
X94419850Y-74278396D01*
X94457779Y-74309524D01*
X94492476Y-74344221D01*
X94523604Y-74382150D01*
X94550864Y-74422949D01*
X94573995Y-74466222D01*
X94592772Y-74511555D01*
X94607016Y-74558510D01*
X94616588Y-74606635D01*
X94621398Y-74655466D01*
X94621398Y-74680000D01*
X94622000Y-74680000D01*
X94622000Y-75180000D01*
X94621398Y-75180000D01*
X94621398Y-75204534D01*
X94616588Y-75253365D01*
X94607016Y-75301490D01*
X94592772Y-75348445D01*
X94573995Y-75393778D01*
X94550864Y-75437051D01*
X94523604Y-75477850D01*
X94492476Y-75515779D01*
X94457779Y-75550476D01*
X94419850Y-75581604D01*
X94379051Y-75608864D01*
X94335778Y-75631995D01*
X94290445Y-75650772D01*
X94243490Y-75665016D01*
X94195365Y-75674588D01*
X94146534Y-75679398D01*
X94122000Y-75679398D01*
X94122000Y-75680000D01*
X93622000Y-75680000D01*
X93622000Y-74180000D01*
G37*
%TD.AperFunction*%
%TA.AperFunction,SMDPad,CuDef*%
%TO.P,JP1,2*%
%TO.N,Net-(JP1-Pad2)*%
G36*
X92822000Y-75679398D02*
G01*
X92797466Y-75679398D01*
X92748635Y-75674588D01*
X92700510Y-75665016D01*
X92653555Y-75650772D01*
X92608222Y-75631995D01*
X92564949Y-75608864D01*
X92524150Y-75581604D01*
X92486221Y-75550476D01*
X92451524Y-75515779D01*
X92420396Y-75477850D01*
X92393136Y-75437051D01*
X92370005Y-75393778D01*
X92351228Y-75348445D01*
X92336984Y-75301490D01*
X92327412Y-75253365D01*
X92322602Y-75204534D01*
X92322602Y-75180000D01*
X92322000Y-75180000D01*
X92322000Y-74680000D01*
X92322602Y-74680000D01*
X92322602Y-74655466D01*
X92327412Y-74606635D01*
X92336984Y-74558510D01*
X92351228Y-74511555D01*
X92370005Y-74466222D01*
X92393136Y-74422949D01*
X92420396Y-74382150D01*
X92451524Y-74344221D01*
X92486221Y-74309524D01*
X92524150Y-74278396D01*
X92564949Y-74251136D01*
X92608222Y-74228005D01*
X92653555Y-74209228D01*
X92700510Y-74194984D01*
X92748635Y-74185412D01*
X92797466Y-74180602D01*
X92822000Y-74180602D01*
X92822000Y-74180000D01*
X93322000Y-74180000D01*
X93322000Y-75680000D01*
X92822000Y-75680000D01*
X92822000Y-75679398D01*
G37*
%TD.AperFunction*%
%TD*%
%TA.AperFunction,SMDPad,CuDef*%
%TO.P,JP2,2*%
%TO.N,/BOOT*%
G36*
X94122000Y-76720602D02*
G01*
X94146534Y-76720602D01*
X94195365Y-76725412D01*
X94243490Y-76734984D01*
X94290445Y-76749228D01*
X94335778Y-76768005D01*
X94379051Y-76791136D01*
X94419850Y-76818396D01*
X94457779Y-76849524D01*
X94492476Y-76884221D01*
X94523604Y-76922150D01*
X94550864Y-76962949D01*
X94573995Y-77006222D01*
X94592772Y-77051555D01*
X94607016Y-77098510D01*
X94616588Y-77146635D01*
X94621398Y-77195466D01*
X94621398Y-77220000D01*
X94622000Y-77220000D01*
X94622000Y-77720000D01*
X94621398Y-77720000D01*
X94621398Y-77744534D01*
X94616588Y-77793365D01*
X94607016Y-77841490D01*
X94592772Y-77888445D01*
X94573995Y-77933778D01*
X94550864Y-77977051D01*
X94523604Y-78017850D01*
X94492476Y-78055779D01*
X94457779Y-78090476D01*
X94419850Y-78121604D01*
X94379051Y-78148864D01*
X94335778Y-78171995D01*
X94290445Y-78190772D01*
X94243490Y-78205016D01*
X94195365Y-78214588D01*
X94146534Y-78219398D01*
X94122000Y-78219398D01*
X94122000Y-78220000D01*
X93622000Y-78220000D01*
X93622000Y-76720000D01*
X94122000Y-76720000D01*
X94122000Y-76720602D01*
G37*
%TD.AperFunction*%
%TA.AperFunction,SMDPad,CuDef*%
%TO.P,JP2,1*%
%TO.N,Net-(JP2-Pad1)*%
G36*
X93322000Y-78220000D02*
G01*
X92822000Y-78220000D01*
X92822000Y-78219398D01*
X92797466Y-78219398D01*
X92748635Y-78214588D01*
X92700510Y-78205016D01*
X92653555Y-78190772D01*
X92608222Y-78171995D01*
X92564949Y-78148864D01*
X92524150Y-78121604D01*
X92486221Y-78090476D01*
X92451524Y-78055779D01*
X92420396Y-78017850D01*
X92393136Y-77977051D01*
X92370005Y-77933778D01*
X92351228Y-77888445D01*
X92336984Y-77841490D01*
X92327412Y-77793365D01*
X92322602Y-77744534D01*
X92322602Y-77720000D01*
X92322000Y-77720000D01*
X92322000Y-77220000D01*
X92322602Y-77220000D01*
X92322602Y-77195466D01*
X92327412Y-77146635D01*
X92336984Y-77098510D01*
X92351228Y-77051555D01*
X92370005Y-77006222D01*
X92393136Y-76962949D01*
X92420396Y-76922150D01*
X92451524Y-76884221D01*
X92486221Y-76849524D01*
X92524150Y-76818396D01*
X92564949Y-76791136D01*
X92608222Y-76768005D01*
X92653555Y-76749228D01*
X92700510Y-76734984D01*
X92748635Y-76725412D01*
X92797466Y-76720602D01*
X92822000Y-76720602D01*
X92822000Y-76720000D01*
X93322000Y-76720000D01*
X93322000Y-78220000D01*
G37*
%TD.AperFunction*%
%TD*%
D12*
%TO.P,MOD1,1*%
%TO.N,+3V3*%
X90600000Y-67200000D03*
%TO.P,MOD1,2*%
%TO.N,/TX*%
X90600000Y-69200000D03*
%TO.P,MOD1,3*%
%TO.N,/RX*%
X90600000Y-71200000D03*
%TO.P,MOD1,4*%
%TO.N,N/C*%
X90600000Y-73200000D03*
%TO.P,MOD1,5*%
%TO.N,Net-(JP1-Pad2)*%
X90600000Y-75200000D03*
%TO.P,MOD1,6*%
%TO.N,Net-(JP2-Pad1)*%
X90600000Y-77200000D03*
%TO.P,MOD1,7*%
%TO.N,N/C*%
X90600000Y-79200000D03*
%TO.P,MOD1,8*%
X90600000Y-81200000D03*
%TO.P,MOD1,9*%
X90600000Y-83200000D03*
%TO.P,MOD1,10*%
%TO.N,GND*%
X90600000Y-85200000D03*
%TO.P,MOD1,11*%
%TO.N,N/C*%
X112600000Y-85200000D03*
%TO.P,MOD1,12*%
X112600000Y-83200000D03*
%TO.P,MOD1,13*%
X112600000Y-81200000D03*
%TO.P,MOD1,14*%
X112600000Y-79200000D03*
%TO.P,MOD1,15*%
X112600000Y-77200000D03*
%TO.P,MOD1,16*%
X112600000Y-75200000D03*
%TO.P,MOD1,17*%
X112600000Y-73200000D03*
%TO.P,MOD1,18*%
X112600000Y-71200000D03*
%TO.P,MOD1,19*%
X112600000Y-69200000D03*
%TO.P,MOD1,20*%
X112600000Y-67200000D03*
%TD*%
D13*
%TO.P,SW3,1*%
%TO.N,GND*%
X103850000Y-83152000D03*
%TO.P,SW3,2*%
%TO.N,Net-(R7-Pad2)*%
X100850000Y-83152000D03*
%TO.P,SW3,3*%
%TO.N,+3V3*%
X99350000Y-83152000D03*
D14*
%TO.P,SW3,*%
%TO.N,*%
X105250000Y-86012000D03*
X97950000Y-86012000D03*
X97950000Y-83802000D03*
X105250000Y-83802000D03*
%TD*%
D15*
%TO.P,AE1,2*%
%TO.N,GND*%
X108272000Y-67564000D03*
%TD*%
D16*
%TO.N,GND*%
X111664525Y-68226660D03*
X105156000Y-68834000D03*
X97790000Y-70612000D03*
X104039500Y-75030500D03*
X105764500Y-75030500D03*
X104039500Y-73305500D03*
X105764500Y-73305500D03*
X111693080Y-72200000D03*
X106172000Y-77724000D03*
X109220000Y-77216000D03*
X91948000Y-70104000D03*
X92710000Y-70358000D03*
X97028000Y-70612000D03*
X103378000Y-69596000D03*
X107915017Y-69576955D03*
X97790000Y-68834000D03*
X110744000Y-67564000D03*
X109728000Y-67564000D03*
%TO.N,+3V3*%
X108031998Y-73660000D03*
X110490000Y-71120000D03*
X101600000Y-72898000D03*
X103124000Y-77470000D03*
X99314000Y-81534000D03*
X100343000Y-69837000D03*
%TO.N,/RESET*%
X95504000Y-76200000D03*
X107442000Y-71975600D03*
X97815116Y-72533010D03*
%TO.N,/BOOT*%
X100330000Y-77470000D03*
%TO.N,Net-(JP3-Pad2)*%
X97028000Y-72390000D03*
X101240963Y-71318637D03*
%TO.N,/TX*%
X107950000Y-77216000D03*
%TO.N,/RX*%
X107277002Y-76708000D03*
X94742000Y-71120000D03*
%TO.N,Net-(R7-Pad2)*%
X98806000Y-78994000D03*
%TD*%
D17*
%TO.N,+3V3*%
X110490000Y-71201998D02*
X110490000Y-71120000D01*
X108031998Y-73660000D02*
X110490000Y-71201998D01*
X101600000Y-74168000D02*
X101600000Y-72898000D01*
X101600000Y-75946000D02*
X103124000Y-77470000D01*
X99314000Y-83116000D02*
X99350000Y-83152000D01*
X99314000Y-81534000D02*
X99314000Y-83116000D01*
X90600000Y-67200000D02*
X93108000Y-67200000D01*
X93108000Y-67200000D02*
X95745000Y-69837000D01*
X95745000Y-69837000D02*
X100343000Y-69837000D01*
X107188000Y-74422000D02*
X101600000Y-74422000D01*
X107950000Y-73660000D02*
X107188000Y-74422000D01*
X108031998Y-73660000D02*
X107950000Y-73660000D01*
X101600000Y-74422000D02*
X101600000Y-75946000D01*
X101600000Y-74168000D02*
X101600000Y-74422000D01*
%TO.N,/RESET*%
X94122000Y-74930000D02*
X94122000Y-75834000D01*
X94488000Y-76200000D02*
X95504000Y-76200000D01*
X94122000Y-75834000D02*
X94488000Y-76200000D01*
X107442000Y-71975600D02*
X107442000Y-73359628D01*
X107442000Y-73359628D02*
X107442000Y-73406000D01*
X107442000Y-73406000D02*
X106934000Y-73914000D01*
X106934000Y-73914000D02*
X102362000Y-73914000D01*
X102362000Y-73914000D02*
X102201601Y-73753601D01*
X102201601Y-73753601D02*
X102201601Y-72609231D01*
X98051727Y-72296399D02*
X97815116Y-72533010D01*
X101888769Y-72296399D02*
X98051727Y-72296399D01*
X102201601Y-72609231D02*
X101888769Y-72296399D01*
%TO.N,Net-(JP1-Pad2)*%
X90600000Y-75200000D02*
X91678000Y-75200000D01*
X91948000Y-74930000D02*
X92822000Y-74930000D01*
X91678000Y-75200000D02*
X91948000Y-74930000D01*
%TO.N,/BOOT*%
X94122000Y-77470000D02*
X100330000Y-77470000D01*
%TO.N,Net-(JP2-Pad1)*%
X90600000Y-77200000D02*
X91678000Y-77200000D01*
X91948000Y-77470000D02*
X92822000Y-77470000D01*
X91678000Y-77200000D02*
X91948000Y-77470000D01*
%TO.N,Net-(JP3-Pad2)*%
X97455400Y-71962600D02*
X97028000Y-72390000D01*
X98099363Y-71318637D02*
X97455400Y-71962600D01*
X101240963Y-71318637D02*
X98099363Y-71318637D01*
%TO.N,/TX*%
X92568000Y-69200000D02*
X90600000Y-69200000D01*
X93980000Y-70612000D02*
X92568000Y-69200000D01*
X107950000Y-76925372D02*
X107565771Y-77309601D01*
X107565771Y-77309601D02*
X106647971Y-77309601D01*
X106647971Y-77309601D02*
X106460769Y-77122399D01*
X105757601Y-77122399D02*
X105664000Y-77216000D01*
X106460769Y-77122399D02*
X105757601Y-77122399D01*
X105664000Y-77216000D02*
X104964224Y-77216000D01*
X102288587Y-78474811D02*
X97208587Y-73394811D01*
X104964224Y-77216000D02*
X103705414Y-78474811D01*
X103705414Y-78474811D02*
X102288587Y-78474811D01*
X96126441Y-73394811D02*
X93980000Y-71248370D01*
X97208587Y-73394811D02*
X96126441Y-73394811D01*
X107950000Y-77216000D02*
X107950000Y-76925372D01*
X93980000Y-71248370D02*
X93980000Y-70612000D01*
%TO.N,/RX*%
X107023002Y-76454000D02*
X105156000Y-76454000D01*
X107277002Y-76708000D02*
X107023002Y-76454000D01*
X103538399Y-78071601D02*
X102455601Y-78071601D01*
X105156000Y-76454000D02*
X103538399Y-78071601D01*
X96613601Y-72991601D02*
X94742000Y-71120000D01*
X97375601Y-72991601D02*
X96613601Y-72991601D01*
X102455601Y-78071601D02*
X97375601Y-72991601D01*
%TO.N,Net-(R7-Pad2)*%
X100850000Y-81038000D02*
X98806000Y-78994000D01*
X100850000Y-83152000D02*
X100850000Y-81038000D01*
%TD*%
D18*
%TO.N,GND*%
X111429800Y-68072000D02*
X111431264Y-68086866D01*
X111435600Y-68101160D01*
X111442642Y-68114334D01*
X111452118Y-68125882D01*
X111463666Y-68135358D01*
X111476840Y-68142400D01*
X111491134Y-68146736D01*
X111506000Y-68148200D01*
X111986214Y-68148200D01*
X112063738Y-68200000D01*
X111880049Y-68322737D01*
X111722737Y-68480049D01*
X111599138Y-68665028D01*
X111514002Y-68870566D01*
X111470600Y-69088764D01*
X111470600Y-69311236D01*
X111514002Y-69529434D01*
X111599138Y-69734972D01*
X111722737Y-69919951D01*
X111880049Y-70077263D01*
X112063738Y-70200000D01*
X111880049Y-70322737D01*
X111722737Y-70480049D01*
X111599138Y-70665028D01*
X111514002Y-70870566D01*
X111470600Y-71088764D01*
X111470600Y-71311236D01*
X111514002Y-71529434D01*
X111599138Y-71734972D01*
X111722737Y-71919951D01*
X111880049Y-72077263D01*
X112063738Y-72200000D01*
X111880049Y-72322737D01*
X111722737Y-72480049D01*
X111599138Y-72665028D01*
X111514002Y-72870566D01*
X111470600Y-73088764D01*
X111470600Y-73311236D01*
X111514002Y-73529434D01*
X111599138Y-73734972D01*
X111722737Y-73919951D01*
X111880049Y-74077263D01*
X112063738Y-74200000D01*
X111880049Y-74322737D01*
X111722737Y-74480049D01*
X111599138Y-74665028D01*
X111514002Y-74870566D01*
X111470600Y-75088764D01*
X111470600Y-75311236D01*
X111514002Y-75529434D01*
X111599138Y-75734972D01*
X111722737Y-75919951D01*
X111880049Y-76077263D01*
X112063738Y-76200000D01*
X111880049Y-76322737D01*
X111722737Y-76480049D01*
X111599138Y-76665028D01*
X111514002Y-76870566D01*
X111470600Y-77088764D01*
X111470600Y-77311236D01*
X111514002Y-77529434D01*
X111599138Y-77734972D01*
X111722737Y-77919951D01*
X111880049Y-78077263D01*
X112063738Y-78200000D01*
X111880049Y-78322737D01*
X111722737Y-78480049D01*
X111599138Y-78665028D01*
X111514002Y-78870566D01*
X111470600Y-79088764D01*
X111470600Y-79311236D01*
X111514002Y-79529434D01*
X111599138Y-79734972D01*
X111722737Y-79919951D01*
X111880049Y-80077263D01*
X112063738Y-80200000D01*
X111880049Y-80322737D01*
X111722737Y-80480049D01*
X111599138Y-80665028D01*
X111514002Y-80870566D01*
X111470600Y-81088764D01*
X111470600Y-81311236D01*
X111514002Y-81529434D01*
X111599138Y-81734972D01*
X111722737Y-81919951D01*
X111880049Y-82077263D01*
X112063738Y-82200000D01*
X111880049Y-82322737D01*
X111722737Y-82480049D01*
X111599138Y-82665028D01*
X111514002Y-82870566D01*
X111470600Y-83088764D01*
X111470600Y-83311236D01*
X111514002Y-83529434D01*
X111599138Y-83734972D01*
X111722737Y-83919951D01*
X111880049Y-84077263D01*
X112063738Y-84200000D01*
X111880049Y-84322737D01*
X111722737Y-84480049D01*
X111599138Y-84665028D01*
X111514002Y-84870566D01*
X111470600Y-85088764D01*
X111470600Y-85311236D01*
X111514002Y-85529434D01*
X111599138Y-85734972D01*
X111722737Y-85919951D01*
X111880049Y-86077263D01*
X112065028Y-86200862D01*
X112270566Y-86285998D01*
X112488764Y-86329400D01*
X112711236Y-86329400D01*
X112929434Y-86285998D01*
X113134972Y-86200862D01*
X113319951Y-86077263D01*
X113477263Y-85919951D01*
X113600862Y-85734972D01*
X113685998Y-85529434D01*
X113729400Y-85311236D01*
X113729400Y-85088764D01*
X113685998Y-84870566D01*
X113600862Y-84665028D01*
X113477263Y-84480049D01*
X113319951Y-84322737D01*
X113136262Y-84200000D01*
X113319951Y-84077263D01*
X113477263Y-83919951D01*
X113600862Y-83734972D01*
X113685998Y-83529434D01*
X113729400Y-83311236D01*
X113729400Y-83088764D01*
X113685998Y-82870566D01*
X113600862Y-82665028D01*
X113477263Y-82480049D01*
X113319951Y-82322737D01*
X113136262Y-82200000D01*
X113319951Y-82077263D01*
X113477263Y-81919951D01*
X113600862Y-81734972D01*
X113685998Y-81529434D01*
X113729400Y-81311236D01*
X113729400Y-81088764D01*
X113685998Y-80870566D01*
X113600862Y-80665028D01*
X113477263Y-80480049D01*
X113319951Y-80322737D01*
X113136262Y-80200000D01*
X113319951Y-80077263D01*
X113477263Y-79919951D01*
X113600862Y-79734972D01*
X113685998Y-79529434D01*
X113729400Y-79311236D01*
X113729400Y-79088764D01*
X113685998Y-78870566D01*
X113600862Y-78665028D01*
X113477263Y-78480049D01*
X113319951Y-78322737D01*
X113136262Y-78200000D01*
X113319951Y-78077263D01*
X113477263Y-77919951D01*
X113600862Y-77734972D01*
X113685998Y-77529434D01*
X113729400Y-77311236D01*
X113729400Y-77088764D01*
X113685998Y-76870566D01*
X113600862Y-76665028D01*
X113477263Y-76480049D01*
X113319951Y-76322737D01*
X113136262Y-76200000D01*
X113319951Y-76077263D01*
X113477263Y-75919951D01*
X113600862Y-75734972D01*
X113685998Y-75529434D01*
X113729400Y-75311236D01*
X113729400Y-75088764D01*
X113685998Y-74870566D01*
X113600862Y-74665028D01*
X113477263Y-74480049D01*
X113319951Y-74322737D01*
X113136262Y-74200000D01*
X113319951Y-74077263D01*
X113477263Y-73919951D01*
X113600862Y-73734972D01*
X113685998Y-73529434D01*
X113729400Y-73311236D01*
X113729400Y-73088764D01*
X113685998Y-72870566D01*
X113600862Y-72665028D01*
X113477263Y-72480049D01*
X113319951Y-72322737D01*
X113136262Y-72200000D01*
X113319951Y-72077263D01*
X113477263Y-71919951D01*
X113600862Y-71734972D01*
X113685998Y-71529434D01*
X113729400Y-71311236D01*
X113729400Y-71088764D01*
X113685998Y-70870566D01*
X113600862Y-70665028D01*
X113477263Y-70480049D01*
X113319951Y-70322737D01*
X113136262Y-70200000D01*
X113319951Y-70077263D01*
X113477263Y-69919951D01*
X113600862Y-69734972D01*
X113685998Y-69529434D01*
X113729400Y-69311236D01*
X113729400Y-69088764D01*
X113685998Y-68870566D01*
X113600862Y-68665028D01*
X113477263Y-68480049D01*
X113319951Y-68322737D01*
X113136262Y-68200000D01*
X113213786Y-68148200D01*
X113741601Y-68148200D01*
X113741600Y-86817600D01*
X89458400Y-86817600D01*
X89458400Y-85970826D01*
X89865095Y-85970826D01*
X89953659Y-86132825D01*
X90148063Y-86240996D01*
X90359835Y-86309162D01*
X90580837Y-86334703D01*
X90802575Y-86316639D01*
X91016528Y-86255663D01*
X91214474Y-86154118D01*
X91246341Y-86132825D01*
X91334905Y-85970826D01*
X90600000Y-85235921D01*
X89865095Y-85970826D01*
X89458400Y-85970826D01*
X89458400Y-85180837D01*
X89465297Y-85180837D01*
X89483361Y-85402575D01*
X89544337Y-85616528D01*
X89645882Y-85814474D01*
X89667175Y-85846341D01*
X89829174Y-85934905D01*
X90564079Y-85200000D01*
X90635921Y-85200000D01*
X91370826Y-85934905D01*
X91532825Y-85846341D01*
X91640996Y-85651937D01*
X91653851Y-85612000D01*
X97169249Y-85612000D01*
X97169249Y-86412000D01*
X97174644Y-86466772D01*
X97190620Y-86519439D01*
X97216564Y-86567977D01*
X97251479Y-86610521D01*
X97294023Y-86645436D01*
X97342561Y-86671380D01*
X97395228Y-86687356D01*
X97450000Y-86692751D01*
X98450000Y-86692751D01*
X98504772Y-86687356D01*
X98557439Y-86671380D01*
X98605977Y-86645436D01*
X98648521Y-86610521D01*
X98683436Y-86567977D01*
X98709380Y-86519439D01*
X98725356Y-86466772D01*
X98730751Y-86412000D01*
X98730751Y-85612000D01*
X98725356Y-85557228D01*
X98709380Y-85504561D01*
X98683436Y-85456023D01*
X98648521Y-85413479D01*
X98605977Y-85378564D01*
X98557439Y-85352620D01*
X98504772Y-85336644D01*
X98450000Y-85331249D01*
X97450000Y-85331249D01*
X97395228Y-85336644D01*
X97342561Y-85352620D01*
X97294023Y-85378564D01*
X97251479Y-85413479D01*
X97216564Y-85456023D01*
X97190620Y-85504561D01*
X97174644Y-85557228D01*
X97169249Y-85612000D01*
X91653851Y-85612000D01*
X91709162Y-85440165D01*
X91734703Y-85219163D01*
X91716639Y-84997425D01*
X91671819Y-84840160D01*
X99370600Y-84840160D01*
X99370600Y-84983840D01*
X99398631Y-85124758D01*
X99453614Y-85257500D01*
X99533438Y-85376965D01*
X99635035Y-85478562D01*
X99754500Y-85558386D01*
X99887242Y-85613369D01*
X100028160Y-85641400D01*
X100171840Y-85641400D01*
X100312758Y-85613369D01*
X100445500Y-85558386D01*
X100512302Y-85513750D01*
X100744600Y-85513750D01*
X100744600Y-85682250D01*
X100777472Y-85847511D01*
X100841954Y-86003184D01*
X100935567Y-86143286D01*
X101054714Y-86262433D01*
X101194816Y-86356046D01*
X101350489Y-86420528D01*
X101515750Y-86453400D01*
X101684250Y-86453400D01*
X101849511Y-86420528D01*
X102005184Y-86356046D01*
X102145286Y-86262433D01*
X102264433Y-86143286D01*
X102358046Y-86003184D01*
X102422528Y-85847511D01*
X102455400Y-85682250D01*
X102455400Y-85513750D01*
X102422528Y-85348489D01*
X102358046Y-85192816D01*
X102264433Y-85052714D01*
X102145286Y-84933567D01*
X102005493Y-84840160D01*
X102370600Y-84840160D01*
X102370600Y-84983840D01*
X102398631Y-85124758D01*
X102453614Y-85257500D01*
X102533438Y-85376965D01*
X102635035Y-85478562D01*
X102754500Y-85558386D01*
X102887242Y-85613369D01*
X103028160Y-85641400D01*
X103171840Y-85641400D01*
X103312758Y-85613369D01*
X103316063Y-85612000D01*
X104469249Y-85612000D01*
X104469249Y-86412000D01*
X104474644Y-86466772D01*
X104490620Y-86519439D01*
X104516564Y-86567977D01*
X104551479Y-86610521D01*
X104594023Y-86645436D01*
X104642561Y-86671380D01*
X104695228Y-86687356D01*
X104750000Y-86692751D01*
X105750000Y-86692751D01*
X105804772Y-86687356D01*
X105857439Y-86671380D01*
X105905977Y-86645436D01*
X105948521Y-86610521D01*
X105983436Y-86567977D01*
X106009380Y-86519439D01*
X106025356Y-86466772D01*
X106030751Y-86412000D01*
X106030751Y-85612000D01*
X106025356Y-85557228D01*
X106009380Y-85504561D01*
X105983436Y-85456023D01*
X105948521Y-85413479D01*
X105905977Y-85378564D01*
X105857439Y-85352620D01*
X105804772Y-85336644D01*
X105750000Y-85331249D01*
X104750000Y-85331249D01*
X104695228Y-85336644D01*
X104642561Y-85352620D01*
X104594023Y-85378564D01*
X104551479Y-85413479D01*
X104516564Y-85456023D01*
X104490620Y-85504561D01*
X104474644Y-85557228D01*
X104469249Y-85612000D01*
X103316063Y-85612000D01*
X103445500Y-85558386D01*
X103564965Y-85478562D01*
X103666562Y-85376965D01*
X103746386Y-85257500D01*
X103801369Y-85124758D01*
X103829400Y-84983840D01*
X103829400Y-84840160D01*
X103801369Y-84699242D01*
X103746386Y-84566500D01*
X103666562Y-84447035D01*
X103564965Y-84345438D01*
X103445500Y-84265614D01*
X103312758Y-84210631D01*
X103171840Y-84182600D01*
X103028160Y-84182600D01*
X102887242Y-84210631D01*
X102754500Y-84265614D01*
X102635035Y-84345438D01*
X102533438Y-84447035D01*
X102453614Y-84566500D01*
X102398631Y-84699242D01*
X102370600Y-84840160D01*
X102005493Y-84840160D01*
X102005184Y-84839954D01*
X101849511Y-84775472D01*
X101684250Y-84742600D01*
X101515750Y-84742600D01*
X101350489Y-84775472D01*
X101194816Y-84839954D01*
X101054714Y-84933567D01*
X100935567Y-85052714D01*
X100841954Y-85192816D01*
X100777472Y-85348489D01*
X100744600Y-85513750D01*
X100512302Y-85513750D01*
X100564965Y-85478562D01*
X100666562Y-85376965D01*
X100746386Y-85257500D01*
X100801369Y-85124758D01*
X100829400Y-84983840D01*
X100829400Y-84840160D01*
X100801369Y-84699242D01*
X100746386Y-84566500D01*
X100666562Y-84447035D01*
X100564965Y-84345438D01*
X100445500Y-84265614D01*
X100312758Y-84210631D01*
X100171840Y-84182600D01*
X100028160Y-84182600D01*
X99887242Y-84210631D01*
X99754500Y-84265614D01*
X99635035Y-84345438D01*
X99533438Y-84447035D01*
X99453614Y-84566500D01*
X99398631Y-84699242D01*
X99370600Y-84840160D01*
X91671819Y-84840160D01*
X91655663Y-84783472D01*
X91554118Y-84585526D01*
X91532825Y-84553659D01*
X91370826Y-84465095D01*
X90635921Y-85200000D01*
X90564079Y-85200000D01*
X89829174Y-84465095D01*
X89667175Y-84553659D01*
X89559004Y-84748063D01*
X89490838Y-84959835D01*
X89465297Y-85180837D01*
X89458400Y-85180837D01*
X89458400Y-68148200D01*
X89986214Y-68148200D01*
X90063738Y-68200000D01*
X89880049Y-68322737D01*
X89722737Y-68480049D01*
X89599138Y-68665028D01*
X89514002Y-68870566D01*
X89470600Y-69088764D01*
X89470600Y-69311236D01*
X89514002Y-69529434D01*
X89599138Y-69734972D01*
X89722737Y-69919951D01*
X89880049Y-70077263D01*
X90063738Y-70200000D01*
X89880049Y-70322737D01*
X89722737Y-70480049D01*
X89599138Y-70665028D01*
X89514002Y-70870566D01*
X89470600Y-71088764D01*
X89470600Y-71311236D01*
X89514002Y-71529434D01*
X89599138Y-71734972D01*
X89722737Y-71919951D01*
X89880049Y-72077263D01*
X90063738Y-72200000D01*
X89880049Y-72322737D01*
X89722737Y-72480049D01*
X89599138Y-72665028D01*
X89514002Y-72870566D01*
X89470600Y-73088764D01*
X89470600Y-73311236D01*
X89514002Y-73529434D01*
X89599138Y-73734972D01*
X89722737Y-73919951D01*
X89880049Y-74077263D01*
X90063738Y-74200000D01*
X89880049Y-74322737D01*
X89722737Y-74480049D01*
X89599138Y-74665028D01*
X89514002Y-74870566D01*
X89470600Y-75088764D01*
X89470600Y-75311236D01*
X89514002Y-75529434D01*
X89599138Y-75734972D01*
X89722737Y-75919951D01*
X89880049Y-76077263D01*
X90063738Y-76200000D01*
X89880049Y-76322737D01*
X89722737Y-76480049D01*
X89599138Y-76665028D01*
X89514002Y-76870566D01*
X89470600Y-77088764D01*
X89470600Y-77311236D01*
X89514002Y-77529434D01*
X89599138Y-77734972D01*
X89722737Y-77919951D01*
X89880049Y-78077263D01*
X90063738Y-78200000D01*
X89880049Y-78322737D01*
X89722737Y-78480049D01*
X89599138Y-78665028D01*
X89514002Y-78870566D01*
X89470600Y-79088764D01*
X89470600Y-79311236D01*
X89514002Y-79529434D01*
X89599138Y-79734972D01*
X89722737Y-79919951D01*
X89880049Y-80077263D01*
X90063738Y-80200000D01*
X89880049Y-80322737D01*
X89722737Y-80480049D01*
X89599138Y-80665028D01*
X89514002Y-80870566D01*
X89470600Y-81088764D01*
X89470600Y-81311236D01*
X89514002Y-81529434D01*
X89599138Y-81734972D01*
X89722737Y-81919951D01*
X89880049Y-82077263D01*
X90063738Y-82200000D01*
X89880049Y-82322737D01*
X89722737Y-82480049D01*
X89599138Y-82665028D01*
X89514002Y-82870566D01*
X89470600Y-83088764D01*
X89470600Y-83311236D01*
X89514002Y-83529434D01*
X89599138Y-83734972D01*
X89722737Y-83919951D01*
X89880049Y-84077263D01*
X90065028Y-84200862D01*
X90069597Y-84202754D01*
X89985526Y-84245882D01*
X89953659Y-84267175D01*
X89865095Y-84429174D01*
X90600000Y-85164079D01*
X91334905Y-84429174D01*
X91246341Y-84267175D01*
X91130496Y-84202716D01*
X91134972Y-84200862D01*
X91319951Y-84077263D01*
X91477263Y-83919951D01*
X91600862Y-83734972D01*
X91685998Y-83529434D01*
X91711346Y-83402000D01*
X97169249Y-83402000D01*
X97169249Y-84202000D01*
X97174644Y-84256772D01*
X97190620Y-84309439D01*
X97216564Y-84357977D01*
X97251479Y-84400521D01*
X97294023Y-84435436D01*
X97342561Y-84461380D01*
X97395228Y-84477356D01*
X97450000Y-84482751D01*
X98450000Y-84482751D01*
X98504772Y-84477356D01*
X98557439Y-84461380D01*
X98605977Y-84435436D01*
X98648521Y-84400521D01*
X98683436Y-84357977D01*
X98709380Y-84309439D01*
X98725356Y-84256772D01*
X98730751Y-84202000D01*
X98730751Y-83976905D01*
X98740620Y-84009439D01*
X98766564Y-84057977D01*
X98801479Y-84100521D01*
X98844023Y-84135436D01*
X98892561Y-84161380D01*
X98945228Y-84177356D01*
X99000000Y-84182751D01*
X99700000Y-84182751D01*
X99754772Y-84177356D01*
X99807439Y-84161380D01*
X99855977Y-84135436D01*
X99898521Y-84100521D01*
X99933436Y-84057977D01*
X99959380Y-84009439D01*
X99975356Y-83956772D01*
X99980751Y-83902000D01*
X99980751Y-82402000D01*
X99975356Y-82347228D01*
X99959380Y-82294561D01*
X99933436Y-82246023D01*
X99898521Y-82203479D01*
X99855977Y-82168564D01*
X99807439Y-82142620D01*
X99754772Y-82126644D01*
X99700000Y-82121249D01*
X99695000Y-82121249D01*
X99695000Y-81972395D01*
X99764049Y-81903346D01*
X99827457Y-81808449D01*
X99871134Y-81703005D01*
X99893400Y-81591066D01*
X99893400Y-81476934D01*
X99871134Y-81364995D01*
X99827457Y-81259551D01*
X99764049Y-81164654D01*
X99683346Y-81083951D01*
X99588449Y-81020543D01*
X99483005Y-80976866D01*
X99371066Y-80954600D01*
X99256934Y-80954600D01*
X99144995Y-80976866D01*
X99039551Y-81020543D01*
X98944654Y-81083951D01*
X98863951Y-81164654D01*
X98800543Y-81259551D01*
X98756866Y-81364995D01*
X98734600Y-81476934D01*
X98734600Y-81591066D01*
X98756866Y-81703005D01*
X98800543Y-81808449D01*
X98863951Y-81903346D01*
X98933000Y-81972395D01*
X98933000Y-82130353D01*
X98892561Y-82142620D01*
X98844023Y-82168564D01*
X98801479Y-82203479D01*
X98766564Y-82246023D01*
X98740620Y-82294561D01*
X98724644Y-82347228D01*
X98719249Y-82402000D01*
X98719249Y-83327095D01*
X98709380Y-83294561D01*
X98683436Y-83246023D01*
X98648521Y-83203479D01*
X98605977Y-83168564D01*
X98557439Y-83142620D01*
X98504772Y-83126644D01*
X98450000Y-83121249D01*
X97450000Y-83121249D01*
X97395228Y-83126644D01*
X97342561Y-83142620D01*
X97294023Y-83168564D01*
X97251479Y-83203479D01*
X97216564Y-83246023D01*
X97190620Y-83294561D01*
X97174644Y-83347228D01*
X97169249Y-83402000D01*
X91711346Y-83402000D01*
X91729400Y-83311236D01*
X91729400Y-83088764D01*
X91685998Y-82870566D01*
X91600862Y-82665028D01*
X91477263Y-82480049D01*
X91319951Y-82322737D01*
X91136262Y-82200000D01*
X91319951Y-82077263D01*
X91477263Y-81919951D01*
X91600862Y-81734972D01*
X91685998Y-81529434D01*
X91729400Y-81311236D01*
X91729400Y-81088764D01*
X91685998Y-80870566D01*
X91600862Y-80665028D01*
X91477263Y-80480049D01*
X91319951Y-80322737D01*
X91136262Y-80200000D01*
X91319951Y-80077263D01*
X91477263Y-79919951D01*
X91600862Y-79734972D01*
X91685998Y-79529434D01*
X91729400Y-79311236D01*
X91729400Y-79088764D01*
X91699200Y-78936934D01*
X98226600Y-78936934D01*
X98226600Y-79051066D01*
X98248866Y-79163005D01*
X98292543Y-79268449D01*
X98355951Y-79363346D01*
X98436654Y-79444049D01*
X98531551Y-79507457D01*
X98636995Y-79551134D01*
X98748934Y-79573400D01*
X98846586Y-79573400D01*
X100469001Y-81195817D01*
X100469000Y-82124302D01*
X100445228Y-82126644D01*
X100392561Y-82142620D01*
X100344023Y-82168564D01*
X100301479Y-82203479D01*
X100266564Y-82246023D01*
X100240620Y-82294561D01*
X100224644Y-82347228D01*
X100219249Y-82402000D01*
X100219249Y-83902000D01*
X100224644Y-83956772D01*
X100240620Y-84009439D01*
X100266564Y-84057977D01*
X100301479Y-84100521D01*
X100344023Y-84135436D01*
X100392561Y-84161380D01*
X100445228Y-84177356D01*
X100500000Y-84182751D01*
X101200000Y-84182751D01*
X101254772Y-84177356D01*
X101307439Y-84161380D01*
X101355977Y-84135436D01*
X101398521Y-84100521D01*
X101433436Y-84057977D01*
X101459380Y-84009439D01*
X101475356Y-83956772D01*
X101480751Y-83902000D01*
X103219248Y-83902000D01*
X103224643Y-83956772D01*
X103240619Y-84009439D01*
X103266563Y-84057977D01*
X103301478Y-84100522D01*
X103344023Y-84135437D01*
X103392561Y-84161381D01*
X103445228Y-84177357D01*
X103500000Y-84182752D01*
X103754750Y-84181400D01*
X103824600Y-84111550D01*
X103824600Y-83177400D01*
X103875400Y-83177400D01*
X103875400Y-84111550D01*
X103945250Y-84181400D01*
X104200000Y-84182752D01*
X104254772Y-84177357D01*
X104307439Y-84161381D01*
X104355977Y-84135437D01*
X104398522Y-84100522D01*
X104433437Y-84057977D01*
X104459381Y-84009439D01*
X104469249Y-83976908D01*
X104469249Y-84202000D01*
X104474644Y-84256772D01*
X104490620Y-84309439D01*
X104516564Y-84357977D01*
X104551479Y-84400521D01*
X104594023Y-84435436D01*
X104642561Y-84461380D01*
X104695228Y-84477356D01*
X104750000Y-84482751D01*
X105750000Y-84482751D01*
X105804772Y-84477356D01*
X105857439Y-84461380D01*
X105905977Y-84435436D01*
X105948521Y-84400521D01*
X105983436Y-84357977D01*
X106009380Y-84309439D01*
X106025356Y-84256772D01*
X106030751Y-84202000D01*
X106030751Y-83402000D01*
X106025356Y-83347228D01*
X106009380Y-83294561D01*
X105983436Y-83246023D01*
X105948521Y-83203479D01*
X105905977Y-83168564D01*
X105857439Y-83142620D01*
X105804772Y-83126644D01*
X105750000Y-83121249D01*
X104750000Y-83121249D01*
X104695228Y-83126644D01*
X104642561Y-83142620D01*
X104594023Y-83168564D01*
X104551479Y-83203479D01*
X104516564Y-83246023D01*
X104490620Y-83294561D01*
X104479573Y-83330979D01*
X104479400Y-83247250D01*
X104409550Y-83177400D01*
X103875400Y-83177400D01*
X103824600Y-83177400D01*
X103290450Y-83177400D01*
X103220600Y-83247250D01*
X103219248Y-83902000D01*
X101480751Y-83902000D01*
X101480751Y-82402000D01*
X103219248Y-82402000D01*
X103220600Y-83056750D01*
X103290450Y-83126600D01*
X103824600Y-83126600D01*
X103824600Y-82192450D01*
X103875400Y-82192450D01*
X103875400Y-83126600D01*
X104409550Y-83126600D01*
X104479400Y-83056750D01*
X104480752Y-82402000D01*
X104475357Y-82347228D01*
X104459381Y-82294561D01*
X104433437Y-82246023D01*
X104398522Y-82203478D01*
X104355977Y-82168563D01*
X104307439Y-82142619D01*
X104254772Y-82126643D01*
X104200000Y-82121248D01*
X103945250Y-82122600D01*
X103875400Y-82192450D01*
X103824600Y-82192450D01*
X103754750Y-82122600D01*
X103500000Y-82121248D01*
X103445228Y-82126643D01*
X103392561Y-82142619D01*
X103344023Y-82168563D01*
X103301478Y-82203478D01*
X103266563Y-82246023D01*
X103240619Y-82294561D01*
X103224643Y-82347228D01*
X103219248Y-82402000D01*
X101480751Y-82402000D01*
X101475356Y-82347228D01*
X101459380Y-82294561D01*
X101433436Y-82246023D01*
X101398521Y-82203479D01*
X101355977Y-82168564D01*
X101307439Y-82142620D01*
X101254772Y-82126644D01*
X101231000Y-82124302D01*
X101231000Y-81056710D01*
X101232843Y-81038000D01*
X101231000Y-81019287D01*
X101225487Y-80963311D01*
X101203701Y-80891492D01*
X101168322Y-80825304D01*
X101132640Y-80781824D01*
X101132637Y-80781821D01*
X101120711Y-80767289D01*
X101106179Y-80755363D01*
X99385400Y-79034586D01*
X99385400Y-78936934D01*
X99363134Y-78824995D01*
X99319457Y-78719551D01*
X99256049Y-78624654D01*
X99175346Y-78543951D01*
X99080449Y-78480543D01*
X98975005Y-78436866D01*
X98863066Y-78414600D01*
X98748934Y-78414600D01*
X98636995Y-78436866D01*
X98531551Y-78480543D01*
X98436654Y-78543951D01*
X98355951Y-78624654D01*
X98292543Y-78719551D01*
X98248866Y-78824995D01*
X98226600Y-78936934D01*
X91699200Y-78936934D01*
X91685998Y-78870566D01*
X91600862Y-78665028D01*
X91477263Y-78480049D01*
X91319951Y-78322737D01*
X91136262Y-78200000D01*
X91319951Y-78077263D01*
X91477263Y-77919951D01*
X91600862Y-77734972D01*
X91622329Y-77683145D01*
X91665363Y-77726178D01*
X91677289Y-77740711D01*
X91691821Y-77752637D01*
X91691824Y-77752640D01*
X91735303Y-77788322D01*
X91786009Y-77815425D01*
X91801492Y-77823701D01*
X91873311Y-77845487D01*
X91929287Y-77851000D01*
X91929290Y-77851000D01*
X91948000Y-77852843D01*
X91966710Y-77851000D01*
X92054465Y-77851000D01*
X92068173Y-77919914D01*
X92084148Y-77972580D01*
X92121657Y-78063136D01*
X92147602Y-78111676D01*
X92202058Y-78193175D01*
X92236973Y-78235719D01*
X92306281Y-78305027D01*
X92348825Y-78339942D01*
X92430324Y-78394398D01*
X92478864Y-78420343D01*
X92569420Y-78457852D01*
X92622086Y-78473827D01*
X92718219Y-78492949D01*
X92772991Y-78498344D01*
X92797553Y-78498344D01*
X92822000Y-78500752D01*
X93322000Y-78500752D01*
X93376772Y-78495357D01*
X93429439Y-78479381D01*
X93472000Y-78456632D01*
X93514561Y-78479381D01*
X93567228Y-78495357D01*
X93622000Y-78500752D01*
X94122000Y-78500752D01*
X94146447Y-78498344D01*
X94171009Y-78498344D01*
X94225781Y-78492949D01*
X94321914Y-78473827D01*
X94374580Y-78457852D01*
X94465136Y-78420343D01*
X94513676Y-78394398D01*
X94595175Y-78339942D01*
X94637719Y-78305027D01*
X94707027Y-78235719D01*
X94741942Y-78193175D01*
X94796398Y-78111676D01*
X94822343Y-78063136D01*
X94859852Y-77972580D01*
X94875827Y-77919914D01*
X94889535Y-77851000D01*
X99891605Y-77851000D01*
X99960654Y-77920049D01*
X100055551Y-77983457D01*
X100160995Y-78027134D01*
X100272934Y-78049400D01*
X100387066Y-78049400D01*
X100499005Y-78027134D01*
X100604449Y-77983457D01*
X100699346Y-77920049D01*
X100780049Y-77839346D01*
X100843457Y-77744449D01*
X100887134Y-77639005D01*
X100891586Y-77616625D01*
X102005946Y-78730985D01*
X102017876Y-78745522D01*
X102032411Y-78757450D01*
X102075890Y-78793133D01*
X102135499Y-78824995D01*
X102142079Y-78828512D01*
X102213898Y-78850298D01*
X102269874Y-78855811D01*
X102269877Y-78855811D01*
X102288587Y-78857654D01*
X102307297Y-78855811D01*
X103686704Y-78855811D01*
X103705414Y-78857654D01*
X103724124Y-78855811D01*
X103724127Y-78855811D01*
X103780103Y-78850298D01*
X103851922Y-78828512D01*
X103918110Y-78793133D01*
X103976125Y-78745522D01*
X103988060Y-78730979D01*
X105122039Y-77597000D01*
X105645290Y-77597000D01*
X105664000Y-77598843D01*
X105682710Y-77597000D01*
X105682713Y-77597000D01*
X105738689Y-77591487D01*
X105810508Y-77569701D01*
X105876696Y-77534322D01*
X105914376Y-77503399D01*
X106302954Y-77503399D01*
X106365329Y-77565774D01*
X106377260Y-77580312D01*
X106435275Y-77627923D01*
X106501463Y-77663302D01*
X106573282Y-77685088D01*
X106629258Y-77690601D01*
X106629261Y-77690601D01*
X106647971Y-77692444D01*
X106666681Y-77690601D01*
X107547061Y-77690601D01*
X107565771Y-77692444D01*
X107584481Y-77690601D01*
X107584484Y-77690601D01*
X107613170Y-77687776D01*
X107675551Y-77729457D01*
X107780995Y-77773134D01*
X107892934Y-77795400D01*
X108007066Y-77795400D01*
X108119005Y-77773134D01*
X108224449Y-77729457D01*
X108319346Y-77666049D01*
X108400049Y-77585346D01*
X108463457Y-77490449D01*
X108507134Y-77385005D01*
X108529400Y-77273066D01*
X108529400Y-77158934D01*
X108507134Y-77046995D01*
X108463457Y-76941551D01*
X108400049Y-76846654D01*
X108319346Y-76765951D01*
X108284272Y-76742515D01*
X108268322Y-76712676D01*
X108220711Y-76654661D01*
X108162696Y-76607050D01*
X108096508Y-76571671D01*
X108024689Y-76549885D01*
X107950000Y-76542529D01*
X107875312Y-76549885D01*
X107838522Y-76561045D01*
X107834136Y-76538995D01*
X107790459Y-76433551D01*
X107727051Y-76338654D01*
X107646348Y-76257951D01*
X107551451Y-76194543D01*
X107446007Y-76150866D01*
X107334068Y-76128600D01*
X107222456Y-76128600D01*
X107169510Y-76100299D01*
X107097691Y-76078513D01*
X107041715Y-76073000D01*
X107041712Y-76073000D01*
X107023002Y-76071157D01*
X107004292Y-76073000D01*
X105174702Y-76073000D01*
X105155999Y-76071158D01*
X105137296Y-76073000D01*
X105137287Y-76073000D01*
X105081311Y-76078513D01*
X105009492Y-76100299D01*
X104966359Y-76123355D01*
X104943303Y-76135678D01*
X104934462Y-76142934D01*
X104885289Y-76183289D01*
X104873359Y-76197826D01*
X103695909Y-77375276D01*
X103681134Y-77300995D01*
X103637457Y-77195551D01*
X103574049Y-77100654D01*
X103493346Y-77019951D01*
X103398449Y-76956543D01*
X103293005Y-76912866D01*
X103181066Y-76890600D01*
X103083415Y-76890600D01*
X101981000Y-75788186D01*
X101981000Y-74803000D01*
X107169290Y-74803000D01*
X107188000Y-74804843D01*
X107206710Y-74803000D01*
X107206713Y-74803000D01*
X107262689Y-74797487D01*
X107334508Y-74775701D01*
X107400696Y-74740322D01*
X107458711Y-74692711D01*
X107470646Y-74678168D01*
X107920285Y-74228530D01*
X107974932Y-74239400D01*
X108089064Y-74239400D01*
X108201003Y-74217134D01*
X108306447Y-74173457D01*
X108401344Y-74110049D01*
X108482047Y-74029346D01*
X108545455Y-73934449D01*
X108589132Y-73829005D01*
X108611398Y-73717066D01*
X108611398Y-73619414D01*
X110531413Y-71699400D01*
X110547066Y-71699400D01*
X110659005Y-71677134D01*
X110764449Y-71633457D01*
X110859346Y-71570049D01*
X110940049Y-71489346D01*
X111003457Y-71394449D01*
X111047134Y-71289005D01*
X111069400Y-71177066D01*
X111069400Y-71062934D01*
X111047134Y-70950995D01*
X111003457Y-70845551D01*
X110940049Y-70750654D01*
X110859346Y-70669951D01*
X110764449Y-70606543D01*
X110659005Y-70562866D01*
X110547066Y-70540600D01*
X110432934Y-70540600D01*
X110320995Y-70562866D01*
X110215551Y-70606543D01*
X110120654Y-70669951D01*
X110039951Y-70750654D01*
X109976543Y-70845551D01*
X109932866Y-70950995D01*
X109910600Y-71062934D01*
X109910600Y-71177066D01*
X109921470Y-71231713D01*
X108072584Y-73080600D01*
X107974932Y-73080600D01*
X107862993Y-73102866D01*
X107823000Y-73119432D01*
X107823000Y-72413995D01*
X107892049Y-72344946D01*
X107955457Y-72250049D01*
X107999134Y-72144605D01*
X108021400Y-72032666D01*
X108021400Y-71918534D01*
X107999134Y-71806595D01*
X107955457Y-71701151D01*
X107892049Y-71606254D01*
X107811346Y-71525551D01*
X107716449Y-71462143D01*
X107611005Y-71418466D01*
X107499066Y-71396200D01*
X107384934Y-71396200D01*
X107272995Y-71418466D01*
X107167551Y-71462143D01*
X107072654Y-71525551D01*
X106991951Y-71606254D01*
X106928543Y-71701151D01*
X106884866Y-71806595D01*
X106862600Y-71918534D01*
X106862600Y-72032666D01*
X106884866Y-72144605D01*
X106928543Y-72250049D01*
X106991951Y-72344946D01*
X107061000Y-72413995D01*
X107061001Y-73248184D01*
X106776186Y-73533000D01*
X102582601Y-73533000D01*
X102582601Y-72627933D01*
X102584443Y-72609230D01*
X102582601Y-72590527D01*
X102582601Y-72590518D01*
X102577088Y-72534542D01*
X102555302Y-72462723D01*
X102532246Y-72419590D01*
X102519923Y-72396534D01*
X102484240Y-72353055D01*
X102472312Y-72338520D01*
X102457774Y-72326589D01*
X102171414Y-72040230D01*
X102159480Y-72025688D01*
X102101465Y-71978077D01*
X102035277Y-71942698D01*
X101963458Y-71920912D01*
X101907482Y-71915399D01*
X101907479Y-71915399D01*
X101888769Y-71913556D01*
X101870059Y-71915399D01*
X98070429Y-71915399D01*
X98051726Y-71913557D01*
X98042332Y-71914482D01*
X98257178Y-71699637D01*
X100802568Y-71699637D01*
X100871617Y-71768686D01*
X100966514Y-71832094D01*
X101071958Y-71875771D01*
X101183897Y-71898037D01*
X101298029Y-71898037D01*
X101409968Y-71875771D01*
X101515412Y-71832094D01*
X101610309Y-71768686D01*
X101691012Y-71687983D01*
X101754420Y-71593086D01*
X101798097Y-71487642D01*
X101820363Y-71375703D01*
X101820363Y-71261571D01*
X101798097Y-71149632D01*
X101754420Y-71044188D01*
X101691012Y-70949291D01*
X101610309Y-70868588D01*
X101515412Y-70805180D01*
X101409968Y-70761503D01*
X101298029Y-70739237D01*
X101183897Y-70739237D01*
X101071958Y-70761503D01*
X100966514Y-70805180D01*
X100871617Y-70868588D01*
X100802568Y-70937637D01*
X98118072Y-70937637D01*
X98099362Y-70935794D01*
X98080652Y-70937637D01*
X98080650Y-70937637D01*
X98024674Y-70943150D01*
X97952855Y-70964936D01*
X97886666Y-71000315D01*
X97857335Y-71024387D01*
X97828652Y-71047926D01*
X97816722Y-71062463D01*
X97199229Y-71679957D01*
X97199224Y-71679961D01*
X97068585Y-71810600D01*
X96970934Y-71810600D01*
X96858995Y-71832866D01*
X96753551Y-71876543D01*
X96658654Y-71939951D01*
X96577951Y-72020654D01*
X96514543Y-72115551D01*
X96470866Y-72220995D01*
X96456091Y-72295275D01*
X95321400Y-71160586D01*
X95321400Y-71062934D01*
X95299134Y-70950995D01*
X95255457Y-70845551D01*
X95192049Y-70750654D01*
X95111346Y-70669951D01*
X95016449Y-70606543D01*
X94911005Y-70562866D01*
X94799066Y-70540600D01*
X94684934Y-70540600D01*
X94572995Y-70562866D01*
X94467551Y-70606543D01*
X94372654Y-70669951D01*
X94361000Y-70681605D01*
X94361000Y-70630710D01*
X94362843Y-70612000D01*
X94361000Y-70593287D01*
X94355487Y-70537311D01*
X94333701Y-70465492D01*
X94298322Y-70399304D01*
X94294079Y-70394134D01*
X94262640Y-70355824D01*
X94262637Y-70355821D01*
X94250711Y-70341289D01*
X94236179Y-70329363D01*
X92850646Y-68943832D01*
X92838711Y-68929289D01*
X92780696Y-68881678D01*
X92714508Y-68846299D01*
X92642689Y-68824513D01*
X92586713Y-68819000D01*
X92586710Y-68819000D01*
X92568000Y-68817157D01*
X92549290Y-68819000D01*
X91664639Y-68819000D01*
X91600862Y-68665028D01*
X91477263Y-68480049D01*
X91319951Y-68322737D01*
X91136262Y-68200000D01*
X91213786Y-68148200D01*
X93517386Y-68148200D01*
X95462359Y-70093174D01*
X95474289Y-70107711D01*
X95488824Y-70119639D01*
X95532303Y-70155322D01*
X95598492Y-70190701D01*
X95670311Y-70212487D01*
X95726287Y-70218000D01*
X95726289Y-70218000D01*
X95744999Y-70219843D01*
X95763709Y-70218000D01*
X99904605Y-70218000D01*
X99973654Y-70287049D01*
X100068551Y-70350457D01*
X100173995Y-70394134D01*
X100285934Y-70416400D01*
X100400066Y-70416400D01*
X100512005Y-70394134D01*
X100617449Y-70350457D01*
X100712346Y-70287049D01*
X100793049Y-70206346D01*
X100856457Y-70111449D01*
X100900134Y-70006005D01*
X100922400Y-69894066D01*
X100922400Y-69779934D01*
X100900134Y-69667995D01*
X100856457Y-69562551D01*
X100793049Y-69467654D01*
X100712346Y-69386951D01*
X100617449Y-69323543D01*
X100512005Y-69279866D01*
X100400066Y-69257600D01*
X100285934Y-69257600D01*
X100173995Y-69279866D01*
X100068551Y-69323543D01*
X99973654Y-69386951D01*
X99904605Y-69456000D01*
X95902815Y-69456000D01*
X94595014Y-68148200D01*
X105333800Y-68148200D01*
X105333800Y-70612000D01*
X105335264Y-70626866D01*
X105339600Y-70641160D01*
X105346642Y-70654334D01*
X105356118Y-70665882D01*
X105367666Y-70675358D01*
X105380840Y-70682400D01*
X105395134Y-70686736D01*
X105410000Y-70688200D01*
X105841800Y-70688200D01*
X105841800Y-72390000D01*
X105843264Y-72404866D01*
X105847600Y-72419160D01*
X105854642Y-72432334D01*
X105864118Y-72443882D01*
X105875666Y-72453358D01*
X105888840Y-72460400D01*
X105903134Y-72464736D01*
X105918000Y-72466200D01*
X106426000Y-72466200D01*
X106440866Y-72464736D01*
X106455160Y-72460400D01*
X106468334Y-72453358D01*
X106479882Y-72443882D01*
X106489358Y-72432334D01*
X106496400Y-72419160D01*
X106500736Y-72404866D01*
X106502200Y-72390000D01*
X106502200Y-70688200D01*
X107442000Y-70688200D01*
X107456866Y-70686736D01*
X107471160Y-70682400D01*
X107484334Y-70675358D01*
X107495882Y-70665882D01*
X107505358Y-70654334D01*
X107512400Y-70641160D01*
X107516736Y-70626866D01*
X107518200Y-70612000D01*
X107518200Y-67132200D01*
X111429800Y-67132200D01*
X111429800Y-68072000D01*
%TA.AperFunction,Conductor*%
D19*
G36*
X111429800Y-68072000D02*
G01*
X111431264Y-68086866D01*
X111435600Y-68101160D01*
X111442642Y-68114334D01*
X111452118Y-68125882D01*
X111463666Y-68135358D01*
X111476840Y-68142400D01*
X111491134Y-68146736D01*
X111506000Y-68148200D01*
X111986214Y-68148200D01*
X112063738Y-68200000D01*
X111880049Y-68322737D01*
X111722737Y-68480049D01*
X111599138Y-68665028D01*
X111514002Y-68870566D01*
X111470600Y-69088764D01*
X111470600Y-69311236D01*
X111514002Y-69529434D01*
X111599138Y-69734972D01*
X111722737Y-69919951D01*
X111880049Y-70077263D01*
X112063738Y-70200000D01*
X111880049Y-70322737D01*
X111722737Y-70480049D01*
X111599138Y-70665028D01*
X111514002Y-70870566D01*
X111470600Y-71088764D01*
X111470600Y-71311236D01*
X111514002Y-71529434D01*
X111599138Y-71734972D01*
X111722737Y-71919951D01*
X111880049Y-72077263D01*
X112063738Y-72200000D01*
X111880049Y-72322737D01*
X111722737Y-72480049D01*
X111599138Y-72665028D01*
X111514002Y-72870566D01*
X111470600Y-73088764D01*
X111470600Y-73311236D01*
X111514002Y-73529434D01*
X111599138Y-73734972D01*
X111722737Y-73919951D01*
X111880049Y-74077263D01*
X112063738Y-74200000D01*
X111880049Y-74322737D01*
X111722737Y-74480049D01*
X111599138Y-74665028D01*
X111514002Y-74870566D01*
X111470600Y-75088764D01*
X111470600Y-75311236D01*
X111514002Y-75529434D01*
X111599138Y-75734972D01*
X111722737Y-75919951D01*
X111880049Y-76077263D01*
X112063738Y-76200000D01*
X111880049Y-76322737D01*
X111722737Y-76480049D01*
X111599138Y-76665028D01*
X111514002Y-76870566D01*
X111470600Y-77088764D01*
X111470600Y-77311236D01*
X111514002Y-77529434D01*
X111599138Y-77734972D01*
X111722737Y-77919951D01*
X111880049Y-78077263D01*
X112063738Y-78200000D01*
X111880049Y-78322737D01*
X111722737Y-78480049D01*
X111599138Y-78665028D01*
X111514002Y-78870566D01*
X111470600Y-79088764D01*
X111470600Y-79311236D01*
X111514002Y-79529434D01*
X111599138Y-79734972D01*
X111722737Y-79919951D01*
X111880049Y-80077263D01*
X112063738Y-80200000D01*
X111880049Y-80322737D01*
X111722737Y-80480049D01*
X111599138Y-80665028D01*
X111514002Y-80870566D01*
X111470600Y-81088764D01*
X111470600Y-81311236D01*
X111514002Y-81529434D01*
X111599138Y-81734972D01*
X111722737Y-81919951D01*
X111880049Y-82077263D01*
X112063738Y-82200000D01*
X111880049Y-82322737D01*
X111722737Y-82480049D01*
X111599138Y-82665028D01*
X111514002Y-82870566D01*
X111470600Y-83088764D01*
X111470600Y-83311236D01*
X111514002Y-83529434D01*
X111599138Y-83734972D01*
X111722737Y-83919951D01*
X111880049Y-84077263D01*
X112063738Y-84200000D01*
X111880049Y-84322737D01*
X111722737Y-84480049D01*
X111599138Y-84665028D01*
X111514002Y-84870566D01*
X111470600Y-85088764D01*
X111470600Y-85311236D01*
X111514002Y-85529434D01*
X111599138Y-85734972D01*
X111722737Y-85919951D01*
X111880049Y-86077263D01*
X112065028Y-86200862D01*
X112270566Y-86285998D01*
X112488764Y-86329400D01*
X112711236Y-86329400D01*
X112929434Y-86285998D01*
X113134972Y-86200862D01*
X113319951Y-86077263D01*
X113477263Y-85919951D01*
X113600862Y-85734972D01*
X113685998Y-85529434D01*
X113729400Y-85311236D01*
X113729400Y-85088764D01*
X113685998Y-84870566D01*
X113600862Y-84665028D01*
X113477263Y-84480049D01*
X113319951Y-84322737D01*
X113136262Y-84200000D01*
X113319951Y-84077263D01*
X113477263Y-83919951D01*
X113600862Y-83734972D01*
X113685998Y-83529434D01*
X113729400Y-83311236D01*
X113729400Y-83088764D01*
X113685998Y-82870566D01*
X113600862Y-82665028D01*
X113477263Y-82480049D01*
X113319951Y-82322737D01*
X113136262Y-82200000D01*
X113319951Y-82077263D01*
X113477263Y-81919951D01*
X113600862Y-81734972D01*
X113685998Y-81529434D01*
X113729400Y-81311236D01*
X113729400Y-81088764D01*
X113685998Y-80870566D01*
X113600862Y-80665028D01*
X113477263Y-80480049D01*
X113319951Y-80322737D01*
X113136262Y-80200000D01*
X113319951Y-80077263D01*
X113477263Y-79919951D01*
X113600862Y-79734972D01*
X113685998Y-79529434D01*
X113729400Y-79311236D01*
X113729400Y-79088764D01*
X113685998Y-78870566D01*
X113600862Y-78665028D01*
X113477263Y-78480049D01*
X113319951Y-78322737D01*
X113136262Y-78200000D01*
X113319951Y-78077263D01*
X113477263Y-77919951D01*
X113600862Y-77734972D01*
X113685998Y-77529434D01*
X113729400Y-77311236D01*
X113729400Y-77088764D01*
X113685998Y-76870566D01*
X113600862Y-76665028D01*
X113477263Y-76480049D01*
X113319951Y-76322737D01*
X113136262Y-76200000D01*
X113319951Y-76077263D01*
X113477263Y-75919951D01*
X113600862Y-75734972D01*
X113685998Y-75529434D01*
X113729400Y-75311236D01*
X113729400Y-75088764D01*
X113685998Y-74870566D01*
X113600862Y-74665028D01*
X113477263Y-74480049D01*
X113319951Y-74322737D01*
X113136262Y-74200000D01*
X113319951Y-74077263D01*
X113477263Y-73919951D01*
X113600862Y-73734972D01*
X113685998Y-73529434D01*
X113729400Y-73311236D01*
X113729400Y-73088764D01*
X113685998Y-72870566D01*
X113600862Y-72665028D01*
X113477263Y-72480049D01*
X113319951Y-72322737D01*
X113136262Y-72200000D01*
X113319951Y-72077263D01*
X113477263Y-71919951D01*
X113600862Y-71734972D01*
X113685998Y-71529434D01*
X113729400Y-71311236D01*
X113729400Y-71088764D01*
X113685998Y-70870566D01*
X113600862Y-70665028D01*
X113477263Y-70480049D01*
X113319951Y-70322737D01*
X113136262Y-70200000D01*
X113319951Y-70077263D01*
X113477263Y-69919951D01*
X113600862Y-69734972D01*
X113685998Y-69529434D01*
X113729400Y-69311236D01*
X113729400Y-69088764D01*
X113685998Y-68870566D01*
X113600862Y-68665028D01*
X113477263Y-68480049D01*
X113319951Y-68322737D01*
X113136262Y-68200000D01*
X113213786Y-68148200D01*
X113741601Y-68148200D01*
X113741600Y-86817600D01*
X89458400Y-86817600D01*
X89458400Y-85970826D01*
X89865095Y-85970826D01*
X89953659Y-86132825D01*
X90148063Y-86240996D01*
X90359835Y-86309162D01*
X90580837Y-86334703D01*
X90802575Y-86316639D01*
X91016528Y-86255663D01*
X91214474Y-86154118D01*
X91246341Y-86132825D01*
X91334905Y-85970826D01*
X90600000Y-85235921D01*
X89865095Y-85970826D01*
X89458400Y-85970826D01*
X89458400Y-85180837D01*
X89465297Y-85180837D01*
X89483361Y-85402575D01*
X89544337Y-85616528D01*
X89645882Y-85814474D01*
X89667175Y-85846341D01*
X89829174Y-85934905D01*
X90564079Y-85200000D01*
X90635921Y-85200000D01*
X91370826Y-85934905D01*
X91532825Y-85846341D01*
X91640996Y-85651937D01*
X91653851Y-85612000D01*
X97169249Y-85612000D01*
X97169249Y-86412000D01*
X97174644Y-86466772D01*
X97190620Y-86519439D01*
X97216564Y-86567977D01*
X97251479Y-86610521D01*
X97294023Y-86645436D01*
X97342561Y-86671380D01*
X97395228Y-86687356D01*
X97450000Y-86692751D01*
X98450000Y-86692751D01*
X98504772Y-86687356D01*
X98557439Y-86671380D01*
X98605977Y-86645436D01*
X98648521Y-86610521D01*
X98683436Y-86567977D01*
X98709380Y-86519439D01*
X98725356Y-86466772D01*
X98730751Y-86412000D01*
X98730751Y-85612000D01*
X98725356Y-85557228D01*
X98709380Y-85504561D01*
X98683436Y-85456023D01*
X98648521Y-85413479D01*
X98605977Y-85378564D01*
X98557439Y-85352620D01*
X98504772Y-85336644D01*
X98450000Y-85331249D01*
X97450000Y-85331249D01*
X97395228Y-85336644D01*
X97342561Y-85352620D01*
X97294023Y-85378564D01*
X97251479Y-85413479D01*
X97216564Y-85456023D01*
X97190620Y-85504561D01*
X97174644Y-85557228D01*
X97169249Y-85612000D01*
X91653851Y-85612000D01*
X91709162Y-85440165D01*
X91734703Y-85219163D01*
X91716639Y-84997425D01*
X91671819Y-84840160D01*
X99370600Y-84840160D01*
X99370600Y-84983840D01*
X99398631Y-85124758D01*
X99453614Y-85257500D01*
X99533438Y-85376965D01*
X99635035Y-85478562D01*
X99754500Y-85558386D01*
X99887242Y-85613369D01*
X100028160Y-85641400D01*
X100171840Y-85641400D01*
X100312758Y-85613369D01*
X100445500Y-85558386D01*
X100512302Y-85513750D01*
X100744600Y-85513750D01*
X100744600Y-85682250D01*
X100777472Y-85847511D01*
X100841954Y-86003184D01*
X100935567Y-86143286D01*
X101054714Y-86262433D01*
X101194816Y-86356046D01*
X101350489Y-86420528D01*
X101515750Y-86453400D01*
X101684250Y-86453400D01*
X101849511Y-86420528D01*
X102005184Y-86356046D01*
X102145286Y-86262433D01*
X102264433Y-86143286D01*
X102358046Y-86003184D01*
X102422528Y-85847511D01*
X102455400Y-85682250D01*
X102455400Y-85513750D01*
X102422528Y-85348489D01*
X102358046Y-85192816D01*
X102264433Y-85052714D01*
X102145286Y-84933567D01*
X102005493Y-84840160D01*
X102370600Y-84840160D01*
X102370600Y-84983840D01*
X102398631Y-85124758D01*
X102453614Y-85257500D01*
X102533438Y-85376965D01*
X102635035Y-85478562D01*
X102754500Y-85558386D01*
X102887242Y-85613369D01*
X103028160Y-85641400D01*
X103171840Y-85641400D01*
X103312758Y-85613369D01*
X103316063Y-85612000D01*
X104469249Y-85612000D01*
X104469249Y-86412000D01*
X104474644Y-86466772D01*
X104490620Y-86519439D01*
X104516564Y-86567977D01*
X104551479Y-86610521D01*
X104594023Y-86645436D01*
X104642561Y-86671380D01*
X104695228Y-86687356D01*
X104750000Y-86692751D01*
X105750000Y-86692751D01*
X105804772Y-86687356D01*
X105857439Y-86671380D01*
X105905977Y-86645436D01*
X105948521Y-86610521D01*
X105983436Y-86567977D01*
X106009380Y-86519439D01*
X106025356Y-86466772D01*
X106030751Y-86412000D01*
X106030751Y-85612000D01*
X106025356Y-85557228D01*
X106009380Y-85504561D01*
X105983436Y-85456023D01*
X105948521Y-85413479D01*
X105905977Y-85378564D01*
X105857439Y-85352620D01*
X105804772Y-85336644D01*
X105750000Y-85331249D01*
X104750000Y-85331249D01*
X104695228Y-85336644D01*
X104642561Y-85352620D01*
X104594023Y-85378564D01*
X104551479Y-85413479D01*
X104516564Y-85456023D01*
X104490620Y-85504561D01*
X104474644Y-85557228D01*
X104469249Y-85612000D01*
X103316063Y-85612000D01*
X103445500Y-85558386D01*
X103564965Y-85478562D01*
X103666562Y-85376965D01*
X103746386Y-85257500D01*
X103801369Y-85124758D01*
X103829400Y-84983840D01*
X103829400Y-84840160D01*
X103801369Y-84699242D01*
X103746386Y-84566500D01*
X103666562Y-84447035D01*
X103564965Y-84345438D01*
X103445500Y-84265614D01*
X103312758Y-84210631D01*
X103171840Y-84182600D01*
X103028160Y-84182600D01*
X102887242Y-84210631D01*
X102754500Y-84265614D01*
X102635035Y-84345438D01*
X102533438Y-84447035D01*
X102453614Y-84566500D01*
X102398631Y-84699242D01*
X102370600Y-84840160D01*
X102005493Y-84840160D01*
X102005184Y-84839954D01*
X101849511Y-84775472D01*
X101684250Y-84742600D01*
X101515750Y-84742600D01*
X101350489Y-84775472D01*
X101194816Y-84839954D01*
X101054714Y-84933567D01*
X100935567Y-85052714D01*
X100841954Y-85192816D01*
X100777472Y-85348489D01*
X100744600Y-85513750D01*
X100512302Y-85513750D01*
X100564965Y-85478562D01*
X100666562Y-85376965D01*
X100746386Y-85257500D01*
X100801369Y-85124758D01*
X100829400Y-84983840D01*
X100829400Y-84840160D01*
X100801369Y-84699242D01*
X100746386Y-84566500D01*
X100666562Y-84447035D01*
X100564965Y-84345438D01*
X100445500Y-84265614D01*
X100312758Y-84210631D01*
X100171840Y-84182600D01*
X100028160Y-84182600D01*
X99887242Y-84210631D01*
X99754500Y-84265614D01*
X99635035Y-84345438D01*
X99533438Y-84447035D01*
X99453614Y-84566500D01*
X99398631Y-84699242D01*
X99370600Y-84840160D01*
X91671819Y-84840160D01*
X91655663Y-84783472D01*
X91554118Y-84585526D01*
X91532825Y-84553659D01*
X91370826Y-84465095D01*
X90635921Y-85200000D01*
X90564079Y-85200000D01*
X89829174Y-84465095D01*
X89667175Y-84553659D01*
X89559004Y-84748063D01*
X89490838Y-84959835D01*
X89465297Y-85180837D01*
X89458400Y-85180837D01*
X89458400Y-68148200D01*
X89986214Y-68148200D01*
X90063738Y-68200000D01*
X89880049Y-68322737D01*
X89722737Y-68480049D01*
X89599138Y-68665028D01*
X89514002Y-68870566D01*
X89470600Y-69088764D01*
X89470600Y-69311236D01*
X89514002Y-69529434D01*
X89599138Y-69734972D01*
X89722737Y-69919951D01*
X89880049Y-70077263D01*
X90063738Y-70200000D01*
X89880049Y-70322737D01*
X89722737Y-70480049D01*
X89599138Y-70665028D01*
X89514002Y-70870566D01*
X89470600Y-71088764D01*
X89470600Y-71311236D01*
X89514002Y-71529434D01*
X89599138Y-71734972D01*
X89722737Y-71919951D01*
X89880049Y-72077263D01*
X90063738Y-72200000D01*
X89880049Y-72322737D01*
X89722737Y-72480049D01*
X89599138Y-72665028D01*
X89514002Y-72870566D01*
X89470600Y-73088764D01*
X89470600Y-73311236D01*
X89514002Y-73529434D01*
X89599138Y-73734972D01*
X89722737Y-73919951D01*
X89880049Y-74077263D01*
X90063738Y-74200000D01*
X89880049Y-74322737D01*
X89722737Y-74480049D01*
X89599138Y-74665028D01*
X89514002Y-74870566D01*
X89470600Y-75088764D01*
X89470600Y-75311236D01*
X89514002Y-75529434D01*
X89599138Y-75734972D01*
X89722737Y-75919951D01*
X89880049Y-76077263D01*
X90063738Y-76200000D01*
X89880049Y-76322737D01*
X89722737Y-76480049D01*
X89599138Y-76665028D01*
X89514002Y-76870566D01*
X89470600Y-77088764D01*
X89470600Y-77311236D01*
X89514002Y-77529434D01*
X89599138Y-77734972D01*
X89722737Y-77919951D01*
X89880049Y-78077263D01*
X90063738Y-78200000D01*
X89880049Y-78322737D01*
X89722737Y-78480049D01*
X89599138Y-78665028D01*
X89514002Y-78870566D01*
X89470600Y-79088764D01*
X89470600Y-79311236D01*
X89514002Y-79529434D01*
X89599138Y-79734972D01*
X89722737Y-79919951D01*
X89880049Y-80077263D01*
X90063738Y-80200000D01*
X89880049Y-80322737D01*
X89722737Y-80480049D01*
X89599138Y-80665028D01*
X89514002Y-80870566D01*
X89470600Y-81088764D01*
X89470600Y-81311236D01*
X89514002Y-81529434D01*
X89599138Y-81734972D01*
X89722737Y-81919951D01*
X89880049Y-82077263D01*
X90063738Y-82200000D01*
X89880049Y-82322737D01*
X89722737Y-82480049D01*
X89599138Y-82665028D01*
X89514002Y-82870566D01*
X89470600Y-83088764D01*
X89470600Y-83311236D01*
X89514002Y-83529434D01*
X89599138Y-83734972D01*
X89722737Y-83919951D01*
X89880049Y-84077263D01*
X90065028Y-84200862D01*
X90069597Y-84202754D01*
X89985526Y-84245882D01*
X89953659Y-84267175D01*
X89865095Y-84429174D01*
X90600000Y-85164079D01*
X91334905Y-84429174D01*
X91246341Y-84267175D01*
X91130496Y-84202716D01*
X91134972Y-84200862D01*
X91319951Y-84077263D01*
X91477263Y-83919951D01*
X91600862Y-83734972D01*
X91685998Y-83529434D01*
X91711346Y-83402000D01*
X97169249Y-83402000D01*
X97169249Y-84202000D01*
X97174644Y-84256772D01*
X97190620Y-84309439D01*
X97216564Y-84357977D01*
X97251479Y-84400521D01*
X97294023Y-84435436D01*
X97342561Y-84461380D01*
X97395228Y-84477356D01*
X97450000Y-84482751D01*
X98450000Y-84482751D01*
X98504772Y-84477356D01*
X98557439Y-84461380D01*
X98605977Y-84435436D01*
X98648521Y-84400521D01*
X98683436Y-84357977D01*
X98709380Y-84309439D01*
X98725356Y-84256772D01*
X98730751Y-84202000D01*
X98730751Y-83976905D01*
X98740620Y-84009439D01*
X98766564Y-84057977D01*
X98801479Y-84100521D01*
X98844023Y-84135436D01*
X98892561Y-84161380D01*
X98945228Y-84177356D01*
X99000000Y-84182751D01*
X99700000Y-84182751D01*
X99754772Y-84177356D01*
X99807439Y-84161380D01*
X99855977Y-84135436D01*
X99898521Y-84100521D01*
X99933436Y-84057977D01*
X99959380Y-84009439D01*
X99975356Y-83956772D01*
X99980751Y-83902000D01*
X99980751Y-82402000D01*
X99975356Y-82347228D01*
X99959380Y-82294561D01*
X99933436Y-82246023D01*
X99898521Y-82203479D01*
X99855977Y-82168564D01*
X99807439Y-82142620D01*
X99754772Y-82126644D01*
X99700000Y-82121249D01*
X99695000Y-82121249D01*
X99695000Y-81972395D01*
X99764049Y-81903346D01*
X99827457Y-81808449D01*
X99871134Y-81703005D01*
X99893400Y-81591066D01*
X99893400Y-81476934D01*
X99871134Y-81364995D01*
X99827457Y-81259551D01*
X99764049Y-81164654D01*
X99683346Y-81083951D01*
X99588449Y-81020543D01*
X99483005Y-80976866D01*
X99371066Y-80954600D01*
X99256934Y-80954600D01*
X99144995Y-80976866D01*
X99039551Y-81020543D01*
X98944654Y-81083951D01*
X98863951Y-81164654D01*
X98800543Y-81259551D01*
X98756866Y-81364995D01*
X98734600Y-81476934D01*
X98734600Y-81591066D01*
X98756866Y-81703005D01*
X98800543Y-81808449D01*
X98863951Y-81903346D01*
X98933000Y-81972395D01*
X98933000Y-82130353D01*
X98892561Y-82142620D01*
X98844023Y-82168564D01*
X98801479Y-82203479D01*
X98766564Y-82246023D01*
X98740620Y-82294561D01*
X98724644Y-82347228D01*
X98719249Y-82402000D01*
X98719249Y-83327095D01*
X98709380Y-83294561D01*
X98683436Y-83246023D01*
X98648521Y-83203479D01*
X98605977Y-83168564D01*
X98557439Y-83142620D01*
X98504772Y-83126644D01*
X98450000Y-83121249D01*
X97450000Y-83121249D01*
X97395228Y-83126644D01*
X97342561Y-83142620D01*
X97294023Y-83168564D01*
X97251479Y-83203479D01*
X97216564Y-83246023D01*
X97190620Y-83294561D01*
X97174644Y-83347228D01*
X97169249Y-83402000D01*
X91711346Y-83402000D01*
X91729400Y-83311236D01*
X91729400Y-83088764D01*
X91685998Y-82870566D01*
X91600862Y-82665028D01*
X91477263Y-82480049D01*
X91319951Y-82322737D01*
X91136262Y-82200000D01*
X91319951Y-82077263D01*
X91477263Y-81919951D01*
X91600862Y-81734972D01*
X91685998Y-81529434D01*
X91729400Y-81311236D01*
X91729400Y-81088764D01*
X91685998Y-80870566D01*
X91600862Y-80665028D01*
X91477263Y-80480049D01*
X91319951Y-80322737D01*
X91136262Y-80200000D01*
X91319951Y-80077263D01*
X91477263Y-79919951D01*
X91600862Y-79734972D01*
X91685998Y-79529434D01*
X91729400Y-79311236D01*
X91729400Y-79088764D01*
X91699200Y-78936934D01*
X98226600Y-78936934D01*
X98226600Y-79051066D01*
X98248866Y-79163005D01*
X98292543Y-79268449D01*
X98355951Y-79363346D01*
X98436654Y-79444049D01*
X98531551Y-79507457D01*
X98636995Y-79551134D01*
X98748934Y-79573400D01*
X98846586Y-79573400D01*
X100469001Y-81195817D01*
X100469000Y-82124302D01*
X100445228Y-82126644D01*
X100392561Y-82142620D01*
X100344023Y-82168564D01*
X100301479Y-82203479D01*
X100266564Y-82246023D01*
X100240620Y-82294561D01*
X100224644Y-82347228D01*
X100219249Y-82402000D01*
X100219249Y-83902000D01*
X100224644Y-83956772D01*
X100240620Y-84009439D01*
X100266564Y-84057977D01*
X100301479Y-84100521D01*
X100344023Y-84135436D01*
X100392561Y-84161380D01*
X100445228Y-84177356D01*
X100500000Y-84182751D01*
X101200000Y-84182751D01*
X101254772Y-84177356D01*
X101307439Y-84161380D01*
X101355977Y-84135436D01*
X101398521Y-84100521D01*
X101433436Y-84057977D01*
X101459380Y-84009439D01*
X101475356Y-83956772D01*
X101480751Y-83902000D01*
X103219248Y-83902000D01*
X103224643Y-83956772D01*
X103240619Y-84009439D01*
X103266563Y-84057977D01*
X103301478Y-84100522D01*
X103344023Y-84135437D01*
X103392561Y-84161381D01*
X103445228Y-84177357D01*
X103500000Y-84182752D01*
X103754750Y-84181400D01*
X103824600Y-84111550D01*
X103824600Y-83177400D01*
X103875400Y-83177400D01*
X103875400Y-84111550D01*
X103945250Y-84181400D01*
X104200000Y-84182752D01*
X104254772Y-84177357D01*
X104307439Y-84161381D01*
X104355977Y-84135437D01*
X104398522Y-84100522D01*
X104433437Y-84057977D01*
X104459381Y-84009439D01*
X104469249Y-83976908D01*
X104469249Y-84202000D01*
X104474644Y-84256772D01*
X104490620Y-84309439D01*
X104516564Y-84357977D01*
X104551479Y-84400521D01*
X104594023Y-84435436D01*
X104642561Y-84461380D01*
X104695228Y-84477356D01*
X104750000Y-84482751D01*
X105750000Y-84482751D01*
X105804772Y-84477356D01*
X105857439Y-84461380D01*
X105905977Y-84435436D01*
X105948521Y-84400521D01*
X105983436Y-84357977D01*
X106009380Y-84309439D01*
X106025356Y-84256772D01*
X106030751Y-84202000D01*
X106030751Y-83402000D01*
X106025356Y-83347228D01*
X106009380Y-83294561D01*
X105983436Y-83246023D01*
X105948521Y-83203479D01*
X105905977Y-83168564D01*
X105857439Y-83142620D01*
X105804772Y-83126644D01*
X105750000Y-83121249D01*
X104750000Y-83121249D01*
X104695228Y-83126644D01*
X104642561Y-83142620D01*
X104594023Y-83168564D01*
X104551479Y-83203479D01*
X104516564Y-83246023D01*
X104490620Y-83294561D01*
X104479573Y-83330979D01*
X104479400Y-83247250D01*
X104409550Y-83177400D01*
X103875400Y-83177400D01*
X103824600Y-83177400D01*
X103290450Y-83177400D01*
X103220600Y-83247250D01*
X103219248Y-83902000D01*
X101480751Y-83902000D01*
X101480751Y-82402000D01*
X103219248Y-82402000D01*
X103220600Y-83056750D01*
X103290450Y-83126600D01*
X103824600Y-83126600D01*
X103824600Y-82192450D01*
X103875400Y-82192450D01*
X103875400Y-83126600D01*
X104409550Y-83126600D01*
X104479400Y-83056750D01*
X104480752Y-82402000D01*
X104475357Y-82347228D01*
X104459381Y-82294561D01*
X104433437Y-82246023D01*
X104398522Y-82203478D01*
X104355977Y-82168563D01*
X104307439Y-82142619D01*
X104254772Y-82126643D01*
X104200000Y-82121248D01*
X103945250Y-82122600D01*
X103875400Y-82192450D01*
X103824600Y-82192450D01*
X103754750Y-82122600D01*
X103500000Y-82121248D01*
X103445228Y-82126643D01*
X103392561Y-82142619D01*
X103344023Y-82168563D01*
X103301478Y-82203478D01*
X103266563Y-82246023D01*
X103240619Y-82294561D01*
X103224643Y-82347228D01*
X103219248Y-82402000D01*
X101480751Y-82402000D01*
X101475356Y-82347228D01*
X101459380Y-82294561D01*
X101433436Y-82246023D01*
X101398521Y-82203479D01*
X101355977Y-82168564D01*
X101307439Y-82142620D01*
X101254772Y-82126644D01*
X101231000Y-82124302D01*
X101231000Y-81056710D01*
X101232843Y-81038000D01*
X101231000Y-81019287D01*
X101225487Y-80963311D01*
X101203701Y-80891492D01*
X101168322Y-80825304D01*
X101132640Y-80781824D01*
X101132637Y-80781821D01*
X101120711Y-80767289D01*
X101106179Y-80755363D01*
X99385400Y-79034586D01*
X99385400Y-78936934D01*
X99363134Y-78824995D01*
X99319457Y-78719551D01*
X99256049Y-78624654D01*
X99175346Y-78543951D01*
X99080449Y-78480543D01*
X98975005Y-78436866D01*
X98863066Y-78414600D01*
X98748934Y-78414600D01*
X98636995Y-78436866D01*
X98531551Y-78480543D01*
X98436654Y-78543951D01*
X98355951Y-78624654D01*
X98292543Y-78719551D01*
X98248866Y-78824995D01*
X98226600Y-78936934D01*
X91699200Y-78936934D01*
X91685998Y-78870566D01*
X91600862Y-78665028D01*
X91477263Y-78480049D01*
X91319951Y-78322737D01*
X91136262Y-78200000D01*
X91319951Y-78077263D01*
X91477263Y-77919951D01*
X91600862Y-77734972D01*
X91622329Y-77683145D01*
X91665363Y-77726178D01*
X91677289Y-77740711D01*
X91691821Y-77752637D01*
X91691824Y-77752640D01*
X91735303Y-77788322D01*
X91786009Y-77815425D01*
X91801492Y-77823701D01*
X91873311Y-77845487D01*
X91929287Y-77851000D01*
X91929290Y-77851000D01*
X91948000Y-77852843D01*
X91966710Y-77851000D01*
X92054465Y-77851000D01*
X92068173Y-77919914D01*
X92084148Y-77972580D01*
X92121657Y-78063136D01*
X92147602Y-78111676D01*
X92202058Y-78193175D01*
X92236973Y-78235719D01*
X92306281Y-78305027D01*
X92348825Y-78339942D01*
X92430324Y-78394398D01*
X92478864Y-78420343D01*
X92569420Y-78457852D01*
X92622086Y-78473827D01*
X92718219Y-78492949D01*
X92772991Y-78498344D01*
X92797553Y-78498344D01*
X92822000Y-78500752D01*
X93322000Y-78500752D01*
X93376772Y-78495357D01*
X93429439Y-78479381D01*
X93472000Y-78456632D01*
X93514561Y-78479381D01*
X93567228Y-78495357D01*
X93622000Y-78500752D01*
X94122000Y-78500752D01*
X94146447Y-78498344D01*
X94171009Y-78498344D01*
X94225781Y-78492949D01*
X94321914Y-78473827D01*
X94374580Y-78457852D01*
X94465136Y-78420343D01*
X94513676Y-78394398D01*
X94595175Y-78339942D01*
X94637719Y-78305027D01*
X94707027Y-78235719D01*
X94741942Y-78193175D01*
X94796398Y-78111676D01*
X94822343Y-78063136D01*
X94859852Y-77972580D01*
X94875827Y-77919914D01*
X94889535Y-77851000D01*
X99891605Y-77851000D01*
X99960654Y-77920049D01*
X100055551Y-77983457D01*
X100160995Y-78027134D01*
X100272934Y-78049400D01*
X100387066Y-78049400D01*
X100499005Y-78027134D01*
X100604449Y-77983457D01*
X100699346Y-77920049D01*
X100780049Y-77839346D01*
X100843457Y-77744449D01*
X100887134Y-77639005D01*
X100891586Y-77616625D01*
X102005946Y-78730985D01*
X102017876Y-78745522D01*
X102032411Y-78757450D01*
X102075890Y-78793133D01*
X102135499Y-78824995D01*
X102142079Y-78828512D01*
X102213898Y-78850298D01*
X102269874Y-78855811D01*
X102269877Y-78855811D01*
X102288587Y-78857654D01*
X102307297Y-78855811D01*
X103686704Y-78855811D01*
X103705414Y-78857654D01*
X103724124Y-78855811D01*
X103724127Y-78855811D01*
X103780103Y-78850298D01*
X103851922Y-78828512D01*
X103918110Y-78793133D01*
X103976125Y-78745522D01*
X103988060Y-78730979D01*
X105122039Y-77597000D01*
X105645290Y-77597000D01*
X105664000Y-77598843D01*
X105682710Y-77597000D01*
X105682713Y-77597000D01*
X105738689Y-77591487D01*
X105810508Y-77569701D01*
X105876696Y-77534322D01*
X105914376Y-77503399D01*
X106302954Y-77503399D01*
X106365329Y-77565774D01*
X106377260Y-77580312D01*
X106435275Y-77627923D01*
X106501463Y-77663302D01*
X106573282Y-77685088D01*
X106629258Y-77690601D01*
X106629261Y-77690601D01*
X106647971Y-77692444D01*
X106666681Y-77690601D01*
X107547061Y-77690601D01*
X107565771Y-77692444D01*
X107584481Y-77690601D01*
X107584484Y-77690601D01*
X107613170Y-77687776D01*
X107675551Y-77729457D01*
X107780995Y-77773134D01*
X107892934Y-77795400D01*
X108007066Y-77795400D01*
X108119005Y-77773134D01*
X108224449Y-77729457D01*
X108319346Y-77666049D01*
X108400049Y-77585346D01*
X108463457Y-77490449D01*
X108507134Y-77385005D01*
X108529400Y-77273066D01*
X108529400Y-77158934D01*
X108507134Y-77046995D01*
X108463457Y-76941551D01*
X108400049Y-76846654D01*
X108319346Y-76765951D01*
X108284272Y-76742515D01*
X108268322Y-76712676D01*
X108220711Y-76654661D01*
X108162696Y-76607050D01*
X108096508Y-76571671D01*
X108024689Y-76549885D01*
X107950000Y-76542529D01*
X107875312Y-76549885D01*
X107838522Y-76561045D01*
X107834136Y-76538995D01*
X107790459Y-76433551D01*
X107727051Y-76338654D01*
X107646348Y-76257951D01*
X107551451Y-76194543D01*
X107446007Y-76150866D01*
X107334068Y-76128600D01*
X107222456Y-76128600D01*
X107169510Y-76100299D01*
X107097691Y-76078513D01*
X107041715Y-76073000D01*
X107041712Y-76073000D01*
X107023002Y-76071157D01*
X107004292Y-76073000D01*
X105174702Y-76073000D01*
X105155999Y-76071158D01*
X105137296Y-76073000D01*
X105137287Y-76073000D01*
X105081311Y-76078513D01*
X105009492Y-76100299D01*
X104966359Y-76123355D01*
X104943303Y-76135678D01*
X104934462Y-76142934D01*
X104885289Y-76183289D01*
X104873359Y-76197826D01*
X103695909Y-77375276D01*
X103681134Y-77300995D01*
X103637457Y-77195551D01*
X103574049Y-77100654D01*
X103493346Y-77019951D01*
X103398449Y-76956543D01*
X103293005Y-76912866D01*
X103181066Y-76890600D01*
X103083415Y-76890600D01*
X101981000Y-75788186D01*
X101981000Y-74803000D01*
X107169290Y-74803000D01*
X107188000Y-74804843D01*
X107206710Y-74803000D01*
X107206713Y-74803000D01*
X107262689Y-74797487D01*
X107334508Y-74775701D01*
X107400696Y-74740322D01*
X107458711Y-74692711D01*
X107470646Y-74678168D01*
X107920285Y-74228530D01*
X107974932Y-74239400D01*
X108089064Y-74239400D01*
X108201003Y-74217134D01*
X108306447Y-74173457D01*
X108401344Y-74110049D01*
X108482047Y-74029346D01*
X108545455Y-73934449D01*
X108589132Y-73829005D01*
X108611398Y-73717066D01*
X108611398Y-73619414D01*
X110531413Y-71699400D01*
X110547066Y-71699400D01*
X110659005Y-71677134D01*
X110764449Y-71633457D01*
X110859346Y-71570049D01*
X110940049Y-71489346D01*
X111003457Y-71394449D01*
X111047134Y-71289005D01*
X111069400Y-71177066D01*
X111069400Y-71062934D01*
X111047134Y-70950995D01*
X111003457Y-70845551D01*
X110940049Y-70750654D01*
X110859346Y-70669951D01*
X110764449Y-70606543D01*
X110659005Y-70562866D01*
X110547066Y-70540600D01*
X110432934Y-70540600D01*
X110320995Y-70562866D01*
X110215551Y-70606543D01*
X110120654Y-70669951D01*
X110039951Y-70750654D01*
X109976543Y-70845551D01*
X109932866Y-70950995D01*
X109910600Y-71062934D01*
X109910600Y-71177066D01*
X109921470Y-71231713D01*
X108072584Y-73080600D01*
X107974932Y-73080600D01*
X107862993Y-73102866D01*
X107823000Y-73119432D01*
X107823000Y-72413995D01*
X107892049Y-72344946D01*
X107955457Y-72250049D01*
X107999134Y-72144605D01*
X108021400Y-72032666D01*
X108021400Y-71918534D01*
X107999134Y-71806595D01*
X107955457Y-71701151D01*
X107892049Y-71606254D01*
X107811346Y-71525551D01*
X107716449Y-71462143D01*
X107611005Y-71418466D01*
X107499066Y-71396200D01*
X107384934Y-71396200D01*
X107272995Y-71418466D01*
X107167551Y-71462143D01*
X107072654Y-71525551D01*
X106991951Y-71606254D01*
X106928543Y-71701151D01*
X106884866Y-71806595D01*
X106862600Y-71918534D01*
X106862600Y-72032666D01*
X106884866Y-72144605D01*
X106928543Y-72250049D01*
X106991951Y-72344946D01*
X107061000Y-72413995D01*
X107061001Y-73248184D01*
X106776186Y-73533000D01*
X102582601Y-73533000D01*
X102582601Y-72627933D01*
X102584443Y-72609230D01*
X102582601Y-72590527D01*
X102582601Y-72590518D01*
X102577088Y-72534542D01*
X102555302Y-72462723D01*
X102532246Y-72419590D01*
X102519923Y-72396534D01*
X102484240Y-72353055D01*
X102472312Y-72338520D01*
X102457774Y-72326589D01*
X102171414Y-72040230D01*
X102159480Y-72025688D01*
X102101465Y-71978077D01*
X102035277Y-71942698D01*
X101963458Y-71920912D01*
X101907482Y-71915399D01*
X101907479Y-71915399D01*
X101888769Y-71913556D01*
X101870059Y-71915399D01*
X98070429Y-71915399D01*
X98051726Y-71913557D01*
X98042332Y-71914482D01*
X98257178Y-71699637D01*
X100802568Y-71699637D01*
X100871617Y-71768686D01*
X100966514Y-71832094D01*
X101071958Y-71875771D01*
X101183897Y-71898037D01*
X101298029Y-71898037D01*
X101409968Y-71875771D01*
X101515412Y-71832094D01*
X101610309Y-71768686D01*
X101691012Y-71687983D01*
X101754420Y-71593086D01*
X101798097Y-71487642D01*
X101820363Y-71375703D01*
X101820363Y-71261571D01*
X101798097Y-71149632D01*
X101754420Y-71044188D01*
X101691012Y-70949291D01*
X101610309Y-70868588D01*
X101515412Y-70805180D01*
X101409968Y-70761503D01*
X101298029Y-70739237D01*
X101183897Y-70739237D01*
X101071958Y-70761503D01*
X100966514Y-70805180D01*
X100871617Y-70868588D01*
X100802568Y-70937637D01*
X98118072Y-70937637D01*
X98099362Y-70935794D01*
X98080652Y-70937637D01*
X98080650Y-70937637D01*
X98024674Y-70943150D01*
X97952855Y-70964936D01*
X97886666Y-71000315D01*
X97857335Y-71024387D01*
X97828652Y-71047926D01*
X97816722Y-71062463D01*
X97199229Y-71679957D01*
X97199224Y-71679961D01*
X97068585Y-71810600D01*
X96970934Y-71810600D01*
X96858995Y-71832866D01*
X96753551Y-71876543D01*
X96658654Y-71939951D01*
X96577951Y-72020654D01*
X96514543Y-72115551D01*
X96470866Y-72220995D01*
X96456091Y-72295275D01*
X95321400Y-71160586D01*
X95321400Y-71062934D01*
X95299134Y-70950995D01*
X95255457Y-70845551D01*
X95192049Y-70750654D01*
X95111346Y-70669951D01*
X95016449Y-70606543D01*
X94911005Y-70562866D01*
X94799066Y-70540600D01*
X94684934Y-70540600D01*
X94572995Y-70562866D01*
X94467551Y-70606543D01*
X94372654Y-70669951D01*
X94361000Y-70681605D01*
X94361000Y-70630710D01*
X94362843Y-70612000D01*
X94361000Y-70593287D01*
X94355487Y-70537311D01*
X94333701Y-70465492D01*
X94298322Y-70399304D01*
X94294079Y-70394134D01*
X94262640Y-70355824D01*
X94262637Y-70355821D01*
X94250711Y-70341289D01*
X94236179Y-70329363D01*
X92850646Y-68943832D01*
X92838711Y-68929289D01*
X92780696Y-68881678D01*
X92714508Y-68846299D01*
X92642689Y-68824513D01*
X92586713Y-68819000D01*
X92586710Y-68819000D01*
X92568000Y-68817157D01*
X92549290Y-68819000D01*
X91664639Y-68819000D01*
X91600862Y-68665028D01*
X91477263Y-68480049D01*
X91319951Y-68322737D01*
X91136262Y-68200000D01*
X91213786Y-68148200D01*
X93517386Y-68148200D01*
X95462359Y-70093174D01*
X95474289Y-70107711D01*
X95488824Y-70119639D01*
X95532303Y-70155322D01*
X95598492Y-70190701D01*
X95670311Y-70212487D01*
X95726287Y-70218000D01*
X95726289Y-70218000D01*
X95744999Y-70219843D01*
X95763709Y-70218000D01*
X99904605Y-70218000D01*
X99973654Y-70287049D01*
X100068551Y-70350457D01*
X100173995Y-70394134D01*
X100285934Y-70416400D01*
X100400066Y-70416400D01*
X100512005Y-70394134D01*
X100617449Y-70350457D01*
X100712346Y-70287049D01*
X100793049Y-70206346D01*
X100856457Y-70111449D01*
X100900134Y-70006005D01*
X100922400Y-69894066D01*
X100922400Y-69779934D01*
X100900134Y-69667995D01*
X100856457Y-69562551D01*
X100793049Y-69467654D01*
X100712346Y-69386951D01*
X100617449Y-69323543D01*
X100512005Y-69279866D01*
X100400066Y-69257600D01*
X100285934Y-69257600D01*
X100173995Y-69279866D01*
X100068551Y-69323543D01*
X99973654Y-69386951D01*
X99904605Y-69456000D01*
X95902815Y-69456000D01*
X94595014Y-68148200D01*
X105333800Y-68148200D01*
X105333800Y-70612000D01*
X105335264Y-70626866D01*
X105339600Y-70641160D01*
X105346642Y-70654334D01*
X105356118Y-70665882D01*
X105367666Y-70675358D01*
X105380840Y-70682400D01*
X105395134Y-70686736D01*
X105410000Y-70688200D01*
X105841800Y-70688200D01*
X105841800Y-72390000D01*
X105843264Y-72404866D01*
X105847600Y-72419160D01*
X105854642Y-72432334D01*
X105864118Y-72443882D01*
X105875666Y-72453358D01*
X105888840Y-72460400D01*
X105903134Y-72464736D01*
X105918000Y-72466200D01*
X106426000Y-72466200D01*
X106440866Y-72464736D01*
X106455160Y-72460400D01*
X106468334Y-72453358D01*
X106479882Y-72443882D01*
X106489358Y-72432334D01*
X106496400Y-72419160D01*
X106500736Y-72404866D01*
X106502200Y-72390000D01*
X106502200Y-70688200D01*
X107442000Y-70688200D01*
X107456866Y-70686736D01*
X107471160Y-70682400D01*
X107484334Y-70675358D01*
X107495882Y-70665882D01*
X107505358Y-70654334D01*
X107512400Y-70641160D01*
X107516736Y-70626866D01*
X107518200Y-70612000D01*
X107518200Y-67132200D01*
X111429800Y-67132200D01*
X111429800Y-68072000D01*
G37*
%TD.AperFunction*%
D18*
X93599001Y-70769817D02*
X93599000Y-71229659D01*
X93597157Y-71248370D01*
X93599000Y-71267080D01*
X93599000Y-71267082D01*
X93604513Y-71323058D01*
X93612233Y-71348506D01*
X93626299Y-71394877D01*
X93661678Y-71461066D01*
X93677666Y-71480547D01*
X93709289Y-71519081D01*
X93723832Y-71531016D01*
X95843800Y-73650985D01*
X95855730Y-73665522D01*
X95884413Y-73689061D01*
X95913744Y-73713133D01*
X95968631Y-73742471D01*
X95979933Y-73748512D01*
X96051752Y-73770298D01*
X96107728Y-73775811D01*
X96107731Y-73775811D01*
X96126441Y-73777654D01*
X96145151Y-73775811D01*
X97050773Y-73775811D01*
X100183376Y-76908414D01*
X100160995Y-76912866D01*
X100055551Y-76956543D01*
X99960654Y-77019951D01*
X99891605Y-77089000D01*
X94889535Y-77089000D01*
X94875827Y-77020086D01*
X94859852Y-76967420D01*
X94822343Y-76876864D01*
X94796398Y-76828324D01*
X94741942Y-76746825D01*
X94707027Y-76704281D01*
X94637719Y-76634973D01*
X94595175Y-76600058D01*
X94566653Y-76581000D01*
X95065605Y-76581000D01*
X95134654Y-76650049D01*
X95229551Y-76713457D01*
X95334995Y-76757134D01*
X95446934Y-76779400D01*
X95561066Y-76779400D01*
X95673005Y-76757134D01*
X95778449Y-76713457D01*
X95873346Y-76650049D01*
X95954049Y-76569346D01*
X96017457Y-76474449D01*
X96061134Y-76369005D01*
X96083400Y-76257066D01*
X96083400Y-76142934D01*
X96061134Y-76030995D01*
X96017457Y-75925551D01*
X95954049Y-75830654D01*
X95873346Y-75749951D01*
X95778449Y-75686543D01*
X95673005Y-75642866D01*
X95561066Y-75620600D01*
X95446934Y-75620600D01*
X95334995Y-75642866D01*
X95229551Y-75686543D01*
X95134654Y-75749951D01*
X95065605Y-75819000D01*
X94645815Y-75819000D01*
X94612521Y-75785706D01*
X94637719Y-75765027D01*
X94707027Y-75695719D01*
X94741942Y-75653175D01*
X94796398Y-75571676D01*
X94822343Y-75523136D01*
X94859852Y-75432580D01*
X94875827Y-75379914D01*
X94894949Y-75283781D01*
X94900344Y-75229009D01*
X94900344Y-75204447D01*
X94902752Y-75180000D01*
X94902752Y-74680000D01*
X94900344Y-74655553D01*
X94900344Y-74630991D01*
X94894949Y-74576219D01*
X94875827Y-74480086D01*
X94859852Y-74427420D01*
X94822343Y-74336864D01*
X94796398Y-74288324D01*
X94741942Y-74206825D01*
X94707027Y-74164281D01*
X94637719Y-74094973D01*
X94595175Y-74060058D01*
X94513676Y-74005602D01*
X94465136Y-73979657D01*
X94374580Y-73942148D01*
X94321914Y-73926173D01*
X94225781Y-73907051D01*
X94171009Y-73901656D01*
X94146447Y-73901656D01*
X94122000Y-73899248D01*
X93622000Y-73899248D01*
X93567228Y-73904643D01*
X93514561Y-73920619D01*
X93472000Y-73943368D01*
X93429439Y-73920619D01*
X93376772Y-73904643D01*
X93322000Y-73899248D01*
X92822000Y-73899248D01*
X92797553Y-73901656D01*
X92772991Y-73901656D01*
X92718219Y-73907051D01*
X92622086Y-73926173D01*
X92569420Y-73942148D01*
X92478864Y-73979657D01*
X92430324Y-74005602D01*
X92348825Y-74060058D01*
X92306281Y-74094973D01*
X92236973Y-74164281D01*
X92202058Y-74206825D01*
X92147602Y-74288324D01*
X92121657Y-74336864D01*
X92084148Y-74427420D01*
X92068173Y-74480086D01*
X92054465Y-74549000D01*
X91966710Y-74549000D01*
X91948000Y-74547157D01*
X91929290Y-74549000D01*
X91929287Y-74549000D01*
X91873311Y-74554513D01*
X91801756Y-74576219D01*
X91801492Y-74576299D01*
X91735303Y-74611678D01*
X91691824Y-74647360D01*
X91691821Y-74647363D01*
X91677289Y-74659289D01*
X91665363Y-74673822D01*
X91622329Y-74716855D01*
X91600862Y-74665028D01*
X91477263Y-74480049D01*
X91319951Y-74322737D01*
X91136262Y-74200000D01*
X91319951Y-74077263D01*
X91477263Y-73919951D01*
X91600862Y-73734972D01*
X91685998Y-73529434D01*
X91729400Y-73311236D01*
X91729400Y-73088764D01*
X91685998Y-72870566D01*
X91600862Y-72665028D01*
X91477263Y-72480049D01*
X91319951Y-72322737D01*
X91136262Y-72200000D01*
X91319951Y-72077263D01*
X91477263Y-71919951D01*
X91600862Y-71734972D01*
X91685998Y-71529434D01*
X91729400Y-71311236D01*
X91729400Y-71088764D01*
X91685998Y-70870566D01*
X91600862Y-70665028D01*
X91477263Y-70480049D01*
X91319951Y-70322737D01*
X91136262Y-70200000D01*
X91319951Y-70077263D01*
X91477263Y-69919951D01*
X91600862Y-69734972D01*
X91664639Y-69581000D01*
X92410186Y-69581000D01*
X93599001Y-70769817D01*
%TA.AperFunction,Conductor*%
D19*
G36*
X93599001Y-70769817D02*
G01*
X93599000Y-71229659D01*
X93597157Y-71248370D01*
X93599000Y-71267080D01*
X93599000Y-71267082D01*
X93604513Y-71323058D01*
X93612233Y-71348506D01*
X93626299Y-71394877D01*
X93661678Y-71461066D01*
X93677666Y-71480547D01*
X93709289Y-71519081D01*
X93723832Y-71531016D01*
X95843800Y-73650985D01*
X95855730Y-73665522D01*
X95884413Y-73689061D01*
X95913744Y-73713133D01*
X95968631Y-73742471D01*
X95979933Y-73748512D01*
X96051752Y-73770298D01*
X96107728Y-73775811D01*
X96107731Y-73775811D01*
X96126441Y-73777654D01*
X96145151Y-73775811D01*
X97050773Y-73775811D01*
X100183376Y-76908414D01*
X100160995Y-76912866D01*
X100055551Y-76956543D01*
X99960654Y-77019951D01*
X99891605Y-77089000D01*
X94889535Y-77089000D01*
X94875827Y-77020086D01*
X94859852Y-76967420D01*
X94822343Y-76876864D01*
X94796398Y-76828324D01*
X94741942Y-76746825D01*
X94707027Y-76704281D01*
X94637719Y-76634973D01*
X94595175Y-76600058D01*
X94566653Y-76581000D01*
X95065605Y-76581000D01*
X95134654Y-76650049D01*
X95229551Y-76713457D01*
X95334995Y-76757134D01*
X95446934Y-76779400D01*
X95561066Y-76779400D01*
X95673005Y-76757134D01*
X95778449Y-76713457D01*
X95873346Y-76650049D01*
X95954049Y-76569346D01*
X96017457Y-76474449D01*
X96061134Y-76369005D01*
X96083400Y-76257066D01*
X96083400Y-76142934D01*
X96061134Y-76030995D01*
X96017457Y-75925551D01*
X95954049Y-75830654D01*
X95873346Y-75749951D01*
X95778449Y-75686543D01*
X95673005Y-75642866D01*
X95561066Y-75620600D01*
X95446934Y-75620600D01*
X95334995Y-75642866D01*
X95229551Y-75686543D01*
X95134654Y-75749951D01*
X95065605Y-75819000D01*
X94645815Y-75819000D01*
X94612521Y-75785706D01*
X94637719Y-75765027D01*
X94707027Y-75695719D01*
X94741942Y-75653175D01*
X94796398Y-75571676D01*
X94822343Y-75523136D01*
X94859852Y-75432580D01*
X94875827Y-75379914D01*
X94894949Y-75283781D01*
X94900344Y-75229009D01*
X94900344Y-75204447D01*
X94902752Y-75180000D01*
X94902752Y-74680000D01*
X94900344Y-74655553D01*
X94900344Y-74630991D01*
X94894949Y-74576219D01*
X94875827Y-74480086D01*
X94859852Y-74427420D01*
X94822343Y-74336864D01*
X94796398Y-74288324D01*
X94741942Y-74206825D01*
X94707027Y-74164281D01*
X94637719Y-74094973D01*
X94595175Y-74060058D01*
X94513676Y-74005602D01*
X94465136Y-73979657D01*
X94374580Y-73942148D01*
X94321914Y-73926173D01*
X94225781Y-73907051D01*
X94171009Y-73901656D01*
X94146447Y-73901656D01*
X94122000Y-73899248D01*
X93622000Y-73899248D01*
X93567228Y-73904643D01*
X93514561Y-73920619D01*
X93472000Y-73943368D01*
X93429439Y-73920619D01*
X93376772Y-73904643D01*
X93322000Y-73899248D01*
X92822000Y-73899248D01*
X92797553Y-73901656D01*
X92772991Y-73901656D01*
X92718219Y-73907051D01*
X92622086Y-73926173D01*
X92569420Y-73942148D01*
X92478864Y-73979657D01*
X92430324Y-74005602D01*
X92348825Y-74060058D01*
X92306281Y-74094973D01*
X92236973Y-74164281D01*
X92202058Y-74206825D01*
X92147602Y-74288324D01*
X92121657Y-74336864D01*
X92084148Y-74427420D01*
X92068173Y-74480086D01*
X92054465Y-74549000D01*
X91966710Y-74549000D01*
X91948000Y-74547157D01*
X91929290Y-74549000D01*
X91929287Y-74549000D01*
X91873311Y-74554513D01*
X91801756Y-74576219D01*
X91801492Y-74576299D01*
X91735303Y-74611678D01*
X91691824Y-74647360D01*
X91691821Y-74647363D01*
X91677289Y-74659289D01*
X91665363Y-74673822D01*
X91622329Y-74716855D01*
X91600862Y-74665028D01*
X91477263Y-74480049D01*
X91319951Y-74322737D01*
X91136262Y-74200000D01*
X91319951Y-74077263D01*
X91477263Y-73919951D01*
X91600862Y-73734972D01*
X91685998Y-73529434D01*
X91729400Y-73311236D01*
X91729400Y-73088764D01*
X91685998Y-72870566D01*
X91600862Y-72665028D01*
X91477263Y-72480049D01*
X91319951Y-72322737D01*
X91136262Y-72200000D01*
X91319951Y-72077263D01*
X91477263Y-71919951D01*
X91600862Y-71734972D01*
X91685998Y-71529434D01*
X91729400Y-71311236D01*
X91729400Y-71088764D01*
X91685998Y-70870566D01*
X91600862Y-70665028D01*
X91477263Y-70480049D01*
X91319951Y-70322737D01*
X91136262Y-70200000D01*
X91319951Y-70077263D01*
X91477263Y-69919951D01*
X91600862Y-69734972D01*
X91664639Y-69581000D01*
X92410186Y-69581000D01*
X93599001Y-70769817D01*
G37*
%TD.AperFunction*%
%TD*%
M02*
