%TF.GenerationSoftware,KiCad,Pcbnew,(5.1.7)-1*%
%TF.CreationDate,2020-10-27T00:37:30-04:00*%
%TF.ProjectId,esp8285bee,65737038-3238-4356-9265-652e6b696361,rev?*%
%TF.SameCoordinates,Original*%
%TF.FileFunction,Soldermask,Bot*%
%TF.FilePolarity,Negative*%
%FSLAX46Y46*%
G04 Gerber Fmt 4.6, Leading zero omitted, Abs format (unit mm)*
G04 Created by KiCad (PCBNEW (5.1.7)-1) date 2020-10-27 00:37:30*
%MOMM*%
%LPD*%
G01*
G04 APERTURE LIST*
%ADD10C,0.100000*%
%ADD11C,1.700000*%
%ADD12C,0.900000*%
%ADD13R,0.700000X1.500000*%
%ADD14R,1.000000X0.800000*%
%ADD15C,1.448000*%
G04 APERTURE END LIST*
D10*
%TO.C,JP1*%
G36*
X93622000Y-74180000D02*
G01*
X94122000Y-74180000D01*
X94122000Y-74180602D01*
X94146534Y-74180602D01*
X94195365Y-74185412D01*
X94243490Y-74194984D01*
X94290445Y-74209228D01*
X94335778Y-74228005D01*
X94379051Y-74251136D01*
X94419850Y-74278396D01*
X94457779Y-74309524D01*
X94492476Y-74344221D01*
X94523604Y-74382150D01*
X94550864Y-74422949D01*
X94573995Y-74466222D01*
X94592772Y-74511555D01*
X94607016Y-74558510D01*
X94616588Y-74606635D01*
X94621398Y-74655466D01*
X94621398Y-74680000D01*
X94622000Y-74680000D01*
X94622000Y-75180000D01*
X94621398Y-75180000D01*
X94621398Y-75204534D01*
X94616588Y-75253365D01*
X94607016Y-75301490D01*
X94592772Y-75348445D01*
X94573995Y-75393778D01*
X94550864Y-75437051D01*
X94523604Y-75477850D01*
X94492476Y-75515779D01*
X94457779Y-75550476D01*
X94419850Y-75581604D01*
X94379051Y-75608864D01*
X94335778Y-75631995D01*
X94290445Y-75650772D01*
X94243490Y-75665016D01*
X94195365Y-75674588D01*
X94146534Y-75679398D01*
X94122000Y-75679398D01*
X94122000Y-75680000D01*
X93622000Y-75680000D01*
X93622000Y-74180000D01*
G37*
G36*
X92822000Y-75679398D02*
G01*
X92797466Y-75679398D01*
X92748635Y-75674588D01*
X92700510Y-75665016D01*
X92653555Y-75650772D01*
X92608222Y-75631995D01*
X92564949Y-75608864D01*
X92524150Y-75581604D01*
X92486221Y-75550476D01*
X92451524Y-75515779D01*
X92420396Y-75477850D01*
X92393136Y-75437051D01*
X92370005Y-75393778D01*
X92351228Y-75348445D01*
X92336984Y-75301490D01*
X92327412Y-75253365D01*
X92322602Y-75204534D01*
X92322602Y-75180000D01*
X92322000Y-75180000D01*
X92322000Y-74680000D01*
X92322602Y-74680000D01*
X92322602Y-74655466D01*
X92327412Y-74606635D01*
X92336984Y-74558510D01*
X92351228Y-74511555D01*
X92370005Y-74466222D01*
X92393136Y-74422949D01*
X92420396Y-74382150D01*
X92451524Y-74344221D01*
X92486221Y-74309524D01*
X92524150Y-74278396D01*
X92564949Y-74251136D01*
X92608222Y-74228005D01*
X92653555Y-74209228D01*
X92700510Y-74194984D01*
X92748635Y-74185412D01*
X92797466Y-74180602D01*
X92822000Y-74180602D01*
X92822000Y-74180000D01*
X93322000Y-74180000D01*
X93322000Y-75680000D01*
X92822000Y-75680000D01*
X92822000Y-75679398D01*
G37*
%TD*%
%TO.C,JP2*%
G36*
X94122000Y-76720602D02*
G01*
X94146534Y-76720602D01*
X94195365Y-76725412D01*
X94243490Y-76734984D01*
X94290445Y-76749228D01*
X94335778Y-76768005D01*
X94379051Y-76791136D01*
X94419850Y-76818396D01*
X94457779Y-76849524D01*
X94492476Y-76884221D01*
X94523604Y-76922150D01*
X94550864Y-76962949D01*
X94573995Y-77006222D01*
X94592772Y-77051555D01*
X94607016Y-77098510D01*
X94616588Y-77146635D01*
X94621398Y-77195466D01*
X94621398Y-77220000D01*
X94622000Y-77220000D01*
X94622000Y-77720000D01*
X94621398Y-77720000D01*
X94621398Y-77744534D01*
X94616588Y-77793365D01*
X94607016Y-77841490D01*
X94592772Y-77888445D01*
X94573995Y-77933778D01*
X94550864Y-77977051D01*
X94523604Y-78017850D01*
X94492476Y-78055779D01*
X94457779Y-78090476D01*
X94419850Y-78121604D01*
X94379051Y-78148864D01*
X94335778Y-78171995D01*
X94290445Y-78190772D01*
X94243490Y-78205016D01*
X94195365Y-78214588D01*
X94146534Y-78219398D01*
X94122000Y-78219398D01*
X94122000Y-78220000D01*
X93622000Y-78220000D01*
X93622000Y-76720000D01*
X94122000Y-76720000D01*
X94122000Y-76720602D01*
G37*
G36*
X93322000Y-78220000D02*
G01*
X92822000Y-78220000D01*
X92822000Y-78219398D01*
X92797466Y-78219398D01*
X92748635Y-78214588D01*
X92700510Y-78205016D01*
X92653555Y-78190772D01*
X92608222Y-78171995D01*
X92564949Y-78148864D01*
X92524150Y-78121604D01*
X92486221Y-78090476D01*
X92451524Y-78055779D01*
X92420396Y-78017850D01*
X92393136Y-77977051D01*
X92370005Y-77933778D01*
X92351228Y-77888445D01*
X92336984Y-77841490D01*
X92327412Y-77793365D01*
X92322602Y-77744534D01*
X92322602Y-77720000D01*
X92322000Y-77720000D01*
X92322000Y-77220000D01*
X92322602Y-77220000D01*
X92322602Y-77195466D01*
X92327412Y-77146635D01*
X92336984Y-77098510D01*
X92351228Y-77051555D01*
X92370005Y-77006222D01*
X92393136Y-76962949D01*
X92420396Y-76922150D01*
X92451524Y-76884221D01*
X92486221Y-76849524D01*
X92524150Y-76818396D01*
X92564949Y-76791136D01*
X92608222Y-76768005D01*
X92653555Y-76749228D01*
X92700510Y-76734984D01*
X92748635Y-76725412D01*
X92797466Y-76720602D01*
X92822000Y-76720602D01*
X92822000Y-76720000D01*
X93322000Y-76720000D01*
X93322000Y-78220000D01*
G37*
%TD*%
D11*
%TO.C,MOD1*%
X90600000Y-67200000D03*
X90600000Y-69200000D03*
X90600000Y-71200000D03*
X90600000Y-73200000D03*
X90600000Y-75200000D03*
X90600000Y-77200000D03*
X90600000Y-79200000D03*
X90600000Y-81200000D03*
X90600000Y-83200000D03*
X90600000Y-85200000D03*
X112600000Y-85200000D03*
X112600000Y-83200000D03*
X112600000Y-81200000D03*
X112600000Y-79200000D03*
X112600000Y-77200000D03*
X112600000Y-75200000D03*
X112600000Y-73200000D03*
X112600000Y-71200000D03*
X112600000Y-69200000D03*
X112600000Y-67200000D03*
%TD*%
D12*
%TO.C,SW3*%
X103100000Y-84912000D03*
X100100000Y-84912000D03*
D13*
X103850000Y-83152000D03*
X100850000Y-83152000D03*
X99350000Y-83152000D03*
D14*
X105250000Y-86012000D03*
X97950000Y-86012000D03*
X97950000Y-83802000D03*
X105250000Y-83802000D03*
%TD*%
D15*
%TO.C,H1*%
X92710000Y-65532000D03*
%TD*%
%TO.C,H2*%
X110490000Y-65532000D03*
%TD*%
%TO.C,H3*%
X101600000Y-85598000D03*
%TD*%
M02*
